<svg width="44" height="44" viewBox="0 0 44 44" fill="none" xmlns="http://www.w3.org/2000/svg">
<path d="M0.879883 34.4229H26.3999V43.017L31.6799 39.849L36.9599 43.017V34.4229H43.1199V0.98291H0.879883V34.4229ZM35.4331 28.4512C35.3539 28.5313 35.2694 28.6052 35.1858 28.68C35.1383 28.7223 35.0943 28.7672 35.045 28.8076C34.9904 28.8534 34.9324 28.8921 34.876 28.9352C34.1342 29.5028 33.2401 29.8804 32.2642 29.9886C32.2484 29.9904 32.2325 29.9939 32.2158 29.9956C32.0389 30.0132 31.8594 30.0229 31.6781 30.0229C31.4968 30.0229 31.3173 30.0132 31.1404 29.9956C31.1246 29.9939 31.1088 29.9904 31.092 29.9886C30.1161 29.8804 29.2229 29.5028 28.4802 28.9352C28.4239 28.8921 28.3658 28.8525 28.3112 28.8076C28.2628 28.7672 28.218 28.7223 28.1704 28.68C28.0868 28.6052 28.0032 28.5313 27.9232 28.4512C26.9807 27.4973 26.3964 26.1879 26.3964 24.7429C26.3964 21.831 28.7644 19.4629 31.6764 19.4629C34.5883 19.4629 36.9564 21.831 36.9564 24.7429C36.9599 26.187 36.3764 27.4964 35.4331 28.4512ZM35.1999 39.9088L31.6799 37.7968L28.1599 39.9088V34.4229V30.8413C28.1898 30.8589 28.2232 30.8703 28.254 30.8871C28.4872 31.0173 28.7275 31.137 28.9756 31.2408C28.9862 31.2452 28.9976 31.2488 29.0091 31.2532C29.8336 31.5928 30.7348 31.7829 31.6808 31.7829C32.6268 31.7829 33.5279 31.5928 34.3524 31.2532C34.363 31.2488 34.3744 31.2452 34.3859 31.2408C34.634 31.137 34.8743 31.0182 35.1075 30.8871C35.1383 30.8703 35.1717 30.8589 35.2016 30.8413V34.4229V39.9088H35.1999ZM2.63988 2.74291H41.3599V32.6629H36.9599V29.384C38.052 28.1432 38.7199 26.5214 38.7199 24.7429C38.7199 20.8612 35.5616 17.7029 31.6799 17.7029C27.7982 17.7029 24.6399 20.8612 24.6399 24.7429C24.6399 26.5214 25.3078 28.1432 26.3999 29.384V32.6629H2.63988V2.74291Z" fill="#7E7E7E"/>
<path d="M33.4401 6.26288H10.5601V8.02287H33.4401V6.26288Z" fill="#7E7E7E"/>
<path d="M29.0399 11.5429H14.96V13.3029H29.0399V11.5429Z" fill="#7E7E7E"/>
<path d="M15.8397 27.3829H6.15967V29.1429H15.8397V27.3829Z" fill="#7E7E7E"/>
</svg>
