<svg width="48" height="48" viewBox="0 0 48 48" fill="none" xmlns="http://www.w3.org/2000/svg">
<path d="M26.813 34.2416C26.813 34.2416 34.0066 41.4352 34.5234 41.952C36.1874 43.616 38.8834 43.616 40.5458 41.952C42.2098 40.288 42.2098 37.592 40.5458 35.928C40.029 35.4112 32.8354 28.2176 32.8354 28.2176L26.813 34.2416Z" fill="#7E7E7E"/>
<path d="M38.3966 17.6048L33.275 16.3248L31.995 11.2032L37.9246 5.2736C34.5182 4.1904 30.643 4.992 27.9406 7.6928C24.0846 11.5488 25.3182 16.568 29.1758 20.424C33.0318 24.28 38.051 25.5152 41.907 21.6576C44.6094 18.9552 45.411 15.08 44.3262 11.6752L38.3966 17.6048Z" fill="#7E7E7E"/>
<path d="M20.0002 18.4L14.4002 12.8L12.8002 8L6.4002 4.8L3.2002 8L6.4002 14.4L11.2002 16L16.8002 21.6L20.0002 18.4Z" fill="#7E7E7E"/>
<path d="M28.6063 14.2064C23.2239 19.5888 8.3887 34.424 7.8063 35.0064C5.9311 36.8816 5.9311 39.92 7.8063 41.7952C9.6815 43.6704 12.7199 43.6704 14.5951 41.7952C15.1775 41.2128 30.0127 26.3776 35.3951 20.9952L28.6063 14.2064ZM11.1999 40C10.3167 40 9.5999 39.2832 9.5999 38.4C9.5999 37.5168 10.3167 36.8 11.1999 36.8C12.0831 36.8 12.7999 37.5168 12.7999 38.4C12.7999 39.2832 12.0831 40 11.1999 40Z" fill="#7E7E7E"/>
</svg>
