<svg width="46" height="46" viewBox="0 0 46 46" fill="none" xmlns="http://www.w3.org/2000/svg">
<path d="M22.9998 41.4C24.6934 41.4 26.0664 40.027 26.0664 38.3333C26.0664 36.6397 24.6934 35.2667 22.9998 35.2667C21.3061 35.2667 19.9331 36.6397 19.9331 38.3333C19.9331 40.027 21.3061 41.4 22.9998 41.4Z" fill="#7E7E7E"/>
<path d="M36.8001 12.2667C38.4937 12.2667 39.8667 10.8937 39.8667 9.2C39.8667 7.50632 38.4937 6.13333 36.8001 6.13333C35.1064 6.13333 33.7334 7.50632 33.7334 9.2C33.7334 10.8937 35.1064 12.2667 36.8001 12.2667Z" fill="#7E7E7E"/>
<path d="M9.19997 12.2667C10.8936 12.2667 12.2666 10.8937 12.2666 9.2C12.2666 7.50632 10.8936 6.13333 9.19997 6.13333C7.50629 6.13333 6.1333 7.50632 6.1333 9.2C6.1333 10.8937 7.50629 12.2667 9.19997 12.2667Z" fill="#7E7E7E"/>
<path d="M37.3949 6.19161C37.3949 6.19161 30.0564 4.60001 23 4.60001C15.9436 4.60001 8.60503 6.19161 8.60503 6.19161L6.1333 9.20001V18.4C6.1333 34.3436 21.4988 41.009 21.4988 41.009H24.4996C24.5011 41.009 39.8666 34.3436 39.8666 18.4V9.20001L37.3949 6.19161ZM33.284 16.4174L21.692 28.0094C21.4038 28.2977 21.0143 28.4587 20.608 28.4587C20.2016 28.4587 19.8106 28.2977 19.5239 28.0094L14.2293 22.7148C13.6298 22.1153 13.6298 21.1462 14.2293 20.5467C14.8288 19.9471 15.7979 19.9471 16.3974 20.5467L20.608 24.7572L31.1159 14.2493C31.7154 13.6497 32.6845 13.6497 33.284 14.2493C33.8836 14.8488 33.8836 15.8179 33.284 16.4174Z" fill="#7E7E7E"/>
</svg>
