<svg width="46" height="46" viewBox="0 0 46 46" fill="none" xmlns="http://www.w3.org/2000/svg">
<path d="M37.7964 14.749L30.5409 2.74855C30.3725 2.47025 30.0707 2.30005 29.7455 2.30005H16.2546C15.9294 2.30005 15.6277 2.47025 15.4593 2.74855L8.20417 14.749C8.11631 14.8939 8.07031 15.0604 8.07031 15.2297V42.6053C8.07031 43.0197 8.34355 43.3666 8.71799 43.4862V43.7001H11.9886C12.4992 43.7001 12.9146 43.2842 12.9146 42.7741C12.9146 42.2639 12.4992 41.8481 11.9886 41.8481H9.92871V15.4887L16.7786 4.15845H29.2211L36.0714 15.4887V41.8476H33.9853C33.4747 41.8476 33.0594 42.2635 33.0594 42.7736C33.0594 43.2837 33.4747 43.7001 33.9853 43.7001H37.3029V43.4797C37.6667 43.3537 37.9298 43.0119 37.9298 42.6053V15.2297C37.9303 15.0604 37.8838 14.8939 37.7964 14.749Z" fill="#7E7E7E"/>
<path d="M23.0003 10.8569C24.0371 10.8569 24.8776 10.0165 24.8776 8.97968C24.8776 7.9429 24.0371 7.10242 23.0003 7.10242C21.9635 7.10242 21.123 7.9429 21.123 8.97968C21.123 10.0165 21.9635 10.8569 23.0003 10.8569Z" fill="#7E7E7E"/>
<path d="M25.989 41.848H24.6784C24.1678 41.848 23.7524 42.2639 23.7524 42.774C23.7524 43.2841 24.1678 43.7 24.6784 43.7H25.989C26.4996 43.7 26.9149 43.2841 26.9149 42.774C26.9149 42.2639 26.4991 41.848 25.989 41.848Z" fill="#7E7E7E"/>
<path d="M30.6501 41.848H29.3396C28.829 41.848 28.4136 42.2639 28.4136 42.774C28.4136 43.2841 28.8294 43.7 29.34 43.7H30.6506C31.1612 43.7 31.5765 43.2841 31.5765 42.774C31.5765 42.2639 31.1607 41.848 30.6501 41.848Z" fill="#7E7E7E"/>
<path d="M16.6491 41.848H15.3386C14.828 41.848 14.4126 42.2639 14.4126 42.774C14.4126 43.2841 14.8284 43.7 15.3386 43.7H16.6491C17.1597 43.7 17.5751 43.2841 17.5751 42.774C17.5751 42.2639 17.1597 41.848 16.6491 41.848Z" fill="#7E7E7E"/>
<path d="M21.2947 41.848H19.9841C19.4735 41.848 19.0586 42.2639 19.0586 42.774C19.0586 43.2841 19.474 43.7 19.9846 43.7H21.2951C21.8057 43.7 22.2211 43.2841 22.2211 42.774C22.2211 42.2639 21.8053 41.848 21.2947 41.848Z" fill="#7E7E7E"/>
<path d="M17.6158 18.9778C16.5293 18.9778 15.5711 19.3706 14.7418 20.1558C13.9271 20.9415 13.5195 21.8666 13.5195 22.9306C13.5195 24.0392 13.9161 24.9937 14.7086 25.7936C15.5086 26.594 16.4663 26.9937 17.5827 26.9937C18.7203 26.9937 19.6927 26.6014 20.5005 25.8157C21.3078 25.0305 21.7117 24.087 21.7117 22.9858C21.7117 21.8919 21.3078 20.9526 20.5005 20.1669C19.6927 19.3738 18.7313 18.9778 17.6158 18.9778ZM19.1573 24.5272C18.7313 24.9532 18.2212 25.1657 17.6269 25.1657C17.0174 25.1657 16.4999 24.9527 16.0744 24.5272C15.6484 24.1017 15.4359 23.5801 15.4359 22.9637C15.4359 22.3841 15.6489 21.8808 16.0744 21.4553C16.4999 21.0298 17.0137 20.8169 17.6158 20.8169C18.2175 20.8169 18.7313 21.0298 19.1573 21.4553C19.5828 21.8813 19.7958 22.3914 19.7958 22.9858C19.7958 23.5879 19.5828 24.1017 19.1573 24.5272Z" fill="#7E7E7E"/>
<path d="M28.3732 28.3043C27.2866 28.3043 26.3285 28.6971 25.4991 29.4823C24.6844 30.268 24.2769 31.1889 24.2769 32.246C24.2769 33.3693 24.6734 34.327 25.466 35.1201C26.2659 35.9127 27.2236 36.3092 28.34 36.3092C29.4854 36.3092 30.4579 35.9205 31.2578 35.1422C32.0725 34.3643 32.4801 33.4208 32.4801 32.3122C32.4801 31.2188 32.0762 30.279 31.2689 29.4934C30.4616 28.7003 29.4965 28.3043 28.3732 28.3043ZM29.9151 33.8537C29.4965 34.2797 28.9863 34.4922 28.3847 34.4922C27.7752 34.4922 27.2577 34.2792 26.8322 33.8537C26.4136 33.4282 26.2047 32.9066 26.2047 32.2902C26.2047 31.7032 26.4177 31.1967 26.8432 30.7708C27.2687 30.3453 27.7793 30.1323 28.3736 30.1323C28.9827 30.1323 29.4969 30.3453 29.9151 30.7708C30.3406 31.1967 30.5536 31.7106 30.5536 32.3122C30.5536 32.9144 30.3406 33.4282 29.9151 33.8537Z" fill="#7E7E7E"/>
<path d="M28.3376 18.3825C27.8882 18.124 27.3146 18.2776 27.0556 18.7266L17.3225 35.5994C17.0635 36.0483 17.2176 36.6224 17.6665 36.8814C17.8142 36.9665 17.9757 37.007 18.1344 37.007C18.4587 37.007 18.7747 36.8386 18.9486 36.5373L28.6817 19.6641C28.9407 19.2156 28.7861 18.6419 28.3376 18.3825Z" fill="#7E7E7E"/>
</svg>
