<svg width="39" height="40" viewBox="0 0 39 40" fill="none" xmlns="http://www.w3.org/2000/svg">
<path d="M2.60959 29.3103C1.7317 30.1868 1.7317 31.6136 2.60959 32.4901L6.45967 36.3343C6.88477 36.7591 7.45027 36.9927 8.05165 36.9927C8.65342 36.9927 9.21892 36.7587 9.64402 36.3343L19.8343 26.1597C20.2068 25.7878 20.4111 25.3166 20.4677 24.8307L23.3205 27.6787C22.5164 30.1724 23.1653 32.9126 25.042 34.7864C26.3844 36.1271 28.1647 36.8436 29.9938 36.8436C30.7259 36.8436 31.4661 36.7287 32.1891 36.4931C32.1977 36.4904 32.2047 36.4857 32.2129 36.4826C32.2387 36.4733 32.2632 36.4616 32.2878 36.4495C32.3104 36.4382 32.3334 36.4273 32.3545 36.4145C32.3744 36.4024 32.3931 36.388 32.4118 36.374C32.4352 36.3564 32.4582 36.3389 32.4793 36.3191C32.4851 36.3136 32.4922 36.3097 32.498 36.3039C32.5082 36.2938 32.5156 36.2817 32.5249 36.2708C32.544 36.2494 32.5628 36.2279 32.5791 36.2046C32.5936 36.1847 32.6061 36.1641 32.6181 36.1431C32.631 36.1209 32.6431 36.0987 32.6536 36.0757C32.6642 36.0527 32.6731 36.0294 32.6813 36.0056C32.6895 35.9818 32.6969 35.9581 32.7028 35.9336C32.7086 35.9098 32.7125 35.8861 32.716 35.8619C32.7195 35.8362 32.7223 35.8109 32.7234 35.7848C32.7246 35.7603 32.7238 35.7357 32.7223 35.7112C32.7207 35.6863 32.7188 35.6614 32.7153 35.6361C32.711 35.6088 32.7047 35.5823 32.6977 35.5555C32.6938 35.541 32.693 35.5263 32.688 35.5118C32.6852 35.5037 32.6805 35.4967 32.6774 35.4885C32.6681 35.4628 32.6564 35.4382 32.6443 35.4133C32.633 35.3904 32.622 35.3678 32.6088 35.346C32.5967 35.3265 32.583 35.3086 32.569 35.2899C32.5511 35.2657 32.5327 35.2424 32.5124 35.221C32.507 35.2151 32.5031 35.2085 32.4976 35.2027L29.855 32.5637C29.4229 32.1323 29.4217 31.4302 29.8526 30.9999L31.1783 29.6763C31.3869 29.468 31.6642 29.3531 31.9594 29.3531C31.9598 29.3531 31.9598 29.3531 31.9602 29.3531C32.2562 29.3531 32.5347 29.4688 32.7445 29.6783L35.3875 32.3172C35.3934 32.3231 35.4 32.327 35.4059 32.3324C35.4269 32.3523 35.4499 32.3698 35.4733 32.3873C35.4924 32.4013 35.5112 32.4157 35.531 32.4282C35.5521 32.4411 35.5743 32.452 35.597 32.4629C35.6223 32.4753 35.6473 32.4874 35.6734 32.4967C35.6812 32.4995 35.6882 32.5041 35.696 32.5069C35.7042 32.5096 35.7124 32.5084 35.7206 32.5108C35.7912 32.5314 35.8633 32.545 35.9363 32.5454C35.9374 32.5454 35.9382 32.5458 35.9394 32.5458C35.9405 32.5458 35.9413 32.5454 35.9425 32.5454C36.0139 32.545 36.0845 32.5318 36.1535 32.5123C36.1675 32.5084 36.1816 32.5045 36.1956 32.4999C36.2611 32.4773 36.3239 32.4465 36.3828 32.406C36.3933 32.399 36.4019 32.39 36.4121 32.3823C36.439 32.3616 36.4667 32.3425 36.4912 32.3176C36.5115 32.2974 36.5267 32.2748 36.5439 32.253C36.5536 32.2409 36.5642 32.23 36.5731 32.2172C36.6164 32.1568 36.6492 32.0922 36.673 32.0244C36.6749 32.0189 36.6788 32.0151 36.6808 32.0096C37.5091 29.4867 36.8543 26.752 34.9718 24.8723C33.0955 22.9986 30.3515 22.3514 27.8559 23.1543L23.1981 18.5026L31.2925 10.4195C31.5285 10.1843 31.8471 10.0616 32.1845 10.0865C32.1895 10.0869 32.1942 10.0869 32.1993 10.0873C33.2488 10.1551 34.2374 9.61107 34.7429 8.70104L36.9522 4.72568C37.1211 4.42195 37.0676 4.04307 36.8216 3.79736L36.0092 2.98625L35.386 2.3636L35.1972 2.17513C34.9515 1.92903 34.5716 1.87568 34.2671 2.04468L30.2852 4.25101C29.369 4.75878 28.8246 5.7607 28.8979 6.80351C28.9213 7.13489 28.7996 7.45965 28.5649 7.69406L20.4685 15.778L15.8103 11.1266C16.6145 8.63407 15.9659 5.89466 14.0896 4.02165C12.2075 2.14203 9.46735 1.48901 6.94171 2.31531C6.93352 2.31804 6.92689 2.32232 6.91909 2.32544C6.89296 2.33478 6.868 2.34686 6.84265 2.35932C6.82003 2.37022 6.7978 2.38112 6.77674 2.39397C6.75685 2.40604 6.73813 2.42045 6.71902 2.43486C6.69562 2.45238 6.67261 2.4699 6.65155 2.48976C6.6457 2.49522 6.63868 2.49911 6.63322 2.50495C6.62269 2.51546 6.61567 2.52754 6.60592 2.53805C6.58681 2.55947 6.56809 2.58088 6.55171 2.60425C6.53728 2.6245 6.5248 2.64513 6.51271 2.66616C6.49984 2.68797 6.48814 2.70977 6.47761 2.73314C6.46708 2.7565 6.45811 2.78025 6.44953 2.8044C6.44173 2.82776 6.43432 2.85074 6.42847 2.87488C6.42262 2.89941 6.41833 2.92394 6.41482 2.94886C6.41131 2.97379 6.40858 2.99832 6.4078 3.02363C6.40663 3.04933 6.40741 3.07464 6.40897 3.09995C6.41053 3.12409 6.41209 3.14824 6.41599 3.17238C6.42028 3.20041 6.42691 3.22767 6.43432 3.25493C6.43822 3.26934 6.439 3.28375 6.44368 3.29776C6.44641 3.30594 6.4507 3.31256 6.45382 3.32035C6.46318 3.34644 6.47527 3.37136 6.48775 3.39667C6.49867 3.41926 6.50959 3.44184 6.52246 3.46287C6.53455 3.48234 6.5482 3.50025 6.56224 3.51855C6.58057 3.54308 6.5989 3.56684 6.61957 3.58864C6.62464 3.5941 6.62815 3.60033 6.63361 3.60578L9.27664 6.24473C9.70876 6.67657 9.70954 7.37826 9.27859 7.80894L7.95337 9.13211C7.52281 9.56278 6.82003 9.562 6.38674 9.13016L3.74332 6.49121C3.73747 6.48537 3.73084 6.48187 3.72499 6.47603C3.70354 6.45578 3.68014 6.43787 3.65635 6.42034C3.63763 6.40632 3.6193 6.39231 3.5998 6.38062C3.57835 6.36738 3.55534 6.35609 3.53194 6.34519C3.50737 6.33312 3.48319 6.32144 3.45784 6.31248C3.44965 6.30936 3.44224 6.30469 3.43405 6.30197C3.41962 6.29729 3.4048 6.29613 3.39037 6.29262C3.36307 6.28561 3.33616 6.27899 3.30847 6.27471C3.2839 6.27081 3.25972 6.26887 3.23515 6.2677C3.2098 6.26614 3.18523 6.26575 3.15988 6.26653C3.13375 6.2677 3.10801 6.27042 3.08227 6.27393C3.05887 6.27743 3.03547 6.28133 3.01207 6.28678C2.98633 6.29301 2.96098 6.30041 2.93602 6.30936C2.91379 6.31715 2.89234 6.32533 2.87089 6.33506C2.84554 6.34636 2.82136 6.3596 2.79757 6.37362C2.77846 6.38491 2.75974 6.3962 2.7418 6.40905C2.71684 6.42657 2.69383 6.44643 2.67082 6.46707C2.66068 6.47564 2.64976 6.48187 2.6404 6.49121C2.63494 6.49667 2.63104 6.50328 2.62558 6.50913C2.6053 6.53093 2.58697 6.5543 2.56903 6.57844C2.55499 6.59713 2.54095 6.61543 2.52925 6.6349C2.51638 6.65593 2.50546 6.67851 2.49415 6.7011C2.48206 6.72602 2.46997 6.75094 2.46061 6.77664C2.45749 6.78482 2.45281 6.79183 2.45008 6.80001C1.62484 9.32447 2.27926 12.0588 4.15945 13.9361C5.50495 15.2799 7.297 15.9929 9.12415 15.9929C9.8437 15.9929 10.5679 15.8761 11.2734 15.6498L14.1302 18.5026C13.6286 18.5606 13.1622 18.7736 12.7995 19.1357L2.60959 29.3103ZM27.1032 24.6044C27.1035 24.6048 27.1043 24.6056 27.1047 24.606L27.1059 24.6072C27.1199 24.6212 27.1367 24.6317 27.1515 24.6445C27.1745 24.664 27.1968 24.685 27.2217 24.7018C27.3531 24.7906 27.5052 24.8357 27.6573 24.8357C27.7638 24.8357 27.8699 24.8124 27.9693 24.7688C30.0048 23.9534 32.3171 24.4241 33.8689 25.9732C35.0034 27.1059 35.5615 28.6382 35.4573 30.1833L33.8482 28.5767C33.3439 28.0732 32.6739 27.7955 31.9618 27.7952C31.961 27.7952 31.9606 27.7952 31.9602 27.7952C31.2485 27.7952 30.5792 28.072 30.0761 28.5743L28.7501 29.8979C27.7116 30.936 27.7123 32.6252 28.7525 33.6645L30.3604 35.27C28.8121 35.3736 27.2779 34.8164 26.1449 33.6852C24.5986 32.1412 24.1255 29.8418 24.9305 27.8138C25.0042 27.7769 25.0748 27.7313 25.136 27.6694L25.7947 27.0074C26.0981 26.7021 26.0966 26.2091 25.7912 25.9062C25.4854 25.6032 24.9921 25.6044 24.6879 25.9097L24.2226 26.3774L20.9142 23.0745L20.9259 23.0628C21.6287 22.3607 21.725 21.284 21.2239 20.4737L22.0948 19.6042L27.1032 24.6044ZM29.6682 8.79489C30.2224 8.24117 30.5086 7.47561 30.4544 6.69409C30.4232 6.25212 30.6541 5.82729 31.0425 5.61234L34.51 3.69106L35.3029 4.4827L33.3786 7.94483C33.1634 8.33228 32.7453 8.56476 32.2952 8.53205C32.2901 8.53166 32.2855 8.53166 32.28 8.53127C31.4996 8.48142 30.743 8.7653 30.1896 9.31785L20.1647 19.3293L19.903 19.068L19.6413 18.8067L21.0195 17.4306C21.0195 17.4306 21.0199 17.4302 21.0203 17.4302C21.0207 17.4302 21.0207 17.4298 21.0207 17.4294L29.6682 8.79489ZM5.26237 12.8353C4.12942 11.7041 3.57172 10.1722 3.67546 8.62628L5.28343 10.2318C5.80408 10.7516 6.48775 11.0117 7.17142 11.0117C7.85431 11.0117 8.53642 10.7524 9.0559 10.2337L10.3811 8.91015C11.4209 7.87202 11.4197 6.18242 10.3792 5.14351L8.77003 3.53724C10.3179 3.43288 11.8518 3.9905 12.9863 5.12287C14.5159 6.65009 14.9936 8.91638 14.2238 10.9272C14.1879 10.9525 14.1524 10.9798 14.12 11.0121L13.4609 11.6741C13.1571 11.979 13.1587 12.4724 13.4641 12.7757C13.6166 12.9268 13.8151 13.0023 14.014 13.0023C14.2144 13.0023 14.4145 12.9256 14.567 12.7726L14.909 12.4291L19.3655 16.8788L18.4951 17.7479C18.1655 17.5435 17.7876 17.429 17.3906 17.429C16.8286 17.429 16.2998 17.6482 15.8996 18.0478L15.8899 18.0575L12.0421 14.2153C11.8272 13.9922 11.4914 13.9085 11.1869 14.0323C9.14521 14.8598 6.81964 14.3901 5.26237 12.8353ZM14.8817 20.2377L15.3926 20.7474C15.6972 21.0516 16.1909 21.0516 16.4955 20.7474C16.7986 20.4449 16.7997 19.9554 16.4994 19.6513L17.0045 19.147C17.2116 18.9403 17.5688 18.9403 17.7763 19.147L19.8234 21.1914C20.036 21.4036 20.036 21.7494 19.8211 21.9635L19.3187 22.4651L18.0434 21.1918C17.7389 20.888 17.2451 20.8876 16.9405 21.1918C16.6359 21.4959 16.6359 21.9888 16.9405 22.2934L18.7318 24.0815C19.0013 24.3509 19.0013 24.789 18.7318 25.0585L8.5411 35.2326C8.28019 35.4932 7.82428 35.4939 7.56259 35.2326L3.7129 31.3889C3.44341 31.1194 3.44341 30.681 3.7129 30.4115L13.9028 20.2377C14.1641 19.976 14.62 19.9764 14.8817 20.2377Z" fill="#7E7E7E"/>
<path d="M5.57971 32.07C5.77939 32.07 5.97868 31.9941 6.13117 31.8418L7.73758 30.2375C8.04217 29.9334 8.04217 29.4404 7.73758 29.1359C7.43299 28.8322 6.93925 28.8318 6.63466 29.1359L5.02825 30.7402C4.72366 31.0443 4.72366 31.5373 5.02825 31.8414C5.18035 31.9941 5.38003 32.07 5.57971 32.07Z" fill="#7E7E7E"/>
<path d="M13.2616 26.6749L7.10938 32.818L8.21229 33.9192L14.3645 27.7761C14.6691 27.472 14.6691 26.979 14.3645 26.6749C14.06 26.3707 13.5662 26.3707 13.2616 26.6749Z" fill="#7E7E7E"/>
<path d="M8.61145 29.0413C8.81074 29.0413 9.01003 28.9654 9.16252 28.8139L13.8476 24.1415C14.0804 23.9098 14.4591 23.9102 14.6935 24.1438L14.8347 24.2848C15.0613 24.5114 15.0613 24.8802 14.8226 25.1185L15.9372 26.208C16.7726 25.3739 16.7726 24.0173 15.9372 23.1828L15.796 23.0418C14.9548 22.2023 13.5859 22.2007 12.7454 23.0391L8.06038 27.7115C7.75579 28.0152 7.75501 28.5086 8.0596 28.8131C8.21209 28.965 8.41138 29.0413 8.61145 29.0413Z" fill="#7E7E7E"/>
</svg>
