<svg width="53" height="40" viewBox="0 0 53 40" fill="none" xmlns="http://www.w3.org/2000/svg">
<path d="M18.9709 1.55841C18.45 1.60657 18.0085 2.08437 18.0107 2.59737V12.987H12.1837C12.1506 12.9854 12.1175 12.9854 12.0844 12.987C11.5636 13.0351 11.122 13.513 11.1242 14.0259V23.3766C8.9758 23.3766 6.80898 23.3766 4.66815 23.3766C4.14734 23.4249 3.70577 23.9026 3.70802 24.4156V31.6883C3.70808 32.2323 4.21277 32.7272 4.76748 32.7272H8.47558C8.47558 35.5839 10.8598 37.9221 13.7729 37.9221C16.6859 37.9221 19.0702 35.5839 19.0702 32.7272H33.9026C33.9026 35.5839 36.2868 37.9221 39.1999 37.9221C42.113 37.9221 44.4972 35.5839 44.4972 32.7272H48.2053C48.76 32.7272 49.2647 32.2323 49.2648 31.6883V24.4156C49.2647 23.8716 48.76 23.3766 48.2053 23.3766H41.8486V14.0259C41.8485 13.482 41.3438 12.987 40.7891 12.987H34.9621V2.59737C34.962 2.05339 34.4573 1.55846 33.9026 1.55841C28.928 1.55841 23.9383 1.55841 18.9709 1.55841ZM20.1296 3.63633H32.8432V12.987H20.1296V3.63633ZM13.2432 15.0649H25.4269V23.3766H13.2432V15.0649ZM27.5459 15.0649H39.7296V23.3766H27.5459V15.0649ZM5.82694 25.4545H47.1459V30.6493H44.0502C43.2274 28.8217 41.3587 27.5324 39.1999 27.5324C37.0411 27.5324 35.1724 28.8217 34.3496 30.6493H18.6232C17.8004 28.8217 15.9317 27.5324 13.7729 27.5324C11.6141 27.5324 9.74535 28.8217 8.92254 30.6493H5.82694V25.4545ZM13.7729 29.6104C15.5408 29.6104 16.9513 30.9935 16.9513 32.7272C16.9513 34.461 15.5408 35.8441 13.7729 35.8441C12.005 35.8441 10.5945 34.461 10.5945 32.7272C10.5945 30.9935 12.005 29.6104 13.7729 29.6104ZM39.1999 29.6104C40.9678 29.6104 42.3783 30.9935 42.3783 32.7272C42.3783 34.461 40.9678 35.8441 39.1999 35.8441C37.432 35.8441 36.0215 34.461 36.0215 32.7272C36.0215 30.9935 37.432 29.6104 39.1999 29.6104ZM13.7729 31.1688C12.8952 31.1688 12.1837 31.8665 12.1837 32.7272C12.1837 33.5879 12.8952 34.2857 13.7729 34.2857C14.6506 34.2857 15.3621 33.5879 15.3621 32.7272C15.3621 31.8665 14.6506 31.1688 13.7729 31.1688ZM39.1999 31.1688C38.3222 31.1688 37.6107 31.8665 37.6107 32.7272C37.6107 33.5879 38.3222 34.2857 39.1999 34.2857C40.0776 34.2857 40.7891 33.5879 40.7891 32.7272C40.7891 31.8665 40.0776 31.1688 39.1999 31.1688Z" fill="#7E7E7E"/>
</svg>
