<svg width="47" height="47" viewBox="0 0 47 47" fill="none" xmlns="http://www.w3.org/2000/svg">
<path d="M36.0335 25.0667V18.8C36.0335 17.9352 36.7354 17.2333 37.6002 17.2333H42.0762L41.5466 15.9988C41.0531 14.8473 39.9204 14.1 38.6671 14.1H28.2002V36.0333H32.9785C32.8469 35.3847 32.872 34.6813 33.1148 33.9559C33.5253 32.7277 34.5797 31.7563 35.8377 31.4524C38.4258 30.8257 40.7335 32.7684 40.7335 35.25C40.7335 35.5179 40.7053 35.7795 40.6552 36.0333H45.4335V25.0667H36.0335Z" fill="#7E7E7E"/>
<path d="M36.8166 39.1667C38.9797 39.1667 40.7332 37.4131 40.7332 35.25C40.7332 33.0869 38.9797 31.3333 36.8166 31.3333C34.6535 31.3333 32.8999 33.0869 32.8999 35.25C32.8999 37.4131 34.6535 39.1667 36.8166 39.1667Z" stroke="#7E7E7E" stroke-width="2" stroke-miterlimit="10"/>
<path d="M25.0669 7.83333H4.70023C2.96906 7.83333 1.56689 9.23549 1.56689 10.9667V36.0333H7.91189C7.78029 35.3847 7.80536 34.6813 8.04819 33.9559C8.45866 32.7277 9.51303 31.7563 10.7711 31.4524C13.3592 30.8257 15.6669 32.7684 15.6669 35.25C15.6669 35.5179 15.6387 35.7795 15.5886 36.0333H28.2002V10.9667C28.2002 9.23549 26.7981 7.83333 25.0669 7.83333Z" fill="#7E7E7E"/>
<path d="M11.7502 39.1667C13.9133 39.1667 15.6668 37.4131 15.6668 35.25C15.6668 33.0869 13.9133 31.3333 11.7502 31.3333C9.58705 31.3333 7.8335 33.0869 7.8335 35.25C7.8335 37.4131 9.58705 39.1667 11.7502 39.1667Z" stroke="#7E7E7E" stroke-width="2" stroke-miterlimit="10"/>
<path d="M43.8667 34.4667H45.4334" stroke="#7E7E7E" stroke-width="2" stroke-miterlimit="10" stroke-linecap="round"/>
<path d="M1.56689 34.4667H4.70023" stroke="#7E7E7E" stroke-width="2" stroke-miterlimit="10" stroke-linecap="round"/>
</svg>
