<svg width="50" height="50" viewBox="0 0 50 50" fill="none" xmlns="http://www.w3.org/2000/svg">
<path d="M25 5C13.955 5 5 13.955 5 25C5 36.045 13.955 45 25 45C36.045 45 45 36.045 45 25C45 13.955 36.045 5 25 5ZM26.6667 34.7617V38.3333H23.3333V34.7717C19.7833 34.2983 17.5483 32.2333 17.4233 29.1733H21.225C21.4067 30.6967 22.9433 31.6733 25.1567 31.6733C27.2017 31.6733 28.6467 30.6833 28.6467 29.265C28.6467 28.0667 27.71 27.3767 25.405 26.8817L22.9567 26.3617C19.5317 25.645 17.8533 23.8617 17.8533 20.9967C17.8533 17.9467 19.9767 15.8033 23.3333 15.265V11.6667H26.6667V15.26C29.9267 15.7883 32.1267 17.9 32.2283 20.7883H28.53C28.3483 19.3033 26.9667 18.315 25.0667 18.315C23.1 18.315 21.7983 19.2267 21.7983 20.6583C21.7983 21.8167 22.6967 22.4817 24.8967 22.95L27.1617 23.4317C30.9383 24.2267 32.565 25.8533 32.565 28.77C32.5667 32.0733 30.3567 34.2567 26.6667 34.7617Z" fill="#7E7E7E"/>
</svg>
