<svg width="563" height="382" viewBox="0 0 563 382" fill="none" xmlns="http://www.w3.org/2000/svg">
<path opacity="0.2" fill-rule="evenodd" clip-rule="evenodd" d="M351.39 -554.413C439.09 -564.857 522.893 -541.9 594.088 -493.814C474.598 -409.416 372.04 -242.545 261.199 -71.8233C197.617 25.9654 136.959 121.974 74.3519 202.462C40.4894 152.078 15.1532 93.5189 0.962209 28.6201L21.0598 -2.41356C134.702 -176.333 238.723 -347.674 362.05 -430.381C252.668 -471.772 161.314 -446.573 77.6344 -382.191C143.408 -475.945 239.939 -541.141 351.39 -554.413ZM708.648 -377.859C646.041 -297.371 585.443 -200.653 521.862 -102.865C410.96 67.1478 309.01 233.946 188.911 318.417C259.437 365.867 343.909 389.46 431.609 379.016C540.016 366.106 634.354 304.035 699.214 213.971C617.118 275.3 527.408 298.155 421.194 257.819C544.521 175.112 649.211 4.40696 762.183 -170.148L782.281 -201.182C769.247 -266.935 743.18 -326.839 708.648 -377.859Z" fill="#DADADA"/>
</svg>
