<svg width="229" height="282" viewBox="0 0 229 282" fill="none" xmlns="http://www.w3.org/2000/svg">
<path opacity="0.1" d="M129.363 38.1442C92.2893 26.7394 60.8689 34.0225 31.9544 52.5358C55.224 25.5243 88.3023 6.54987 126.061 2.05336C156.402 -1.55991 185.265 4.61933 209.737 18.2468C188.845 31.2756 169.325 50.2817 150.155 72.4084C133.714 91.3843 117.511 112.679 100.913 134.493C97.9309 138.412 94.9359 142.349 91.9244 146.291C89.0076 150.104 86.1082 153.908 83.2227 157.694C63.7885 183.189 44.9852 207.857 25.7308 229.073C14.365 214.41 5.93393 197.332 1.30364 178.35L8.32576 169.134C8.32602 169.134 8.32629 169.133 8.32656 169.133C12.1306 164.184 15.9042 159.242 19.6554 154.331C35.9069 133.051 51.7392 112.32 67.8188 93.8349C87.6095 71.0835 107.744 51.771 129.444 39.0559L130.436 38.4743L129.363 38.1442ZM146.72 244.785C182.689 255.892 213.503 249.292 241.848 231.694C218.935 257.605 186.645 275.659 149.95 280.029C119.614 283.641 90.5274 277.282 66.2764 263.835C87.2718 250.794 106.792 231.788 125.938 209.691C141.916 191.249 157.653 170.632 173.778 149.507C177.2 145.024 180.64 140.517 184.104 136.003L184.104 136.003C187.621 131.405 191.111 126.817 194.583 122.254C213.384 97.5403 231.614 73.5785 250.281 53.0073C261.88 67.8631 270.551 85.3329 274.784 104.574L267.756 113.797L268.148 114.094L267.756 113.797C264.874 117.582 262.007 121.359 259.153 125.121C242.031 147.686 225.339 169.684 208.352 189.164C188.532 211.891 168.339 231.158 146.639 243.874L145.648 244.454L146.72 244.785Z" stroke="white"/>
</svg>
