<svg width="325" height="287" viewBox="0 0 325 287" fill="none" xmlns="http://www.w3.org/2000/svg">
<g opacity="0.7">
<path fill-rule="evenodd" clip-rule="evenodd" d="M195.6 1.21723H62.9907V160.315H195.6V1.21723ZM61.7734 0V161.532H196.817V0H61.7734Z" fill="white"/>
<path fill-rule="evenodd" clip-rule="evenodd" d="M195.6 1.21723H62.9907V10.4029H195.6V1.21723ZM61.7734 0V11.6201H196.817V0H61.7734Z" fill="white"/>
<path fill-rule="evenodd" clip-rule="evenodd" d="M261.284 87.4201H203.683V160.326H261.284V87.4201ZM202.466 86.2029V161.543H262.501V86.2029H202.466Z" fill="white"/>
<path fill-rule="evenodd" clip-rule="evenodd" d="M249.121 120.125H209.328V160.326H249.121V120.125ZM208.11 118.907V161.544H250.338V118.907H208.11Z" fill="white"/>
<path fill-rule="evenodd" clip-rule="evenodd" d="M67.047 251.01H57.3823V282.538H67.047V251.01ZM56.165 249.793V283.755H68.2642V249.793H56.165Z" fill="white"/>
<path fill-rule="evenodd" clip-rule="evenodd" d="M54.948 148.552H45.6909V167.32H54.948V148.552ZM44.4736 147.335V168.537H56.1652V147.335H44.4736Z" fill="white"/>
<path fill-rule="evenodd" clip-rule="evenodd" d="M4.76367 210.039H11.107V211.256H5.9809V225.554H11.107V226.771H4.76367V210.039Z" fill="white"/>
<path fill-rule="evenodd" clip-rule="evenodd" d="M320.234 210.008H313.891V211.225H319.017V225.523H313.891V226.74H320.234V210.008Z" fill="white"/>
<path fill-rule="evenodd" clip-rule="evenodd" d="M36.3555 167.347H62.4085V168.564H37.5727V268.184H56.3948V269.401H36.3555V167.347ZM287.451 168.564H261.798V167.347H288.668V269.401H67.265V268.184H287.451V168.564Z" fill="white"/>
<path fill-rule="evenodd" clip-rule="evenodd" d="M39.6006 170.63H62.5491V171.769H40.7865V264.979H56.6901V266.118H39.6006V170.63ZM284.238 171.769H261.68V170.63H285.424V266.118H268.09L267.758 269.472H256.869V266.118H67.2808V264.979H256.869V268.333H267.758L268.09 264.979H284.238V171.769Z" fill="white"/>
<path fill-rule="evenodd" clip-rule="evenodd" d="M267.333 253.083H257.668V268.283H267.333V253.083ZM256.451 251.865V269.5H268.55V251.865H256.451Z" fill="white"/>
<path fill-rule="evenodd" clip-rule="evenodd" d="M257.668 283.109H272.735V272.967L269.84 269.557H257.668V283.109ZM270.403 268.34H256.451V284.326H273.953V272.52L270.403 268.34Z" fill="white"/>
<path fill-rule="evenodd" clip-rule="evenodd" d="M190.887 27.4045H166.033V72.3424H190.887V27.4045ZM164.815 26.1873V73.5596H192.104V26.1873H164.815Z" fill="white"/>
<path fill-rule="evenodd" clip-rule="evenodd" d="M184.638 32.3142H172.513V56.6776H184.638V32.3142ZM171.296 31.0969V57.8948H185.856V31.0969H171.296Z" fill="white"/>
<path fill-rule="evenodd" clip-rule="evenodd" d="M230.725 87.4201H213.738V114.693H230.725V87.4201ZM212.521 86.2029V115.91H231.943V86.2029H212.521Z" fill="white"/>
<path fill-rule="evenodd" clip-rule="evenodd" d="M261.452 161.533H62.9907V190.261H261.452V161.533ZM61.7734 160.315V191.479H262.669V160.315H61.7734Z" fill="white"/>
<path fill-rule="evenodd" clip-rule="evenodd" d="M161.018 161.185L160.979 10.8015L162.196 10.8012L162.236 161.185L161.018 161.185Z" fill="white"/>
<path fill-rule="evenodd" clip-rule="evenodd" d="M73.0583 60.7112C71.7502 60.7112 70.6688 59.6366 70.6688 58.2849C70.6688 56.9332 71.7502 55.8586 73.0583 55.8586C74.3664 55.8586 75.4478 56.9332 75.4478 58.2849C75.4478 59.6366 74.3664 60.7112 73.0583 60.7112ZM73.0583 61.9284C71.0664 61.9284 69.4516 60.2972 69.4516 58.2849C69.4516 56.2726 71.0664 54.6414 73.0583 54.6414C75.0502 54.6414 76.665 56.2726 76.665 58.2849C76.665 60.2972 75.0502 61.9284 73.0583 61.9284Z" fill="white"/>
<path fill-rule="evenodd" clip-rule="evenodd" d="M153.724 60.3211C152.416 60.3211 151.335 59.2465 151.335 57.8948C151.335 56.5431 152.416 55.4684 153.724 55.4684C155.032 55.4684 156.114 56.5431 156.114 57.8948C156.114 59.2465 155.032 60.3211 153.724 60.3211ZM153.724 61.5383C151.732 61.5383 150.118 59.907 150.118 57.8948C150.118 55.8825 151.732 54.2512 153.724 54.2512C155.716 54.2512 157.331 55.8825 157.331 57.8948C157.331 59.907 155.716 61.5383 153.724 61.5383Z" fill="white"/>
<path fill-rule="evenodd" clip-rule="evenodd" d="M178.576 68.5423C176.336 68.5423 174.5 66.7048 174.5 64.4121C174.5 62.1194 176.336 60.2819 178.576 60.2819C180.815 60.2819 182.652 62.1194 182.652 64.4121C182.652 66.7048 180.815 68.5423 178.576 68.5423ZM178.576 69.7595C175.652 69.7595 173.282 67.3654 173.282 64.4121C173.282 61.4588 175.652 59.0647 178.576 59.0647C181.499 59.0647 183.869 61.4588 183.869 64.4121C183.869 67.3654 181.499 69.7595 178.576 69.7595Z" fill="white"/>
<path fill-rule="evenodd" clip-rule="evenodd" d="M189.565 107.126C188.257 107.126 187.176 106.052 187.176 104.7C187.176 103.348 188.257 102.274 189.565 102.274C190.873 102.274 191.955 103.348 191.955 104.7C191.955 106.052 190.873 107.126 189.565 107.126ZM189.565 108.343C187.573 108.343 185.958 106.712 185.958 104.7C185.958 102.688 187.573 101.056 189.565 101.056C191.557 101.056 193.172 102.688 193.172 104.7C193.172 106.712 191.557 108.343 189.565 108.343Z" fill="white"/>
<path fill-rule="evenodd" clip-rule="evenodd" d="M138.413 142.735C137.105 142.735 136.023 141.661 136.023 140.309C136.023 138.957 137.105 137.883 138.413 137.883C139.721 137.883 140.802 138.957 140.802 140.309C140.802 141.661 139.721 142.735 138.413 142.735ZM138.413 143.952C136.421 143.952 134.806 142.321 134.806 140.309C134.806 138.297 136.421 136.665 138.413 136.665C140.405 136.665 142.02 138.297 142.02 140.309C142.02 142.321 140.405 143.952 138.413 143.952Z" fill="white"/>
<path fill-rule="evenodd" clip-rule="evenodd" d="M18.9612 183C14.3391 192.022 11.4623 204.527 11.4623 218.374C11.4623 232.22 14.3391 244.726 18.9612 253.748C23.5998 262.802 29.8987 268.184 36.6849 268.184V269.401C29.2048 269.401 22.5882 263.497 17.8778 254.303C13.1509 245.076 10.2451 232.373 10.2451 218.374C10.2451 204.375 13.1509 191.671 17.8778 182.445C22.5882 173.251 29.2048 167.347 36.6849 167.347V168.564C29.8987 168.564 23.5998 173.946 18.9612 183Z" fill="white"/>
<path fill-rule="evenodd" clip-rule="evenodd" d="M21 185.244C16.9824 193.666 14.4819 205.341 14.4819 218.268C14.4819 231.195 16.9824 242.87 21 251.292C25.0319 259.745 30.5071 264.769 36.4057 264.769V265.906C29.904 265.906 24.1527 260.393 20.0583 251.81C15.9496 243.197 13.4238 231.337 13.4238 218.268C13.4238 205.199 15.9496 193.339 20.0583 184.726C24.1527 176.142 29.904 170.63 36.4057 170.63V171.767C30.5071 171.767 25.0319 176.791 21 185.244Z" fill="white"/>
<path fill-rule="evenodd" clip-rule="evenodd" d="M304.134 185.26C308.325 193.692 310.934 205.38 310.934 218.321C310.934 231.262 308.325 242.95 304.134 251.382C299.927 259.844 294.214 264.874 288.06 264.874V266.012C294.844 266.012 300.844 260.494 305.116 251.901C309.403 243.278 312.038 231.405 312.038 218.321C312.038 205.238 309.403 193.364 305.116 184.741C300.844 176.148 294.844 170.63 288.06 170.63V171.768C294.214 171.768 299.927 176.798 304.134 185.26Z" fill="white"/>
<path fill-rule="evenodd" clip-rule="evenodd" d="M305.784 183.053C310.406 192.069 313.283 204.567 313.283 218.405C313.283 232.243 310.406 244.741 305.784 253.757C301.146 262.805 294.847 268.184 288.06 268.184V269.401C295.54 269.401 302.157 263.501 306.867 254.312C311.594 245.091 314.5 232.395 314.5 218.405C314.5 204.415 311.594 191.719 306.867 182.498C302.157 173.309 295.54 167.409 288.06 167.409V168.626C294.847 168.626 301.146 174.005 305.784 183.053Z" fill="white"/>
</g>
</svg>
