<?xml version="1.0" encoding="utf-8"?>
<!-- Generator: Adobe Illustrator 22.1.0, SVG Export Plug-In . SVG Version: 6.00 Build 0)  -->
<svg version="1.1" id="Слой_1" xmlns="http://www.w3.org/2000/svg" xmlns:xlink="http://www.w3.org/1999/xlink" x="0px" y="0px"
	 viewBox="0 0 700 110" enable-background="new 0 0 700 110" xml:space="preserve">
<g id="layer102">
	<path fill="#7E7E7E" d="M0,109c0-0.7,80-1,238-1h238v-3c0-2.9,2.9-7,5-7s5,4.1,5,7v3h107c70.7,0,107,0.3,107,1c0,0.7-117.3,1-350,1
		S0,109.7,0,109z"/>
	<path fill="#7E7E7E" d="M196.2,105.9c0.2-0.6,0.8-1,1.3-1s1.1,0.4,1.3,1s-0.4,1.1-1.3,1.1C196.6,107,196,106.5,196.2,105.9z"/>
	<path fill="#7E7E7E" d="M329.2,104.8c0.2-1.5,1-2.3,2.3-2.3c1.3,0,2.1,0.8,2.3,2.3c0.3,1.8-0.1,2.2-2.3,2.2
		C329.3,107,328.9,106.6,329.2,104.8z"/>
	<path fill="#7E7E7E" d="M366.8,79.2c-1.8-2.6-10.5-4.7-12.5-3.1c-1.2,1-1.6,1-2.4-0.2c-0.5-0.8-0.9-1.8-0.9-2.2
		c0-0.5-2.4-3-5.3-5.7c-3.1-2.8-6.4-7.2-8-10.4c-1.6-3.1-3.2-5.4-3.7-5.1c-2.1,1.3-3.1-0.7-1.6-3c2.1-3.3,1.7-12.1-0.6-11.7
		c-2.8,0.4-3.1-1.7-0.4-2.9c1.6-0.7,3-2.6,3.7-4.8C339,18,351,7.2,362.6,5.3c2.2-0.4,4.1-1.5,5.1-2.9c1.9-3,3.5-3.1,3.1-0.1
		c-0.3,1.9,0.2,2.2,3.7,2.5c2.5,0.2,5.2-0.3,7.3-1.4c3.7-2,5.3-1.3,2.9,1.4c-1.5,1.6-1.3,1.9,3.1,4.4c6.5,3.7,11.5,9.2,15.2,16.5
		c1.6,3.4,3.9,6.7,5,7.3c2.4,1.3,2.6,2.7,0.4,3.2c-2.1,0.4-2.8,12.3-0.8,15.3c1.6,2.4,0.8,4.1-1.2,2.4c-1-0.8-1.8-0.1-3.4,3.1
		c-3.1,6.1-4.7,3.7-1.8-2.6c3.2-6.8,3.2-19.8,0-26.7c-2.7-6-11.1-15.2-12.6-13.7c-1.6,1.6-2.3,1.2-3-1.4c-0.4-1.8-1.8-2.7-6.4-4
		c-6.6-1.8-12-2-14.2-0.6c-1.3,0.9-1.3,1,0,1c2.8,0,14.3,6.1,18.2,9.5c2.2,2.1,4.8,3.5,6.4,3.5c2,0,2.4,0.4,2,1.8
		c-0.4,1.1,1,5,3.4,9.6c3.8,7.3,5.1,12.6,3.1,12.6c-0.5,0-1.7-2.2-2.6-4.9c-2.1-6.5-6.2-12.7-12.4-18.9c-5-5-7.1-5.8-7.1-2.6
		c0,0.8-0.4,1.4-1,1.4c-0.5,0-1-0.9-1-2c0-3.2-3.4-5.7-9.5-7c-8.5-1.8-10.1-0.5-3.6,2.8c2.9,1.5,8.5,5.7,12.5,9.4
		c5.8,5.5,7.7,6.8,10.4,6.8c3.6,0,4.2,1.2,1.1,2.6l-2,0.9l2,2.6c6.3,8,10.9,21.6,9.7,28.3c-1,5.4-3.1,4-2.7-1.7
		c0.3-5.9-2.7-15.8-4.1-13.3c-1.5,2.7-2.8,0.8-2.2-3.3c0.5-3.4,0.1-4.3-5.3-11.2c-9.2-11.5-18.1-18.6-27-21.3
		c-3.6-1.1-2.8,1,3.4,8.5c4.9,5.9,6.1,6.9,8.9,6.9c3.8,0,5.6,1.9,2.5,2.7c-1.2,0.3-2.1,0.7-2.1,1c0,0.2,5,6.3,11,13.4
		c6.1,7.2,10.8,13.5,10.4,14c-0.8,1.4-2.1,0.1-10.6-9.8c-6.5-7.7-7.3-8.3-8-6.3c-1.1,3.1-2.8,1.5-2.8-2.8c0-3.2-1.3-5.2-9.3-14.7
		c-8.9-10.6-9.2-10.9-9.5-7.9c-0.7,7.4,7,21.2,19.4,34.3c4.1,4.3,7.4,8.2,7.4,8.5c0,3-10.5-6.4-17.2-15.4c-2.4-3.3-3.8-3.8-3.8-1.5
		c0,0.8-0.7,1.5-1.5,1.5c-1.2,0-1.4-0.7-0.9-2.7c0.4-1.6,0.8-3,1-3.1c0.1-0.2-1.2-3.5-3.1-7.2c-1.8-3.8-3.6-7.9-3.9-9.2
		c-0.7-2.2-0.7-2.2-1.6-0.3C338.9,34,349.7,58,358.1,58c3.4,0,4.6,1.5,2.2,2.8c-1.4,0.9-1,1.4,3.1,4.1c2.7,1.6,5.3,3.2,5.9,3.4
		c0.6,0.2,0.7,0.9,0.3,1.5c-1.1,1.8-8-2.1-14.4-8.2c-8.9-8.3-13.5-16.9-15.8-29.1l-0.7-4l-1.3,4c-2.6,8.4-0.7,20.5,3.5,21.5
		c2.8,0.6,4.1,3,1.7,3c-2.5,0-1.9,1.7,2.1,6.1c5.2,5.8,10.2,8.7,17.8,10.4c5.8,1.4,14.3,1.3,16.7-0.1c0.4-0.2,1,0.1,1.4,0.7
		c1,1.7-1.6,2.9-6.3,2.9c-3.6,0-4.3,0.3-4.3,2C370,81.5,368.5,81.6,366.8,79.2z"/>
</g>
</svg>
