<svg width="147" height="246" viewBox="0 0 147 246" fill="none" xmlns="http://www.w3.org/2000/svg">
<path d="M1 37.3457V178.441" stroke="#333333" stroke-miterlimit="10" stroke-linecap="round" stroke-linejoin="round"/>
<path d="M45.1035 10.97V154.04" stroke="#333333" stroke-miterlimit="10" stroke-linecap="round" stroke-linejoin="round"/>
<path d="M103.907 10.97V154.04" stroke="#333333" stroke-miterlimit="10" stroke-linecap="round" stroke-linejoin="round"/>
<path d="M45.1035 10.97H103.908" stroke="#333333" stroke-miterlimit="10" stroke-linecap="round" stroke-linejoin="round"/>
<path d="M45.1035 154.04H103.908" stroke="#333333" stroke-miterlimit="10" stroke-linecap="round" stroke-linejoin="round"/>
<path d="M146.344 37.3455V178.441" stroke="#333333" stroke-miterlimit="10" stroke-linecap="round" stroke-linejoin="round"/>
<path d="M1 40.8271C7.3654 39.9178 14.6401 39.4631 22.218 39.3116C30.5537 39.16 38.2831 39.4631 44.9516 40.0694" stroke="#333333" stroke-miterlimit="10" stroke-linecap="round" stroke-linejoin="round"/>
<path d="M103.907 40.0694C109.666 39.4631 116.032 39.16 122.852 39.3116C131.491 39.3116 139.1 40.0541 146.223 40.8118" stroke="#333333" stroke-miterlimit="10" stroke-linecap="round" stroke-linejoin="round"/>
<path d="M54.5 36.8865V71.5931" stroke="#333333" stroke-miterlimit="10" stroke-linecap="round" stroke-linejoin="round"/>
<path d="M96.0264 36.8865V71.5931" stroke="#333333" stroke-miterlimit="10" stroke-linecap="round" stroke-linejoin="round"/>
<path d="M54.5 71.5928H96.0267" stroke="#333333" stroke-miterlimit="10" stroke-linecap="round" stroke-linejoin="round"/>
<path d="M54.5 36.8865H96.0267" stroke="#333333" stroke-miterlimit="10" stroke-linecap="round" stroke-linejoin="round"/>
<path d="M66.3213 45.5251V56.5888" stroke="#333333" stroke-miterlimit="10" stroke-linecap="round" stroke-linejoin="round"/>
<path d="M83.5986 45.5251V56.5888" stroke="#333333" stroke-miterlimit="10" stroke-linecap="round" stroke-linejoin="round"/>
<path d="M66.3213 45.5251H83.5988" stroke="#333333" stroke-miterlimit="10" stroke-linecap="round" stroke-linejoin="round"/>
<path d="M66.3213 56.5891H83.5988" stroke="#333333" stroke-miterlimit="10" stroke-linecap="round" stroke-linejoin="round"/>
<path d="M12.8213 88.8706H45.103" stroke="#333333" stroke-miterlimit="10" stroke-linecap="round" stroke-linejoin="round"/>
<path d="M103.907 88.8706H136.947" stroke="#333333" stroke-miterlimit="10" stroke-linecap="round" stroke-linejoin="round"/>
<path d="M123.761 79.4736H136.946" stroke="#333333" stroke-miterlimit="10" stroke-linecap="round" stroke-linejoin="round"/>
<path d="M136.946 88.8702V79.4736" stroke="#333333" stroke-miterlimit="10" stroke-linecap="round" stroke-linejoin="round"/>
<path d="M12.8213 88.8702V79.4736" stroke="#333333" stroke-miterlimit="10" stroke-linecap="round" stroke-linejoin="round"/>
<path d="M41.9208 21.8822C33.5852 21.4275 26.9167 22.4884 22.37 23.3978C15.853 24.7618 9.94228 26.2774 5.09244 31.2787C3.1222 33.249 1.66287 35.7489 1.05664 37.2644" stroke="#333333" stroke-miterlimit="10" stroke-linecap="round" stroke-linejoin="round"/>
<path d="M107.09 21.8824C113.001 21.5792 122.094 21.8823 131.339 25.0651C138.765 27.6415 141.948 30.5211 143.918 32.946C145.131 34.4616 145.85 36.4254 146.304 37.1832" stroke="#333333" stroke-miterlimit="10" stroke-linecap="round" stroke-linejoin="round"/>
<path d="M12.8213 79.4736H25.4005" stroke="#333333" stroke-miterlimit="10" stroke-linecap="round" stroke-linejoin="round"/>
<path d="M37.2227 3.08936H46.6192" stroke="#333333" stroke-miterlimit="10" stroke-linecap="round" stroke-linejoin="round"/>
<path d="M30.8564 9.30298H46.6184" stroke="#333333" stroke-miterlimit="10" stroke-linecap="round" stroke-linejoin="round"/>
<path d="M125.277 15.6687V19.6092" stroke="#333333" stroke-miterlimit="10" stroke-linecap="round" stroke-linejoin="round"/>
<path d="M103.907 15.6687H125.277" stroke="#333333" stroke-miterlimit="10" stroke-linecap="round" stroke-linejoin="round"/>
<path d="M125.277 19.6089H103.907" stroke="#333333" stroke-miterlimit="10" stroke-linecap="round" stroke-linejoin="round"/>
<path d="M61.4718 0.815918H46.6191V10.9703H61.4718V0.815918Z" stroke="#333333" stroke-miterlimit="10" stroke-linecap="round" stroke-linejoin="round"/>
<path d="M102.392 0.815918H87.5391V10.9703H102.392V0.815918Z" stroke="#333333" stroke-miterlimit="10" stroke-linecap="round" stroke-linejoin="round"/>
<path d="M123.458 74.624H108.605V88.7188H123.458V74.624Z" stroke="#333333" stroke-miterlimit="10" stroke-linecap="round" stroke-linejoin="round"/>
<path d="M40.253 74.624H25.4004V88.7188H40.253V74.624Z" stroke="#333333" stroke-miterlimit="10" stroke-linecap="round" stroke-linejoin="round"/>
<path d="M118.154 21.8822V19.6089" stroke="#333333" stroke-miterlimit="10" stroke-linecap="round" stroke-linejoin="round"/>
<path d="M107.09 21.8822V19.6089" stroke="#333333" stroke-miterlimit="10" stroke-linecap="round" stroke-linejoin="round"/>
<path d="M24.6426 15.6687H45.1028" stroke="#333333" stroke-miterlimit="10" stroke-linecap="round" stroke-linejoin="round"/>
<path d="M45.1028 19.6089H24.6426" stroke="#333333" stroke-miterlimit="10" stroke-linecap="round" stroke-linejoin="round"/>
<path d="M24.6426 15.6687V19.6092" stroke="#333333" stroke-miterlimit="10" stroke-linecap="round" stroke-linejoin="round"/>
<path d="M30.8564 21.8822V19.6089" stroke="#333333" stroke-miterlimit="10" stroke-linecap="round" stroke-linejoin="round"/>
<path d="M41.9209 21.8822V19.6089" stroke="#333333" stroke-miterlimit="10" stroke-linecap="round" stroke-linejoin="round"/>
<path d="M119.669 5.51445C118.867 4.84669 118.1 4.18646 116.822 3.70732C115.61 3.25265 114.341 3.09888 113.311 3.09888" stroke="#333333" stroke-miterlimit="10" stroke-linecap="round" stroke-linejoin="round"/>
<path d="M29.3408 5.51403C30.0986 4.9078 31.1884 4.28844 32.4447 3.76497C33.6212 3.27478 36.095 3.08499 37.3537 3.08496" stroke="#333333" stroke-miterlimit="10" stroke-linecap="round" stroke-linejoin="round"/>
<path d="M29.3408 9.30309V5.51416" stroke="#333333" stroke-miterlimit="10" stroke-linecap="round" stroke-linejoin="round"/>
<path d="M119.67 9.30309V5.51416" stroke="#333333" stroke-miterlimit="10" stroke-linecap="round" stroke-linejoin="round"/>
<path d="M30.8564 15.6684V9.30298" stroke="#333333" stroke-miterlimit="10" stroke-linecap="round" stroke-linejoin="round"/>
<path d="M118.154 15.6684V9.30298" stroke="#333333" stroke-miterlimit="10" stroke-linecap="round" stroke-linejoin="round"/>
<path d="M29.3408 9.30298H30.8564" stroke="#333333" stroke-miterlimit="10" stroke-linecap="round" stroke-linejoin="round"/>
<path d="M41.9209 15.6684V9.30298" stroke="#333333" stroke-miterlimit="10" stroke-linecap="round" stroke-linejoin="round"/>
<path d="M107.09 15.6684V9.30298" stroke="#333333" stroke-miterlimit="10" stroke-linecap="round" stroke-linejoin="round"/>
<path d="M41.9209 21.8821L45.1036 22.7914" stroke="#333333" stroke-miterlimit="10" stroke-linecap="round" stroke-linejoin="round"/>
<path d="M107.09 21.8821L103.907 22.7914" stroke="#333333" stroke-miterlimit="10" stroke-linecap="round" stroke-linejoin="round"/>
<path d="M61.623 9.30298H87.5393" stroke="#333333" stroke-miterlimit="10" stroke-linecap="round" stroke-linejoin="round"/>
<path d="M119.669 9.30298H102.392" stroke="#333333" stroke-miterlimit="10" stroke-linecap="round" stroke-linejoin="round"/>
<path d="M113.455 3.08936H102.392" stroke="#333333" stroke-miterlimit="10" stroke-linecap="round" stroke-linejoin="round"/>
<path d="M87.5393 3.08936H61.623" stroke="#333333" stroke-miterlimit="10" stroke-linecap="round" stroke-linejoin="round"/>
<path d="M86.933 154.04H63.29V157.829H86.933V154.04Z" stroke="#333333" stroke-miterlimit="10" stroke-linecap="round" stroke-linejoin="round"/>
<path d="M70.2617 157.98L70.2617 182.705" stroke="#333333" stroke-miterlimit="10" stroke-linecap="round" stroke-linejoin="round"/>
<path d="M78.9004 157.98V182.705" stroke="#333333" stroke-miterlimit="10" stroke-linecap="round" stroke-linejoin="round"/>
<path d="M23.8848 176.016C27.3706 176.016 30.5533 176.016 34.0391 176.016C45.4059 176.016 56.318 175.713 67.0786 175.258" stroke="#333333" stroke-miterlimit="10" stroke-linecap="round" stroke-linejoin="round"/>
<path d="M82.083 175.258C92.5405 175.713 103.453 176.016 114.213 176.016C118.154 176.016 122.094 176.016 125.883 176.016" stroke="#333333" stroke-miterlimit="10" stroke-linecap="round" stroke-linejoin="round"/>
<path d="M67.0791 178.441V157.98" stroke="#333333" stroke-miterlimit="10" stroke-linecap="round" stroke-linejoin="round"/>
<path d="M82.083 178.441V157.98" stroke="#333333" stroke-miterlimit="10" stroke-linecap="round" stroke-linejoin="round"/>
<path d="M43.4358 237.397H16.0039V245.278H43.4358V237.397Z" stroke="#333333" stroke-miterlimit="10"/>
<path d="M133.764 237.397H106.332V245.278H133.764V237.397Z" stroke="#333333" stroke-miterlimit="10"/>
<path d="M133.764 237.397V88.8706" stroke="#333333" stroke-miterlimit="10" stroke-linecap="round" stroke-linejoin="round"/>
<path d="M126.035 237.397V88.8706" stroke="#333333" stroke-miterlimit="10" stroke-linecap="round" stroke-linejoin="round"/>
<path d="M16.0039 237.397V88.8706" stroke="#333333" stroke-miterlimit="10" stroke-linecap="round" stroke-linejoin="round"/>
<path d="M146.343 178.441C145.888 179.653 145.434 181.017 144.827 182.23C141.796 188.444 136.946 192.081 133.764 193.9" stroke="#333333" stroke-miterlimit="10" stroke-linecap="round" stroke-linejoin="round"/>
<path d="M1 178.441C1.60623 180.108 2.51556 182.381 4.18269 184.806C8.12318 190.414 13.4277 192.687 15.8526 193.445" stroke="#333333" stroke-miterlimit="10" stroke-linecap="round" stroke-linejoin="round"/>
<path d="M74.5056 211.48C82.541 211.48 89.055 204.966 89.055 196.931C89.055 188.895 82.541 182.381 74.5056 182.381C66.4701 182.381 59.9561 188.895 59.9561 196.931C59.9561 204.966 66.4701 211.48 74.5056 211.48Z" stroke="#333333" stroke-miterlimit="10" stroke-linecap="round" stroke-linejoin="round"/>
<path d="M37.9795 211.481H111.788" stroke="#333333" stroke-miterlimit="10" stroke-linecap="round" stroke-linejoin="round"/>
<path d="M23.8848 195.719H44.345" stroke="#333333" stroke-miterlimit="10" stroke-linecap="round" stroke-linejoin="round"/>
<path d="M103.907 195.719H125.277" stroke="#333333" stroke-miterlimit="10" stroke-linecap="round" stroke-linejoin="round"/>
<path d="M103.907 202.842V195.719" stroke="#333333" stroke-miterlimit="10" stroke-linecap="round" stroke-linejoin="round"/>
<path d="M44.3457 202.842V195.719" stroke="#333333" stroke-miterlimit="10" stroke-linecap="round" stroke-linejoin="round"/>
<path d="M103.907 202.842H126.035" stroke="#333333" stroke-miterlimit="10" stroke-linecap="round" stroke-linejoin="round"/>
<path d="M44.345 202.842H23.8848" stroke="#333333" stroke-miterlimit="10" stroke-linecap="round" stroke-linejoin="round"/>
<path d="M23.8848 237.397V88.8706" stroke="#333333" stroke-miterlimit="10" stroke-linecap="round" stroke-linejoin="round"/>
<path d="M103.907 195.718C102.24 195.718 92.0858 195.112 85.8719 187.08C83.447 183.897 82.3861 180.714 82.083 178.441" stroke="#333333" stroke-miterlimit="10" stroke-linecap="round" stroke-linejoin="round"/>
<path d="M44.3457 195.718C46.0128 195.718 55.1063 195.567 61.6232 188.747C65.2606 184.958 66.6246 180.714 67.0793 178.593" stroke="#333333" stroke-miterlimit="10" stroke-linecap="round" stroke-linejoin="round"/>
<path d="M37.9795 216.937H111.788" stroke="#333333" stroke-miterlimit="10" stroke-linecap="round" stroke-linejoin="round"/>
<path d="M43.4365 228.758H106.333" stroke="#333333" stroke-miterlimit="10" stroke-linecap="round" stroke-linejoin="round"/>
<path d="M106.332 237.396V226.333" stroke="#333333" stroke-miterlimit="10" stroke-linecap="round" stroke-linejoin="round"/>
<path d="M43.4365 237.396V226.333" stroke="#333333" stroke-miterlimit="10" stroke-linecap="round" stroke-linejoin="round"/>
<path d="M106.332 226.333H126.034" stroke="#333333" stroke-miterlimit="10" stroke-linecap="round" stroke-linejoin="round"/>
<path d="M43.4357 226.333H23.8848" stroke="#333333" stroke-miterlimit="10" stroke-linecap="round" stroke-linejoin="round"/>
<path d="M51.3174 235.124H97.6939" stroke="#333333" stroke-miterlimit="10" stroke-linecap="round" stroke-linejoin="round"/>
<path d="M106.332 245.278H100.118" stroke="#333333" stroke-miterlimit="10" stroke-linecap="round" stroke-linejoin="round"/>
<path d="M43.4365 245.278H49.8019" stroke="#333333" stroke-miterlimit="10" stroke-linecap="round" stroke-linejoin="round"/>
<path d="M97.6934 235.124L100.118 245.278" stroke="#333333" stroke-miterlimit="10" stroke-linecap="round" stroke-linejoin="round"/>
<path d="M51.3173 235.124L49.8018 245.278" stroke="#333333" stroke-miterlimit="10" stroke-linecap="round" stroke-linejoin="round"/>
<path d="M37.9796 202.842H29.3408V220.119H37.9796V202.842Z" stroke="#333333" stroke-miterlimit="10"/>
<path d="M120.427 202.842H111.788V220.119H120.427V202.842Z" stroke="#333333" stroke-miterlimit="10"/>
<path d="M74.5055 206.782C79.9462 206.782 84.3567 202.371 84.3567 196.93C84.3567 191.49 79.9462 187.079 74.5055 187.079C69.0648 187.079 64.6543 191.49 64.6543 196.93C64.6543 202.371 69.0648 206.782 74.5055 206.782Z" stroke="#333333" stroke-miterlimit="10"/>
<path d="M89.5096 225.727H59.5012C57.2279 225.727 55.4092 224.363 55.4092 222.847C55.4092 221.18 57.3794 219.968 59.5012 219.968H89.5096C91.7829 219.968 93.6016 221.332 93.6016 222.847C93.6016 224.514 91.7829 225.727 89.5096 225.727Z" stroke="#333333" stroke-miterlimit="10"/>
<path d="M136.644 192.536C136.947 192.687 138.008 193.294 139.372 192.991C140.584 192.839 141.342 192.081 141.645 191.778" stroke="#333333" stroke-miterlimit="10"/>
<path d="M141.646 191.778C141.797 191.626 143.161 190.565 143.161 188.595C143.161 187.383 142.555 186.625 142.403 186.322" stroke="#333333" stroke-miterlimit="10"/>
<path d="M12.3668 192.081C12.0637 192.233 11.1544 192.99 9.63879 192.839C8.42633 192.839 7.51698 192.081 7.21387 191.929" stroke="#333333" stroke-miterlimit="10"/>
<path d="M7.26844 191.952C6.97834 191.811 5.54677 190.717 5.39521 188.898C5.24366 187.686 5.84988 186.777 6.00143 186.473" stroke="#333333" stroke-miterlimit="10"/>
<path d="M50.8628 33.8552C52.3694 33.8552 53.5908 32.6338 53.5908 31.1272C53.5908 29.6205 52.3694 28.3992 50.8628 28.3992C49.3562 28.3992 48.1348 29.6205 48.1348 31.1272C48.1348 32.6338 49.3562 33.8552 50.8628 33.8552Z" stroke="#333333" stroke-miterlimit="10"/>
<path d="M50.8628 140.552C52.3694 140.552 53.5908 139.33 53.5908 137.823C53.5908 136.317 52.3694 135.095 50.8628 135.095C49.3562 135.095 48.1348 136.317 48.1348 137.823C48.1348 139.33 49.3562 140.552 50.8628 140.552Z" stroke="#333333" stroke-miterlimit="10"/>
<path d="M133.768 175.785C135.958 175.785 137.705 175.562 140.13 175.258C142.403 174.804 144.196 174.136 146.167 173.682" stroke="#333333" stroke-miterlimit="10" stroke-linecap="round" stroke-linejoin="round"/>
<path d="M15.9535 175.653C13.1494 175.653 10.3965 175.107 7.3654 174.5C5.2436 174.046 3.1218 173.44 1 172.985" stroke="#333333" stroke-miterlimit="10" stroke-linecap="round" stroke-linejoin="round"/>
<path d="M40.4053 79.4736H45.1035" stroke="#333333" stroke-miterlimit="10" stroke-linecap="round" stroke-linejoin="round"/>
<path d="M108.606 79.4736H103.907" stroke="#333333" stroke-miterlimit="10" stroke-linecap="round" stroke-linejoin="round"/>
<path d="M84.3563 88.5672C86.0304 88.5672 87.3875 87.2101 87.3875 85.536C87.3875 83.862 86.0304 82.5049 84.3563 82.5049C82.6823 82.5049 81.3252 83.862 81.3252 85.536C81.3252 87.2101 82.6823 88.5672 84.3563 88.5672Z" stroke="#333333" stroke-miterlimit="10"/>
</svg>
