<svg width="20" height="13" viewBox="0 0 20 13" fill="none" xmlns="http://www.w3.org/2000/svg">
<path d="M19.8217 10.7258C19.768 10.6317 19.4355 9.87565 17.8353 8.32177C16.1602 6.69465 16.3852 6.95886 18.4029 4.1454C19.6317 2.43195 20.123 1.38557 19.9692 0.93824C19.823 0.511839 18.9192 0.624325 18.9192 0.624325L15.9139 0.642637C15.9139 0.642637 15.6914 0.611245 15.5252 0.714576C15.3639 0.816598 15.2601 1.05203 15.2601 1.05203C15.2601 1.05203 14.7839 2.37832 14.1488 3.5058C12.81 5.88501 12.2737 6.01058 12.0549 5.86277C11.5461 5.51878 11.6736 4.47893 11.6736 3.74124C11.6736 1.43527 12.0074 0.473908 11.0223 0.225392C10.6948 0.14299 10.4548 0.0880545 9.61848 0.0788986C8.54591 0.0671268 7.63709 0.0828226 7.1233 0.345726C6.78078 0.520995 6.51701 0.912081 6.67827 0.934316C6.87703 0.961784 7.32707 1.06119 7.56583 1.40126C7.87461 1.83944 7.86336 2.82565 7.86336 2.82565C7.86336 2.82565 8.04087 5.5397 7.44958 5.87716C7.0433 6.10867 6.487 5.63649 5.29317 3.47702C4.68187 2.37178 4.21934 1.14882 4.21934 1.14882C4.21934 1.14882 4.13058 0.921236 3.97182 0.799594C3.77931 0.651793 3.50929 0.604706 3.50929 0.604706L0.651577 0.623017C0.651577 0.623017 0.222795 0.636097 0.0652839 0.830986C-0.0747264 1.00495 0.054033 1.36333 0.054033 1.36333C0.054033 1.36333 2.2917 6.83983 4.82438 9.60097C7.1483 12.1319 9.786 11.9658 9.786 11.9658H10.9811C10.9811 11.9658 11.3424 11.9239 11.5261 11.716C11.6961 11.525 11.6899 11.1666 11.6899 11.1666C11.6899 11.1666 11.6661 9.48849 12.4112 9.24128C13.145 8.998 14.0876 10.8632 15.0864 11.5813C15.8414 12.1241 16.4152 12.005 16.4152 12.005L19.0867 11.9658C19.0867 11.9658 20.4843 11.8755 19.8217 10.7258Z" fill="white"/>
</svg>
