<svg width="22" height="19" viewBox="0 0 22 19" fill="none" xmlns="http://www.w3.org/2000/svg">
<path d="M11.4881 1.40258C12.7544 1.70222 13.6974 2.84115 13.6974 4.19767C13.6974 5.55494 12.7538 6.69319 11.4881 6.99274V18.3372C11.4881 18.7033 11.1914 19 10.8253 19C10.4593 19 10.1625 18.7033 10.1625 18.3372V6.99277C8.89629 6.69313 7.95325 5.55419 7.95325 4.19767C7.95325 2.84041 8.89687 1.70216 10.1625 1.4026V0.662791C10.1625 0.296742 10.4593 0 10.8253 0C11.1914 0 11.4881 0.296742 11.4881 0.662791V1.40258ZM9.27883 4.19767C9.27883 5.05028 9.9722 5.74419 10.8253 5.74419C11.6779 5.74419 12.3718 5.05082 12.3718 4.19767C12.3718 3.34507 11.6785 2.65116 10.8253 2.65116C9.97273 2.65116 9.27883 3.34453 9.27883 4.19767Z" fill="#333333"/>
<path d="M3.53488 12.0072C4.80114 12.3069 5.74418 13.4458 5.74418 14.8023C5.74418 16.1596 4.80056 17.2978 3.53488 17.5974V18.3372C3.53488 18.7033 3.23814 19 2.87209 19C2.50604 19 2.2093 18.7033 2.2093 18.3372V17.5974C0.943048 17.2978 0 16.1588 0 14.8023C0 13.4451 0.943623 12.3068 2.2093 12.0073V0.662791C2.2093 0.296742 2.50604 0 2.87209 0C3.23814 0 3.53488 0.296742 3.53488 0.662791V12.0072ZM1.32558 14.8023C1.32558 15.6549 2.01895 16.3488 2.87209 16.3488C3.7247 16.3488 4.4186 15.6555 4.4186 14.8023C4.4186 13.9497 3.72523 13.2558 2.87209 13.2558C2.01949 13.2558 1.32558 13.9492 1.32558 14.8023Z" fill="#333333"/>
<path d="M19.4419 8.03049C20.7081 8.33012 21.6512 9.46906 21.6512 10.8256C21.6512 12.1828 20.7075 13.3211 19.4419 13.6207V18.3372C19.4419 18.7033 19.1451 19 18.7791 19C18.413 19 18.1163 18.7033 18.1163 18.3372V13.6207C16.85 13.321 15.907 12.1821 15.907 10.8256C15.907 9.46832 16.8506 8.33007 18.1163 8.03051V0.662791C18.1163 0.296742 18.413 0 18.7791 0C19.1451 0 19.4419 0.296742 19.4419 0.662791V8.03049ZM17.2326 10.8256C17.2326 11.6782 17.9259 12.3721 18.7791 12.3721C19.6317 12.3721 20.3256 11.6787 20.3256 10.8256C20.3256 9.97298 19.6322 9.27907 18.7791 9.27907C17.9265 9.27907 17.2326 9.97244 17.2326 10.8256Z" fill="#333333"/>
</svg>
