<svg width="20" height="12" viewBox="0 0 20 12" fill="none" xmlns="http://www.w3.org/2000/svg">
<path d="M19.8227 10.7032C19.769 10.6086 19.4364 9.84878 17.8363 8.28709C16.1612 6.65178 16.3862 6.91732 18.4039 4.0897C19.6327 2.36763 20.124 1.31598 19.9702 0.866405C19.824 0.437859 18.9201 0.550911 18.9201 0.550911L15.9149 0.569315C15.9149 0.569315 15.6924 0.537766 15.5261 0.641616C15.3649 0.744151 15.2611 0.980772 15.2611 0.980772C15.2611 0.980772 14.7848 2.31373 14.1498 3.44688C12.8109 5.83806 12.2747 5.96426 12.0559 5.81572C11.5471 5.46999 11.6746 4.42491 11.6746 3.6835C11.6746 1.36594 12.0084 0.399737 11.0233 0.149971C10.6958 0.0671538 10.4558 0.0119424 9.61946 0.00274048C8.54688 -0.00909055 7.63807 0.00668415 7.12428 0.27091C6.78175 0.447061 6.51798 0.840114 6.67925 0.862462C6.87801 0.890068 7.32804 0.989974 7.56681 1.33176C7.87558 1.77214 7.86433 2.76331 7.86433 2.76331C7.86433 2.76331 8.04185 5.49102 7.45055 5.83018C7.04427 6.06285 6.48798 5.5883 5.29414 3.41796C4.68285 2.30716 4.22032 1.07805 4.22032 1.07805C4.22032 1.07805 4.13156 0.849316 3.9728 0.727062C3.78028 0.578517 3.51026 0.531193 3.51026 0.531193L0.652554 0.549597C0.652554 0.549597 0.223772 0.562743 0.0662604 0.758612C-0.0737499 0.933448 0.0550096 1.29364 0.0550096 1.29364C0.0550096 1.29364 2.29267 6.79769 4.82536 9.57272C7.14928 12.1164 9.78697 11.9494 9.78697 11.9494H10.9821C10.9821 11.9494 11.3433 11.9074 11.5271 11.6984C11.6971 11.5064 11.6909 11.1463 11.6909 11.1463C11.6909 11.1463 11.6671 9.45967 12.4122 9.21122C13.146 8.96671 14.0885 10.8413 15.0874 11.563C15.8424 12.1085 16.4162 11.9889 16.4162 11.9889L19.0877 11.9494C19.0877 11.9494 20.4853 11.8587 19.8227 10.7032Z" fill="#646469"/>
</svg>
