<svg width="24" height="24" viewBox="0 0 24 24" fill="none" xmlns="http://www.w3.org/2000/svg">
<path d="M17.6 21.5999C18.4837 21.5999 19.2 20.8836 19.2 19.9999C19.2 19.1162 18.4837 18.3999 17.6 18.3999C16.7163 18.3999 16 19.1162 16 19.9999C16 20.8836 16.7163 21.5999 17.6 21.5999Z" fill="#D0D4D5"/>
<path d="M9.6 21.5999C10.4837 21.5999 11.2 20.8836 11.2 19.9999C11.2 19.1162 10.4837 18.3999 9.6 18.3999C8.71634 18.3999 8 19.1162 8 19.9999C8 20.8836 8.71634 21.5999 9.6 21.5999Z" fill="#D0D4D5"/>
<path d="M19.1996 16H8.39961L5.59961 7.19995H21.5996L19.1996 16Z" fill="#D0D4D5"/>
<path d="M1.59961 2.3999H3.10201C3.63401 2.3999 4.10281 2.7503 4.25321 3.2615L7.66201 14.8519C7.86201 15.5319 8.48681 15.9999 9.19641 15.9999H17.9772C18.6988 15.9999 19.3308 15.5167 19.5212 14.8207L21.5996 7.1999H5.59961" stroke="#D0D4D5" stroke-width="2" stroke-miterlimit="10" stroke-linecap="round" stroke-linejoin="round"/>
</svg>
