<svg width="24" height="25" viewBox="0 0 24 25" fill="none" xmlns="http://www.w3.org/2000/svg">
<path d="M18.7383 10.9591L10.6065 19.0908C9.04382 20.6535 6.51238 20.6535 4.94967 19.0908C3.38697 17.5281 3.38697 14.9967 4.94967 13.434L13.7885 4.59514C14.7643 3.61933 16.3482 3.61933 17.324 4.59514C18.2998 5.57095 18.2998 7.15486 17.324 8.13067L9.89942 15.5553C9.51051 15.9442 8.87412 15.9442 8.48521 15.5553C8.0963 15.1664 8.0963 14.53 8.48521 14.1411L15.2027 7.42356L14.1421 6.3629L7.42455 13.0804C6.44874 14.0562 6.44874 15.6401 7.42455 16.6159C8.40035 17.5917 9.98427 17.5917 10.9601 16.6159L18.3847 9.19133C19.9474 7.62862 19.9474 5.09718 18.3847 3.53448C16.822 1.97177 14.2906 1.97177 12.7278 3.53448L3.88901 12.3733C1.73941 14.5229 1.73941 18.0019 3.88901 20.1515C6.03862 22.3011 9.51758 22.3011 11.6672 20.1515L19.7989 12.0198L18.7383 10.9591Z" fill="#687A82"/>
</svg>
