<svg width="20" height="20" viewBox="0 0 20 20" fill="none" xmlns="http://www.w3.org/2000/svg">
<g opacity="0.8">
<path d="M14.6667 17.9999C15.403 17.9999 16 17.403 16 16.6666C16 15.9302 15.403 15.3333 14.6667 15.3333C13.9303 15.3333 13.3333 15.9302 13.3333 16.6666C13.3333 17.403 13.9303 17.9999 14.6667 17.9999Z" fill="#333333"/>
<path d="M8 17.9999C8.73638 17.9999 9.33333 17.403 9.33333 16.6666C9.33333 15.9302 8.73638 15.3333 8 15.3333C7.26362 15.3333 6.66667 15.9302 6.66667 16.6666C6.66667 17.403 7.26362 17.9999 8 17.9999Z" fill="#333333"/>
<path d="M16 13.3333H6.99998L4.66665 6H18L16 13.3333Z" fill="#333333"/>
<path d="M1.33332 2H2.58532C3.02865 2 3.41932 2.292 3.54465 2.718L6.38532 12.3767C6.55199 12.9433 7.07265 13.3333 7.66399 13.3333H14.9813C15.5827 13.3333 16.1093 12.9307 16.268 12.3507L18 6H4.66665" stroke="#333333" stroke-width="2" stroke-miterlimit="10" stroke-linecap="round" stroke-linejoin="round"/>
</g>
</svg>
