<?xml version="1.0" encoding="utf-8"?>
<!-- Generator: Adobe Illustrator 22.1.0, SVG Export Plug-In . SVG Version: 6.00 Build 0)  -->
<svg version="1.1" id="Слой_1" xmlns="http://www.w3.org/2000/svg" xmlns:xlink="http://www.w3.org/1999/xlink" x="0px" y="0px"
	 viewBox="0 0 15 12" enable-background="new 0 0 15 12" xml:space="preserve">
<path fill="#333333" d="M1,2h13c0.6,0,1-0.4,1-1c0-0.6-0.4-1-1-1L1,0C0.4,0,0,0.4,0,1C0,1.6,0.4,2,1,2z"/>
<path fill="#333333" d="M1,7h13c0.6,0,1-0.4,1-1c0-0.6-0.4-1-1-1L1,5C0.4,5,0,5.4,0,6C0,6.6,0.4,7,1,7z"/>
<path fill="#333333" d="M1,12h13c0.6,0,1-0.4,1-1c0-0.6-0.4-1-1-1L1,10c-0.6,0-1,0.4-1,1C0,11.6,0.4,12,1,12z"/>
</svg>
