<svg width="24" height="24" viewBox="0 0 24 24" fill="none" xmlns="http://www.w3.org/2000/svg">
<g opacity="0.8">
<path d="M17.6 21.6004C18.4837 21.6004 19.2 20.884 19.2 20.0004C19.2 19.1167 18.4837 18.4004 17.6 18.4004C16.7163 18.4004 16 19.1167 16 20.0004C16 20.884 16.7163 21.6004 17.6 21.6004Z" fill="#455A64"/>
<path d="M9.6 21.6004C10.4837 21.6004 11.2 20.884 11.2 20.0004C11.2 19.1167 10.4837 18.4004 9.6 18.4004C8.71634 18.4004 8 19.1167 8 20.0004C8 20.884 8.71634 21.6004 9.6 21.6004Z" fill="#455A64"/>
<path d="M19.2 16.0002H8.39998L5.59998 7.2002H21.6L19.2 16.0002Z" fill="#455A64"/>
<path d="M1.59998 2.40039H3.10238C3.63438 2.40039 4.10318 2.75079 4.25358 3.26199L7.66238 14.8524C7.86238 15.5324 8.48718 16.0004 9.19678 16.0004H17.9776C18.6992 16.0004 19.3312 15.5172 19.5216 14.8212L21.6 7.20039H5.59998" stroke="#455A64" stroke-width="2" stroke-miterlimit="10" stroke-linecap="round" stroke-linejoin="round"/>
</g>
</svg>
