<svg width="24" height="24" viewBox="0 0 24 24" fill="none" xmlns="http://www.w3.org/2000/svg">
<path d="M17.6 21.6004C18.4837 21.6004 19.2 20.884 19.2 20.0004C19.2 19.1167 18.4837 18.4004 17.6 18.4004C16.7163 18.4004 16 19.1167 16 20.0004C16 20.884 16.7163 21.6004 17.6 21.6004Z" fill="#F1AC00"/>
<path d="M9.6 21.6004C10.4837 21.6004 11.2 20.884 11.2 20.0004C11.2 19.1167 10.4837 18.4004 9.6 18.4004C8.71634 18.4004 8 19.1167 8 20.0004C8 20.884 8.71634 21.6004 9.6 21.6004Z" fill="#F1AC00"/>
<path d="M19.2 16.0002H8.39998L5.59998 7.2002H21.6L19.2 16.0002Z" fill="#F1AC00"/>
<path fill-rule="evenodd" clip-rule="evenodd" d="M0.599976 2.40039C0.599976 1.84811 1.04769 1.40039 1.59998 1.40039H3.10238C4.07793 1.40039 4.93731 2.04298 5.21292 2.97974L5.21294 2.97984L6.16013 6.20039H21.6C21.9116 6.20039 22.2055 6.34571 22.3947 6.5934C22.5839 6.84108 22.6467 7.16282 22.5647 7.46351L20.4863 15.0843L20.4861 15.0851C20.177 16.2149 19.1507 17.0004 17.9776 17.0004H9.19678C8.04337 17.0004 7.02812 16.2399 6.70301 15.1346L6.70301 15.1345L3.29423 3.54424C3.29422 3.54421 3.29422 3.54418 3.29421 3.54415C3.26898 3.45856 3.19079 3.40039 3.10238 3.40039H1.59998C1.04769 3.40039 0.599976 2.95268 0.599976 2.40039ZM6.74834 8.20039L8.62174 14.5702C8.62174 14.5702 8.62174 14.5702 8.62174 14.5702C8.69663 14.8248 8.93099 15.0004 9.19678 15.0004H17.9776C18.2474 15.0004 18.4849 14.8198 18.5568 14.5581M18.557 14.5573L20.2907 8.20039H6.74834" fill="#F1AC00"/>
</svg>
