<svg width="147" height="75" viewBox="0 0 147 75" fill="none" xmlns="http://www.w3.org/2000/svg">
  <path fill-rule="evenodd" clip-rule="evenodd" d="M79.9747 31.5666C80.6388 32.1901 81.0575 32.8362 81.1308 33.4323L80.834 33.4688C80.7733 32.9753 80.4145 32.3897 79.77 31.7846C79.1295 31.1832 78.2235 30.5783 77.1046 30.0443C74.8674 28.9763 71.7952 28.1991 68.3361 28.2912C67.4629 28.3144 66.7544 27.8985 66.2613 27.148C65.7723 26.4037 65.4945 25.3318 65.4551 24.0244L65.4551 24.0221L65.4551 24.0198C65.4563 19.2513 64.4716 15.1906 62.7532 12.3629C61.0369 9.53851 58.5972 7.95356 55.6715 8.09146L55.6574 7.79276C58.7199 7.64842 61.2515 9.31583 63.0088 12.2076C64.7638 15.0956 65.755 19.2142 65.7541 24.0177C65.7927 25.2927 66.0637 26.3027 66.5112 26.9838C66.9549 27.6592 67.5713 28.0124 68.3281 27.9922C71.835 27.8989 74.954 28.6863 77.2334 29.7744C78.3729 30.3183 79.3066 30.9393 79.9747 31.5666Z" fill="#FBC02D" stroke="#F1AC00" stroke-width="3"/>
  <path fill-rule="evenodd" clip-rule="evenodd" d="M53.7655 8.32359C54.5607 7.87911 55.3031 7.67535 55.8935 7.78574L55.8386 8.07968C55.3498 7.98829 54.6831 8.15325 53.9114 8.58461C53.1445 9.01329 52.294 9.69404 51.4467 10.599C49.7523 12.4086 48.0825 15.102 47.1243 18.4271C46.8825 19.2664 46.2719 19.816 45.4074 20.0591C44.55 20.3002 43.4443 20.2409 42.1862 19.8831L42.184 19.8824L42.1818 19.8818C37.6368 18.4387 33.4685 18.1496 30.2536 18.9325C27.0425 19.7145 24.794 21.5608 24.0408 24.3912L23.7519 24.3143C24.5403 21.3515 26.8951 19.4426 30.1829 18.642C33.4663 17.8423 37.6918 18.1428 42.2702 19.5961C43.4972 19.9448 44.5419 19.9919 45.3264 19.7712C46.1043 19.5525 46.6274 19.0717 46.837 18.3443C47.8084 14.9733 49.502 12.2384 51.2284 10.3947C52.0914 9.47297 52.9656 8.77076 53.7655 8.32359Z" fill="#FBC02D" stroke="#F1AC00" stroke-width="3"/>
  <path fill-rule="evenodd" clip-rule="evenodd" d="M66.2859 63.5354C65.9088 64.3647 65.4315 64.9687 64.8905 65.2297L64.7606 64.9603C65.2085 64.7443 65.6477 64.2164 66.0137 63.4116C66.3775 62.6119 66.6592 61.5596 66.8055 60.3284C67.098 57.8667 66.8471 54.7077 65.6485 51.4615C65.346 50.6421 65.5122 49.8376 66.0645 49.1295C66.6123 48.4272 67.538 47.8198 68.7636 47.3625L68.7657 47.3617L68.7678 47.361C73.284 45.8301 76.813 43.5931 78.9388 41.0573C81.062 38.5246 81.5705 35.7263 80.5 33L81 32.9789C82.1206 35.8327 81.3418 38.6562 79.1679 41.2494C76.9969 43.8392 73.4151 46.1011 68.866 47.6434C67.6709 48.0897 66.8015 48.6707 66.3003 49.3134C65.8033 49.9505 65.6668 50.6477 65.9291 51.3579C67.1441 54.6489 67.4005 57.8556 67.1024 60.3637C66.9534 61.6175 66.6654 62.7012 66.2859 63.5354Z" fill="#FBC02D" stroke="#F1AC00" stroke-width="3"/>
  <path fill-rule="evenodd" clip-rule="evenodd" d="M31.3832 60.1438C30.4796 60.0282 29.7616 59.7505 29.3526 59.3105L29.5716 59.1069C29.9101 59.4711 30.5442 59.735 31.4211 59.8472C32.2926 59.9587 33.3812 59.9173 34.6007 59.6938C37.0391 59.2468 39.9833 58.0748 42.7312 55.9716C43.4248 55.4407 44.2426 55.3621 45.0822 55.6808C45.9148 55.997 46.7684 56.7022 47.567 57.7382L47.5684 57.74L47.5697 57.7419C50.3652 61.6051 53.544 64.3167 56.5942 65.5995C59.6407 66.8807 62.5464 66.7338 64.8353 64.9064L65.0219 65.1401C62.6259 67.0529 59.5975 67.1869 56.4783 65.8751C53.3631 64.565 50.1449 61.8103 47.3288 57.919C46.5497 56.9089 45.738 56.2497 44.976 55.9604C44.2206 55.6736 43.5142 55.7489 42.913 56.2091C40.1272 58.3413 37.139 59.5325 34.6546 59.9879C33.4126 60.2156 32.2922 60.2602 31.3832 60.1438Z" fill="#FBC02D" stroke="#F1AC00" stroke-width="3"/>
  <path fill-rule="evenodd" clip-rule="evenodd" d="M23.7231 26.2218C23.5423 25.329 23.5746 24.5598 23.8598 24.0312L24.123 24.1732C23.8869 24.6108 23.8407 25.296 24.0162 26.1625C24.1905 27.0236 24.5795 28.0412 25.183 29.1242C26.3896 31.2897 28.4454 33.7014 31.3199 35.6279C32.0455 36.1142 32.3827 36.8633 32.3506 37.7608C32.3187 38.6508 31.9251 39.6857 31.2006 40.7748L31.1993 40.7767L31.198 40.7786C28.4377 44.667 26.8911 48.5485 26.6563 51.8491C26.4217 55.1458 27.4944 57.8502 29.9603 59.4306L29.7989 59.6824C27.2177 58.028 26.1179 55.2032 26.358 51.8279C26.5978 48.457 28.1726 44.5244 30.9529 40.6073C31.6592 39.5451 32.0226 38.5646 32.0518 37.7501C32.0806 36.9425 31.7823 36.2978 31.1535 35.8763C28.2393 33.9232 26.1512 31.4761 24.9217 29.2697C24.3071 28.1668 23.905 27.1201 23.7231 26.2218Z" fill="#FBC02D" stroke="#F1AC00" stroke-width="3"/>
  <path fill-rule="evenodd" clip-rule="evenodd" d="M102.754 14.3684C102.475 13.0194 102.048 11.8052 101.719 11.0561C101.686 10.9805 101.718 10.8919 101.794 10.8575C101.869 10.8231 101.957 10.8558 101.991 10.9314C102.328 11.6991 102.763 12.9353 103.047 14.3079C103.348 15.7627 103.482 17.387 103.137 18.7736L103.137 18.7756L103.136 18.7777C102.635 20.5757 101.765 21.8406 100.678 22.6956C99.5925 23.5496 98.2999 23.9871 96.9635 24.1474C94.2953 24.4674 91.4294 23.6856 89.605 22.8689L89.5962 22.865L89.5879 22.8599C88.4549 22.1656 87.4868 21.8721 86.6682 21.8456C85.8516 21.8192 85.1742 22.0582 84.6189 22.4455C83.552 23.1895 82.9278 24.4876 82.6694 25.5174C82.6493 25.5975 82.5697 25.648 82.4891 25.6301C82.4085 25.6121 82.3575 25.5324 82.3775 25.4523C82.645 24.3808 83.2979 23.0021 84.4478 22.2002C85.0525 21.7785 85.7926 21.5181 86.6779 21.5468C87.5591 21.5752 88.5746 21.8897 89.7359 22.5999C91.531 23.4018 94.3358 24.1614 96.9279 23.8505C98.2238 23.695 99.4606 23.2728 100.493 22.4605C101.524 21.6496 102.361 20.4423 102.847 18.6994C103.176 17.3764 103.051 15.8042 102.754 14.3684Z" fill="#FBC02D" stroke="#F1AC00" stroke-width="3"/>
  <path fill-rule="evenodd" clip-rule="evenodd" d="M121.629 22.7803C122.649 21.8681 123.479 20.8944 123.962 20.2347C124.011 20.1681 124.104 20.1522 124.172 20.2C124.239 20.2478 124.255 20.341 124.206 20.4077C123.712 21.0836 122.867 22.0748 121.828 23.0033C120.727 23.9874 119.396 24.9121 118.023 25.3076L118.021 25.3081L118.019 25.3087C116.212 25.7742 114.681 25.654 113.397 25.1406C112.115 24.6279 111.089 23.7276 110.282 22.6507C108.67 20.5006 107.913 17.6279 107.707 15.6397L107.706 15.6301L107.706 15.6204C107.741 14.292 107.51 13.307 107.124 12.585C106.738 11.8647 106.192 11.3977 105.579 11.1106C104.401 10.5591 102.965 10.6681 101.944 10.9596C101.865 10.9823 101.781 10.9386 101.756 10.8598C101.731 10.781 101.775 10.697 101.854 10.6743C102.916 10.3698 104.436 10.2453 105.706 10.8398C106.374 11.1524 106.969 11.663 107.387 12.4438C107.804 13.2211 108.039 14.2576 108.005 15.6184C108.209 17.5739 108.955 20.3825 110.521 22.4713C111.304 23.5155 112.288 24.3753 113.508 24.863C114.726 25.3499 116.19 25.4706 117.942 25.0196C119.252 24.6418 120.543 23.7513 121.629 22.7803Z" fill="#FBC02D" stroke="#F1AC00" stroke-width="3"/>
  <path fill-rule="evenodd" clip-rule="evenodd" d="M123.803 43.424C125.111 43.8563 126.376 44.0925 127.189 44.1813C127.271 44.1903 127.332 44.2631 127.324 44.3453C127.316 44.4275 127.244 44.488 127.162 44.4791C126.328 44.3884 125.04 44.1478 123.709 43.7079C122.298 43.2417 120.824 42.5465 119.795 41.5556L119.793 41.5541L119.792 41.5526C118.485 40.2204 117.823 38.835 117.625 37.4664C117.428 36.0994 117.694 34.761 118.223 33.5232C119.278 31.0518 121.387 28.9594 123.006 27.7867L123.014 27.781L123.022 27.7764C124.189 27.1417 124.927 26.4495 125.359 25.7536C125.79 25.0593 125.921 24.3531 125.863 23.6785C125.751 22.3827 124.938 21.1936 124.175 20.4554C124.116 20.3979 124.112 20.3037 124.168 20.2429C124.224 20.182 124.318 20.1776 124.377 20.235C125.172 21.0019 126.04 22.2561 126.161 23.6528C126.224 24.3874 126.08 25.1586 125.613 25.9112C125.148 26.6604 124.369 27.3831 123.173 28.0345C121.582 29.1891 119.523 31.2396 118.498 33.6406C117.985 34.8409 117.733 36.1233 117.921 37.4236C118.109 38.7219 118.737 40.05 120.004 41.3417C120.986 42.2867 122.411 42.9639 123.803 43.424Z" fill="#FBC02D" stroke="#F1AC00" stroke-width="3"/>
  <path fill-rule="evenodd" clip-rule="evenodd" d="M107.088 55.5745C107.369 56.9143 107.798 58.1193 108.128 58.8674C108.162 58.943 108.129 59.0316 108.054 59.0661C107.979 59.1006 107.89 59.0679 107.857 58.9924C107.518 58.2262 107.081 56.9994 106.796 55.6358C106.493 54.1904 106.357 52.5755 106.7 51.1886L106.7 51.1865L106.701 51.1845C107.2 49.386 108.069 48.1202 109.155 47.2642C110.24 46.4091 111.532 45.9703 112.868 45.8087C115.536 45.486 118.403 46.2651 120.228 47.0799L120.237 47.0838L120.245 47.0889C121.379 47.7821 122.347 48.0746 123.166 48.1003C123.982 48.1259 124.659 47.8863 125.214 47.4984C126.28 46.7534 126.903 45.4546 127.161 44.4246C127.181 44.3445 127.26 44.2939 127.341 44.3118C127.422 44.3297 127.473 44.4093 127.453 44.4894C127.186 45.5612 126.535 46.9405 125.386 47.7435C124.781 48.1658 124.042 48.4269 123.156 48.3992C122.275 48.3716 121.259 48.0581 120.097 47.349C118.301 46.5489 115.496 45.7921 112.904 46.1056C111.608 46.2623 110.372 46.6857 109.34 47.499C108.31 48.311 107.474 49.5191 106.989 51.2624C106.663 52.5857 106.79 54.1485 107.088 55.5745Z" fill="#FBC02D" stroke="#F1AC00" stroke-width="3"/>
  <path fill-rule="evenodd" clip-rule="evenodd" d="M88.0204 47.4854C87.0059 48.4173 86.1835 49.4075 85.7098 50.0747C85.662 50.1421 85.5691 50.1593 85.501 50.1126C85.4329 50.0658 85.4154 49.9729 85.4632 49.9055C85.9485 49.2214 86.7859 48.2134 87.8181 47.2652C88.9121 46.2602 90.2371 45.3111 91.6037 44.8946L91.6057 44.894L91.6078 44.8934C93.408 44.4002 94.9401 44.4971 96.2318 44.9907C97.5221 45.4837 98.5613 46.3682 99.3851 47.4326C101.03 49.5578 101.831 52.4185 102.067 54.4034L102.068 54.413L102.068 54.4226C102.054 55.7514 102.299 56.7328 102.697 57.4488C103.093 58.1631 103.646 58.6216 104.264 58.8993C105.45 59.4327 106.885 59.3017 107.901 58.9946C107.98 58.9707 108.064 59.0131 108.09 59.0915C108.116 59.1699 108.074 59.2546 107.995 59.2786C106.938 59.5992 105.42 59.747 104.141 59.172C103.469 58.8697 102.865 58.3683 102.435 57.594C102.007 56.8232 101.756 55.7904 101.769 54.4292C101.535 52.477 100.747 49.6802 99.1486 47.6156C98.3498 46.5835 97.3524 45.739 96.1251 45.27C94.8998 44.8018 93.434 44.7035 91.6888 45.1813C90.3851 45.5791 89.1 46.4936 88.0204 47.4854Z" fill="#FBC02D" stroke="#F1AC00" stroke-width="3"/>
  <path fill-rule="evenodd" clip-rule="evenodd" d="M85.7636 26.7041C84.5652 26.1755 83.4202 25.8457 82.6298 25.7566C82.5477 25.7473 82.4862 25.6756 82.4926 25.5933C82.499 25.5109 82.5708 25.4492 82.6529 25.4583C83.4858 25.5505 84.6661 25.8931 85.8842 26.4305C87.1785 27.0014 88.53 27.7985 89.5664 28.7661L89.568 28.7676L89.5695 28.769C90.8972 30.081 91.5799 31.456 91.7987 32.8214C92.0174 34.1853 91.7715 35.5276 91.262 36.7734C90.2448 39.2608 88.1685 41.3853 86.5681 42.5828L86.5603 42.5886L86.5519 42.5934C85.3944 43.246 84.6674 43.9494 84.2464 44.6519C83.8264 45.3528 83.7059 46.0609 83.7745 46.7345C83.9061 48.0285 84.7372 49.2049 85.5116 49.9313C85.5718 49.9878 85.5772 50.082 85.5224 50.1437C85.4675 50.2054 85.373 50.2112 85.3128 50.1548C84.5064 49.4001 83.6189 48.1595 83.477 46.7648C83.4024 46.0313 83.5346 45.258 83.9899 44.4982C84.4431 43.7419 85.2114 43.0073 86.3966 42.3377C87.9699 41.1586 89.997 39.0767 90.9852 36.6602C91.4792 35.4522 91.7115 34.166 91.5035 32.8688C91.2959 31.5736 90.6476 30.2553 89.3608 28.9832C88.3563 28.0459 87.0371 27.2659 85.7636 26.7041Z" fill="#FBC02D" stroke="#F1AC00" stroke-width="3"/>
</svg>
