<svg width="15" height="15" viewBox="0 0 15 15" fill="none" xmlns="http://www.w3.org/2000/svg">
<path d="M6 7.5C6 8.32843 6.67157 9 7.5 9C8.32843 9 9 8.32843 9 7.5C9 6.67157 8.32843 6 7.5 6C6.67157 6 6 6.67157 6 7.5Z" fill="#333333"/>
<path d="M12 7.5C12 8.32843 12.6716 9 13.5 9C14.3284 9 15 8.32843 15 7.5C15 6.67157 14.3284 6 13.5 6C12.6716 6 12 6.67157 12 7.5Z" fill="#333333"/>
<path d="M0 7.5C0 8.32843 0.671573 9 1.5 9C2.32843 9 3 8.32843 3 7.5C3 6.67157 2.32843 6 1.5 6C0.671573 6 0 6.67157 0 7.5Z" fill="#333333"/>
<path d="M6 13.5C6 14.3284 6.67157 15 7.5 15C8.32843 15 9 14.3284 9 13.5C9 12.6716 8.32843 12 7.5 12C6.67157 12 6 12.6716 6 13.5Z" fill="#333333"/>
<path d="M6 1.5C6 2.32843 6.67157 3 7.5 3C8.32843 3 9 2.32843 9 1.5C9 0.671573 8.32843 0 7.5 0C6.67157 0 6 0.671573 6 1.5Z" fill="#333333"/>
<path d="M12 13.5C12 14.3284 12.6716 15 13.5 15C14.3284 15 15 14.3284 15 13.5C15 12.6716 14.3284 12 13.5 12C12.6716 12 12 12.6716 12 13.5Z" fill="#333333"/>
<path d="M12 1.5C12 2.32843 12.6716 3 13.5 3C14.3284 3 15 2.32843 15 1.5C15 0.671573 14.3284 0 13.5 0C12.6716 0 12 0.671573 12 1.5Z" fill="#333333"/>
<path d="M0 13.5C0 14.3284 0.671573 15 1.5 15C2.32843 15 3 14.3284 3 13.5C3 12.6716 2.32843 12 1.5 12C0.671573 12 0 12.6716 0 13.5Z" fill="#333333"/>
<path d="M0 1.5C0 2.32843 0.671573 3 1.5 3C2.32843 3 3 2.32843 3 1.5C3 0.671573 2.32843 0 1.5 0C0.671573 0 0 0.671573 0 1.5Z" fill="#333333"/>
</svg>
