<svg width="24" height="24" viewBox="0 0 24 24" fill="none" xmlns="http://www.w3.org/2000/svg">
<path d="M17.6 21.6004C18.4837 21.6004 19.2 20.884 19.2 20.0004C19.2 19.1167 18.4837 18.4004 17.6 18.4004C16.7163 18.4004 16 19.1167 16 20.0004C16 20.884 16.7163 21.6004 17.6 21.6004Z" fill="#FBC02D"/>
<path d="M9.6 21.6004C10.4837 21.6004 11.2 20.884 11.2 20.0004C11.2 19.1167 10.4837 18.4004 9.6 18.4004C8.71634 18.4004 8 19.1167 8 20.0004C8 20.884 8.71634 21.6004 9.6 21.6004Z" fill="#FBC02D"/>
<path d="M19.2001 16.0002H8.4001L5.6001 7.2002H21.6001L19.2001 16.0002Z" fill="#FBC02D"/>
<path d="M1.6001 2.40039H3.1025C3.6345 2.40039 4.1033 2.75079 4.2537 3.26199L7.6625 14.8524C7.8625 15.5324 8.4873 16.0004 9.1969 16.0004H17.9777C18.6993 16.0004 19.3313 15.5172 19.5217 14.8212L21.6001 7.20039H5.6001" stroke="#FBC02D" stroke-width="2" stroke-miterlimit="10" stroke-linecap="round" stroke-linejoin="round"/>
</svg>
