<svg width="23" height="23" viewBox="0 0 23 23" fill="none" xmlns="http://www.w3.org/2000/svg">
<path d="M17.225 14.8887C16.819 14.6507 16.32 14.6557 15.916 14.8957L13.87 16.1147C13.412 16.3877 12.84 16.3557 12.42 16.0277C11.694 15.4607 10.525 14.5067 9.50801 13.4897C8.49101 12.4727 7.53701 11.3037 6.97001 10.5777C6.64201 10.1577 6.61001 9.58573 6.88301 9.12773L8.10201 7.08173C8.34301 6.67773 8.34501 6.17473 8.10701 5.76873L5.10501 0.640733C4.81401 0.144733 4.23601 -0.099267 3.67701 0.037733C3.13401 0.169733 2.42901 0.491733 1.69001 1.23173C-0.623992 3.54573 -1.85299 7.44873 6.84901 16.1507C15.551 24.8527 19.453 23.6247 21.768 21.3097C22.509 20.5687 22.83 19.8627 22.963 19.3187C23.098 18.7607 22.858 18.1867 22.363 17.8967C21.127 17.1737 18.461 15.6127 17.225 14.8887Z" fill="#A2A3A5"/>
</svg>
