<svg width="12" height="9" viewBox="0 0 12 9" fill="none" xmlns="http://www.w3.org/2000/svg">
<path d="M10.8859 0.00976562C10.6339 0.00976562 10.3959 0.107766 10.2139 0.275766L4.69793 5.91777L1.86993 3.01977C1.65993 2.83777 1.44993 2.75377 1.21193 2.75377C0.693926 2.75377 0.273926 3.18777 0.273926 3.70577C0.273926 3.95777 0.371926 4.19577 0.539926 4.36377L4.03993 7.93377C4.24993 8.11577 4.45993 8.19977 4.69793 8.19977C4.94993 8.19977 5.18793 8.10177 5.36993 7.93377L11.5439 1.63377C11.6979 1.47977 11.8099 1.24177 11.8379 0.975766C11.8239 0.429766 11.4039 0.00976562 10.8859 0.00976562Z" fill="black"/>
</svg>
