<svg width="20" height="20" viewBox="0 0 20 20" fill="none" xmlns="http://www.w3.org/2000/svg">
<path d="M14.0335 1H5.96822C3.22928 1 1.00098 3.22841 1.00098 5.96735V14.0327C1.00098 16.7717 3.22928 19 5.96822 19H14.0335C16.7727 19 19.001 16.7716 19.001 14.0327V5.96735C19.0011 3.22841 16.7727 1 14.0335 1ZM17.404 14.0327C17.404 15.8911 15.8921 17.403 14.0336 17.403H5.96822C4.1099 17.4031 2.59802 15.8911 2.59802 14.0327V5.96735C2.59802 4.10903 4.1099 2.59705 5.96822 2.59705H14.0335C15.892 2.59705 17.4039 4.10903 17.4039 5.96735V14.0327H17.404Z" fill="#646469" stroke="#646469" stroke-width="0.3"/>
<path d="M10.001 5C7.24394 5 5.00098 7.24301 5.00098 10.0001C5.00098 12.7571 7.24394 15 10.001 15C12.758 15 15.001 12.7571 15.001 10.0001C15.001 7.24301 12.758 5 10.001 5ZM10.001 13.2782C8.19336 13.2782 6.72262 11.8077 6.72262 10C6.72262 8.19223 8.19325 6.72157 10.001 6.72157C11.8087 6.72157 13.2793 8.19223 13.2793 10C13.2793 11.8077 11.8086 13.2782 10.001 13.2782Z" fill="#646469" stroke="#646469" stroke-width="0.3"/>
<path d="M15.001 4C14.7382 4 14.4802 4.10636 14.2946 4.29273C14.1082 4.47818 14.001 4.73636 14.001 5C14.001 5.26282 14.1082 5.52091 14.2946 5.70727C14.4801 5.89273 14.7382 6 15.001 6C15.2646 6 15.5219 5.89273 15.7082 5.70727C15.8946 5.52091 16.001 5.26273 16.001 5C16.001 4.73636 15.8946 4.47818 15.7082 4.29273C15.5228 4.10636 15.2646 4 15.001 4Z" fill="#646469" stroke="#646469" stroke-width="0.3"/>
</svg>
