<svg width="25" height="25" viewBox="0 0 25 25" fill="none" xmlns="http://www.w3.org/2000/svg">
<g clip-path="url(#clip0)">
<path d="M3.20801 13.3241C0.953841 13.3241 0.833008 11.2374 0.833008 10.8333" stroke="#A2A3A5" stroke-width="2" stroke-miterlimit="10" stroke-linecap="round" stroke-linejoin="round"/>
<path d="M21.3825 12.9258C21.0333 12.7008 20.7683 12.3558 20.6767 11.9508C20.5725 11.4916 20.415 11.0483 20.2117 10.6233C20.0092 10.1991 20.0067 9.70742 20.1917 9.27575L21.6667 5.83325C19.9167 5.83325 18.6108 6.27409 17.6825 6.78575C17.2308 7.03492 16.6875 7.04492 16.2208 6.82575C14.88 6.19492 13.325 5.83325 11.6667 5.83325C6.60417 5.83325 2.5 9.19075 2.5 13.3333C2.5 14.9908 3.165 16.5174 4.2775 17.7583L6.14583 22.1174C6.435 22.7916 7.06417 23.2999 7.7975 23.3308C8.95667 23.3808 9.8625 22.3683 9.7 21.2333L9.69167 21.1749C9.65417 20.9116 9.87917 20.6874 10.1433 20.7241C10.6383 20.7941 11.1467 20.8333 11.6667 20.8333C12.1867 20.8333 12.6958 20.7941 13.1908 20.7241C13.4642 20.6858 13.6767 20.9149 13.6392 21.1883C13.5267 22.0191 13.9475 22.8699 14.7242 23.1866C15.7175 23.5924 16.7592 23.1133 17.1433 22.2174L18.2233 19.6983C18.4325 19.2099 18.8625 18.8508 19.38 18.7308L21.1592 18.3191L22.0792 13.3749L21.3825 12.9258Z" fill="#A2A3A5"/>
<path d="M22.3856 15.9399C22.1289 17.3191 21.5206 18.3899 21.0281 18.3316C20.5356 18.2733 20.3448 17.1066 20.6014 15.7274C20.8581 14.3483 21.4664 13.2774 21.9589 13.3358C22.4514 13.3941 22.6423 14.5599 22.3856 15.9399Z" fill="#A2A3A5"/>
<path d="M11.6667 4.16659C12.5192 4.16659 13.345 4.25909 14.1417 4.41742C14.1475 4.33325 14.1667 4.25242 14.1667 4.16659C14.1667 2.32575 12.6742 0.833252 10.8333 0.833252C8.9925 0.833252 7.5 2.32575 7.5 4.16659C7.5 4.40159 7.52583 4.62992 7.57167 4.85159C8.83667 4.41242 10.2175 4.16659 11.6667 4.16659Z" fill="#A2A3A5"/>
</g>
<defs>
<clipPath id="clip0">
<rect width="25" height="25" fill="white"/>
</clipPath>
</defs>
</svg>
