<svg width="19" height="21" viewBox="0 0 19 21" fill="none" xmlns="http://www.w3.org/2000/svg">
<path d="M17.3944 9.3912L9.26265 17.5229C7.69995 19.0856 5.16851 19.0856 3.6058 17.5229C2.04309 15.9602 2.04309 13.4288 3.6058 11.8661L12.4446 3.02726C13.4204 2.05145 15.0044 2.05145 15.9802 3.02726C16.956 4.00306 16.956 5.58698 15.9802 6.56278L8.55555 13.9874C8.16664 14.3763 7.53024 14.3763 7.14133 13.9874C6.75242 13.5985 6.75243 12.9621 7.14133 12.5732L13.8588 5.85568L12.7982 4.79502L6.08067 11.5125C5.10487 12.4883 5.10487 14.0722 6.08067 15.048C7.05648 16.0238 8.6404 16.0238 9.61621 15.048L17.0408 7.62344C18.6035 6.06074 18.6035 3.5293 17.0408 1.9666C15.4781 0.403896 12.9467 0.403896 11.384 1.9666L2.54514 10.8054C0.395534 12.955 0.395534 16.434 2.54514 18.5836C4.69474 20.7332 8.17371 20.7332 10.3233 18.5836L18.455 10.4519L17.3944 9.3912Z" fill="#A17C21"/>
</svg>
