<svg width="27" height="27" viewBox="0 0 27 27" fill="none" xmlns="http://www.w3.org/2000/svg">
<path d="M19.8 24.2999C20.7941 24.2999 21.6 23.4941 21.6 22.5C21.6 21.5058 20.7941 20.7 19.8 20.7C18.8059 20.7 18 21.5058 18 22.5C18 23.4941 18.8059 24.2999 19.8 24.2999Z" fill="#A2A3A5"/>
<path d="M10.8 24.2999C11.7941 24.2999 12.6 23.4941 12.6 22.5C12.6 21.5058 11.7941 20.7 10.8 20.7C9.80589 20.7 9 21.5058 9 22.5C9 23.4941 9.80589 24.2999 10.8 24.2999Z" fill="#A2A3A5"/>
<path d="M21.5998 18.0001H9.4498L6.2998 8.1001H24.2998L21.5998 18.0001Z" fill="#A2A3A5"/>
<path d="M1.7998 2.69995H3.49C4.0885 2.69995 4.6159 3.09415 4.7851 3.66925L8.62 16.7085C8.845 17.4735 9.5479 18 10.3462 18H20.2246C21.0364 18 21.7474 17.4564 21.9616 16.6734L24.2998 8.09995H6.2998" stroke="#A2A3A5" stroke-width="2" stroke-miterlimit="10" stroke-linecap="round" stroke-linejoin="round"/>
</svg>
