<svg width="20" height="20" viewBox="0 0 20 20" fill="none" xmlns="http://www.w3.org/2000/svg">
<path d="M14.0325 1.0918H5.96724C3.22831 1.0918 1 3.30905 1 6.03428V14.0592C1 16.7845 3.22831 19.0017 5.96724 19.0017H14.0325C16.7717 19.0017 19 16.7844 19 14.0592V6.03428C19.0001 3.30905 16.7717 1.0918 14.0325 1.0918ZM17.4031 14.0592C17.4031 15.9083 15.8911 17.4126 14.0327 17.4126H5.96724C4.10892 17.4127 2.59705 15.9083 2.59705 14.0592V6.03428C2.59705 4.18526 4.10892 2.68085 5.96724 2.68085H14.0325C15.891 2.68085 17.403 4.18526 17.403 6.03428V14.0592H17.4031Z" fill="white" stroke="#646469" stroke-width="0.3"/>
<path d="M10 5.07178C7.24296 5.07178 5 7.30356 5 10.0469C5 12.79 7.24296 15.0217 10 15.0217C12.757 15.0217 15 12.79 15 10.0469C15 7.30356 12.757 5.07178 10 5.07178ZM10 13.3085C8.19239 13.3085 6.72164 11.8453 6.72164 10.0467C6.72164 8.24803 8.19227 6.78473 10 6.78473C11.8077 6.78473 13.2784 8.24803 13.2784 10.0467C13.2784 11.8453 11.8076 13.3085 10 13.3085Z" fill="white" stroke="#646469" stroke-width="0.3"/>
<path d="M15 4.07617C14.7373 4.07617 14.4792 4.182 14.2936 4.36743C14.1072 4.55196 14 4.80885 14 5.07117C14 5.33267 14.1073 5.58947 14.2936 5.7749C14.4791 5.95942 14.7373 6.06616 15 6.06616C15.2636 6.06616 15.5209 5.95942 15.7073 5.7749C15.8936 5.58947 16 5.33258 16 5.07117C16 4.80885 15.8936 4.55196 15.7073 4.36743C15.5218 4.182 15.2636 4.07617 15 4.07617Z" fill="white" stroke="#646469" stroke-width="0.3"/>
</svg>
