<svg width="17" height="17" viewBox="0 0 17 17" fill="none" xmlns="http://www.w3.org/2000/svg">
<circle opacity="0.6" cx="8.5" cy="8.5" r="8" stroke="#F1AC00"/>
<path d="M7.47461 10.0244C7.47461 9.56869 7.52995 9.20573 7.64062 8.93555C7.7513 8.66536 7.95312 8.40007 8.24609 8.13965C8.54232 7.87598 8.73926 7.66276 8.83691 7.5C8.93457 7.33398 8.9834 7.15983 8.9834 6.97754C8.9834 6.42741 8.72949 6.15234 8.22168 6.15234C7.98079 6.15234 7.78711 6.22721 7.64062 6.37695C7.4974 6.52344 7.42253 6.72689 7.41602 6.9873H6C6.00651 6.36556 6.20671 5.87891 6.60059 5.52734C6.99772 5.17578 7.53809 5 8.22168 5C8.91178 5 9.44727 5.16764 9.82812 5.50293C10.209 5.83496 10.3994 6.30534 10.3994 6.91406C10.3994 7.19076 10.3376 7.4528 10.2139 7.7002C10.0902 7.94434 9.8737 8.21615 9.56445 8.51562L9.16895 8.8916C8.92155 9.12923 8.77995 9.40755 8.74414 9.72656L8.72461 10.0244H7.47461ZM7.33301 11.5234C7.33301 11.3053 7.40625 11.1263 7.55273 10.9863C7.70247 10.8431 7.8929 10.7715 8.12402 10.7715C8.35514 10.7715 8.54395 10.8431 8.69043 10.9863C8.84017 11.1263 8.91504 11.3053 8.91504 11.5234C8.91504 11.7383 8.8418 11.9157 8.69531 12.0557C8.55208 12.1956 8.36165 12.2656 8.12402 12.2656C7.88639 12.2656 7.69434 12.1956 7.54785 12.0557C7.40462 11.9157 7.33301 11.7383 7.33301 11.5234Z" fill="#F1AC00"/>
</svg>
