<svg width="32" height="32" viewBox="0 0 32 32" fill="none" xmlns="http://www.w3.org/2000/svg">
<path fill-rule="evenodd" clip-rule="evenodd" d="M16 0C19.5392 0 22.808 1.11769 25.4869 3.03721C20.424 5.41838 15.7542 10.6667 10.7404 16.0121C7.86482 19.0737 5.11214 22.0866 2.33487 24.5649C1.15515 22.7183 0.344086 20.6287 0 18.369L0.90937 17.3971C6.04608 11.9544 10.7896 6.56036 16 4.25209C11.7727 2.40547 8.03687 2.89142 4.47312 4.73804C7.42243 1.82232 11.5023 0 16 0ZM29.6651 7.43508C26.8879 9.91344 24.1352 12.9506 21.2596 16.0121C16.2458 21.3333 11.6006 26.5816 6.51306 28.9628C9.16743 30.858 12.4608 32 16 32C20.3748 32 24.3564 30.2749 27.2565 27.4806C23.7665 29.2301 20.1045 29.6431 16 27.8451C21.2104 25.5368 25.9785 20.167 31.0906 14.7001L32 13.7282C31.7051 11.4442 30.8694 9.306 29.6651 7.43508Z" fill="#FBC02D"/>
</svg>
