<svg width="148" height="30" viewBox="0 0 148 30" fill="none" xmlns="http://www.w3.org/2000/svg">
<path d="M10.5625 22.8398V21.2461C10.4375 21.3919 10.2604 21.5742 10.0312 21.793C9.8125 22.0013 9.32812 22.2826 8.57812 22.6367C7.82812 22.9805 7.04688 23.1523 6.23438 23.1523C4.67188 23.1523 3.40104 22.7201 2.42188 21.8555C1.44271 20.9805 0.953125 19.9232 0.953125 18.6836C0.953125 17.4023 1.36458 16.3346 2.1875 15.4805C3.01042 14.6263 4.14583 14.069 5.59375 13.8086L10.5625 12.918C10.5625 12.2617 10.3229 11.7253 9.84375 11.3086C9.36458 10.8919 8.69792 10.6836 7.84375 10.6836C7.13542 10.6836 6.48958 10.819 5.90625 11.0898C5.32292 11.3503 4.91146 11.6211 4.67188 11.9023L4.3125 12.2773L1.92188 9.88672C1.98438 9.80339 2.06771 9.69401 2.17188 9.55859C2.28646 9.41276 2.53125 9.16797 2.90625 8.82422C3.29167 8.48047 3.70833 8.17839 4.15625 7.91797C4.60417 7.64714 5.19271 7.40234 5.92188 7.18359C6.65104 6.95443 7.39583 6.83984 8.15625 6.83984C10.1354 6.83984 11.75 7.43359 13 8.62109C14.25 9.79818 14.875 11.2826 14.875 13.0742V22.8398H10.5625ZM7.35938 19.6367C8.33854 19.6367 9.11458 19.3294 9.6875 18.7148C10.2708 18.0898 10.5625 17.2253 10.5625 16.1211V15.6367L7.04688 16.2773C5.86979 16.4648 5.28125 17.0534 5.28125 18.043C5.28125 19.1055 5.97396 19.6367 7.35938 19.6367ZM23.5312 7.15234V22.8398H19.2031V7.15234H23.5312ZM23.1562 0.933594C23.6146 1.37109 23.8438 1.95443 23.8438 2.68359C23.8438 3.40234 23.6146 3.98047 23.1562 4.41797C22.6979 4.85547 22.0729 5.07422 21.2812 5.07422C20.5521 5.07422 19.9688 4.85547 19.5312 4.41797C19.1042 3.98047 18.8906 3.40234 18.8906 2.68359C18.8906 1.95443 19.1094 1.37109 19.5469 0.933594C19.9844 0.496094 20.5625 0.277344 21.2812 0.277344C22.0729 0.277344 22.6979 0.496094 23.1562 0.933594ZM37.2969 6.99609V11.3242C36.974 11.2201 36.4948 11.1628 35.8594 11.1523C34.724 11.1523 33.8229 11.5117 33.1562 12.2305C32.5 12.9492 32.1719 13.9805 32.1719 15.3242V22.8398H27.8594V7.15234H32.1719V9.07422C32.2969 8.92839 32.474 8.74089 32.7031 8.51172C32.9323 8.27214 33.4323 7.95964 34.2031 7.57422C34.9844 7.1888 35.8021 6.99609 36.6562 6.99609H37.2969ZM61.1406 16.4336H49.7812C49.9479 17.2878 50.401 18.0117 51.1406 18.6055C51.8802 19.1888 52.8125 19.4805 53.9375 19.4805C54.75 19.4805 55.5 19.3242 56.1875 19.0117C56.8854 18.6888 57.375 18.3659 57.6562 18.043L58.1094 17.5586L60.3438 20.4336L60.0625 20.7148C59.9271 20.8503 59.6458 21.0742 59.2188 21.3867C58.7917 21.6992 58.3385 21.9805 57.8594 22.2305C57.3802 22.4701 56.7552 22.6836 55.9844 22.8711C55.224 23.0586 54.4375 23.1523 53.625 23.1523C51.3229 23.1523 49.3594 22.3555 47.7344 20.7617C46.1094 19.1576 45.2969 17.2357 45.2969 14.9961C45.2969 12.7565 46.099 10.8398 47.7031 9.24609C49.3073 7.64193 51.2292 6.83984 53.4688 6.83984C55.7083 6.83984 57.5729 7.58984 59.0625 9.08984C60.5521 10.5794 61.2969 12.444 61.2969 14.6836L61.1406 16.4336ZM55.7812 11.3398C55.1562 10.7982 54.3854 10.5273 53.4688 10.5273C52.5521 10.5273 51.7708 10.793 51.125 11.3242C50.4896 11.8555 50.0417 12.5482 49.7812 13.4023H56.9844C56.8177 12.569 56.4167 11.8815 55.7812 11.3398ZM68.8281 7.15234V9.07422C68.9531 8.90755 69.1302 8.70443 69.3594 8.46484C69.5885 8.21484 70.0885 7.88151 70.8594 7.46484C71.6406 7.04818 72.4583 6.83984 73.3125 6.83984C75.1042 6.83984 76.5625 7.45964 77.6875 8.69922C78.8229 9.9388 79.3906 11.6107 79.3906 13.7148V22.8398H75.0781V14.1992C75.0781 13.2409 74.7917 12.4701 74.2188 11.8867C73.6562 11.293 72.9271 10.9961 72.0312 10.9961C71.0521 10.9961 70.2708 11.319 69.6875 11.9648C69.1146 12.6003 68.8281 13.5065 68.8281 14.6836V22.8398H64.5156V7.15234H68.8281ZM98.4219 16.4336H87.0625C87.2292 17.2878 87.6823 18.0117 88.4219 18.6055C89.1615 19.1888 90.0938 19.4805 91.2188 19.4805C92.0312 19.4805 92.7812 19.3242 93.4688 19.0117C94.1667 18.6888 94.6562 18.3659 94.9375 18.043L95.3906 17.5586L97.625 20.4336L97.3438 20.7148C97.2083 20.8503 96.9271 21.0742 96.5 21.3867C96.0729 21.6992 95.6198 21.9805 95.1406 22.2305C94.6615 22.4701 94.0365 22.6836 93.2656 22.8711C92.5052 23.0586 91.7188 23.1523 90.9062 23.1523C88.6042 23.1523 86.6406 22.3555 85.0156 20.7617C83.3906 19.1576 82.5781 17.2357 82.5781 14.9961C82.5781 12.7565 83.3802 10.8398 84.9844 9.24609C86.5885 7.64193 88.5104 6.83984 90.75 6.83984C92.9896 6.83984 94.8542 7.58984 96.3438 9.08984C97.8333 10.5794 98.5781 12.444 98.5781 14.6836L98.4219 16.4336ZM93.0625 11.3398C92.4375 10.7982 91.6667 10.5273 90.75 10.5273C89.8333 10.5273 89.0521 10.793 88.4062 11.3242C87.7708 11.8555 87.3229 12.5482 87.0625 13.4023H94.2656C94.099 12.569 93.6979 11.8815 93.0625 11.3398ZM111.234 6.99609V11.3242C110.911 11.2201 110.432 11.1628 109.797 11.1523C108.661 11.1523 107.76 11.5117 107.094 12.2305C106.438 12.9492 106.109 13.9805 106.109 15.3242V22.8398H101.797V7.15234H106.109V9.07422C106.234 8.92839 106.411 8.74089 106.641 8.51172C106.87 8.27214 107.37 7.95964 108.141 7.57422C108.922 7.1888 109.74 6.99609 110.594 6.99609H111.234ZM124.359 21.5586V20.2773C124.318 20.3398 124.25 20.4232 124.156 20.5273C124.073 20.6211 123.885 20.7982 123.594 21.0586C123.312 21.3086 123.005 21.5378 122.672 21.7461C122.349 21.944 121.917 22.1263 121.375 22.293C120.844 22.4492 120.292 22.5273 119.719 22.5273C117.927 22.5273 116.302 21.7513 114.844 20.1992C113.396 18.6367 112.672 16.7982 112.672 14.6836C112.672 12.569 113.396 10.7357 114.844 9.18359C116.302 7.62109 117.927 6.83984 119.719 6.83984C120.615 6.83984 121.453 7.02734 122.234 7.40234C123.016 7.77734 123.562 8.14193 123.875 8.49609L124.359 9.07422V7.15234H128.672V21.5586C128.672 23.819 127.88 25.7148 126.297 27.2461C124.724 28.7878 122.745 29.5586 120.359 29.5586C119.464 29.5586 118.604 29.4388 117.781 29.1992C116.958 28.9701 116.276 28.694 115.734 28.3711C115.193 28.0586 114.719 27.7357 114.312 27.4023C113.906 27.069 113.62 26.7878 113.453 26.5586L113.156 26.1992L115.875 23.6367C115.979 23.7826 116.135 23.9753 116.344 24.2148C116.562 24.4544 117.047 24.7617 117.797 25.1367C118.547 25.5221 119.349 25.7148 120.203 25.7148C121.484 25.7148 122.495 25.3398 123.234 24.5898C123.984 23.8503 124.359 22.8398 124.359 21.5586ZM118.172 11.9336C117.495 12.6523 117.156 13.569 117.156 14.6836C117.156 15.7878 117.495 16.7044 118.172 17.4336C118.859 18.1628 119.693 18.5273 120.672 18.5273C121.661 18.5273 122.521 18.1523 123.25 17.4023C123.99 16.6523 124.359 15.7461 124.359 14.6836C124.359 13.6107 123.99 12.7044 123.25 11.9648C122.521 11.2148 121.661 10.8398 120.672 10.8398C119.693 10.8398 118.859 11.2044 118.172 11.9336ZM136.5 23.793L136.984 22.6836L130.906 7.15234H135.391L139.062 17.5586L142.75 7.15234H147.219L140.984 23.793C139.557 27.6367 137.531 29.5586 134.906 29.5586C134.438 29.5586 133.974 29.5169 133.516 29.4336C133.057 29.3503 132.719 29.2669 132.5 29.1836L132.188 29.0742V25.2461C132.615 25.4544 133.146 25.5586 133.781 25.5586C135.083 25.5586 135.99 24.9701 136.5 23.793Z" fill="white"/>
</svg>
