<svg width="114" height="24" viewBox="0 0 114 24" fill="none" xmlns="http://www.w3.org/2000/svg">
<path d="M7.48958 18.4931V17.1868C7.39216 17.3063 7.25414 17.4557 7.07553 17.635C6.90503 17.8058 6.52751 18.0363 5.94295 18.3266C5.3584 18.6083 4.74949 18.7492 4.11623 18.7492C2.89841 18.7492 1.90792 18.3949 1.14475 17.6862C0.381583 16.9691 0 16.1025 0 15.0864C0 14.0363 0.320692 13.1612 0.962077 12.461C1.60346 11.7609 2.48841 11.3042 3.61692 11.0907L7.48958 10.3607C7.48958 9.82284 7.30285 9.38314 6.92939 9.04162C6.55592 8.70011 6.03632 8.52935 5.37058 8.52935C4.8185 8.52935 4.31514 8.64034 3.86049 8.86233C3.40583 9.07578 3.08514 9.29776 2.89841 9.52828L2.61831 9.83565L0.755048 7.8762C0.80376 7.8079 0.868711 7.71825 0.949899 7.60726C1.03921 7.48773 1.23 7.28709 1.52227 7.00534C1.82267 6.72359 2.14742 6.47599 2.49653 6.26254C2.84564 6.04056 3.30435 5.83991 3.87266 5.66062C4.44098 5.47279 5.02147 5.37887 5.61414 5.37887C7.15671 5.37887 8.41513 5.86553 9.38938 6.83885C10.3636 7.80363 10.8508 9.02028 10.8508 10.4888V18.4931H7.48958ZM4.99306 15.8677C5.75622 15.8677 6.36107 15.6158 6.80761 15.1121C7.26226 14.5998 7.48958 13.8911 7.48958 12.9861V12.5891L4.74949 13.1142C3.83207 13.2679 3.37336 13.7503 3.37336 14.5614C3.37336 15.4322 3.91326 15.8677 4.99306 15.8677Z" fill="white"/>
<path d="M17.5975 5.63501V18.4931H14.2241V5.63501H17.5975ZM17.3052 0.537887C17.6624 0.896478 17.841 1.3746 17.841 1.97225C17.841 2.56137 17.6624 3.03522 17.3052 3.39381C16.948 3.7524 16.4608 3.9317 15.8438 3.9317C15.2755 3.9317 14.8209 3.7524 14.4799 3.39381C14.147 3.03522 13.9806 2.56137 13.9806 1.97225C13.9806 1.3746 14.1511 0.896478 14.492 0.537887C14.833 0.179296 15.2836 0 15.8438 0C16.4608 0 16.948 0.179296 17.3052 0.537887Z" fill="white"/>
<path d="M28.3265 5.50694V9.05443C28.0748 8.96905 27.7013 8.92209 27.2061 8.91355C26.3211 8.91355 25.6188 9.20811 25.0992 9.79723C24.5878 10.3863 24.332 11.2316 24.332 12.333V18.4931H20.9708V5.63501H24.332V7.21025C24.4294 7.09072 24.5675 6.93703 24.7461 6.7492C24.9247 6.55283 25.3144 6.29669 25.9152 5.98079C26.5241 5.66489 27.1614 5.50694 27.8272 5.50694H28.3265Z" fill="white"/>
<path d="M46.9104 13.2423H38.0568C38.1867 13.9424 38.5399 14.5358 39.1163 15.0224C39.6928 15.5005 40.4194 15.7396 41.2962 15.7396C41.9295 15.7396 42.514 15.6115 43.0499 15.3554C43.5938 15.0907 43.9754 14.826 44.1946 14.5614L44.5478 14.1644L46.2893 16.5208L46.0701 16.7513C45.9645 16.8623 45.7453 17.0459 45.4125 17.302C45.0796 17.5582 44.7264 17.7887 44.353 17.9936C43.9795 18.19 43.4924 18.365 42.8916 18.5187C42.2989 18.6724 41.6859 18.7492 41.0527 18.7492C39.2584 18.7492 37.728 18.0961 36.4615 16.7898C35.195 15.4749 34.5617 13.8997 34.5617 12.064C34.5617 10.2284 35.1868 8.65742 36.4371 7.35112C37.6874 6.03629 39.1853 5.37887 40.9309 5.37887C42.6764 5.37887 44.1297 5.9936 45.2907 7.22305C46.4517 8.44397 47.0322 9.97225 47.0322 11.8079L46.9104 13.2423ZM42.7333 9.06724C42.2461 8.62327 41.6453 8.40128 40.9309 8.40128C40.2164 8.40128 39.6075 8.619 39.1042 9.05443C38.6089 9.48986 38.2598 10.0576 38.0568 10.7577H43.671C43.5411 10.0747 43.2285 9.51121 42.7333 9.06724Z" fill="white"/>
<path d="M52.902 5.63501V7.21025C52.9995 7.07364 53.1375 6.90715 53.3161 6.71078C53.4947 6.50587 53.8844 6.23266 54.4852 5.89114C55.0941 5.54963 55.7314 5.37887 56.3972 5.37887C57.7936 5.37887 58.9302 5.88687 59.8071 6.90288C60.692 7.91889 61.1345 9.28922 61.1345 11.0139V18.4931H57.7733V11.4109C57.7733 10.6254 57.55 9.9936 57.1035 9.51548C56.6651 9.02882 56.0968 8.78549 55.3986 8.78549C54.6354 8.78549 54.0265 9.05016 53.5718 9.57951C53.1253 10.1003 52.902 10.8431 52.902 11.8079V18.4931H49.5409V5.63501H52.902Z" fill="white"/>
<path d="M75.9675 13.2423H67.114C67.2439 13.9424 67.5971 14.5358 68.1735 15.0224C68.7499 15.5005 69.4766 15.7396 70.3534 15.7396C70.9866 15.7396 71.5712 15.6115 72.107 15.3554C72.651 15.0907 73.0326 14.826 73.2518 14.5614L73.605 14.1644L75.3464 16.5208L75.1272 16.7513C75.0217 16.8623 74.8025 17.0459 74.4696 17.302C74.1367 17.5582 73.7836 17.7887 73.4101 17.9936C73.0366 18.19 72.5495 18.365 71.9487 18.5187C71.356 18.6724 70.7431 18.7492 70.1098 18.7492C68.3156 18.7492 66.7852 18.0961 65.5186 16.7898C64.2521 15.4749 63.6188 13.8997 63.6188 12.064C63.6188 10.2284 64.244 8.65742 65.4943 7.35112C66.7446 6.03629 68.2425 5.37887 69.988 5.37887C71.7336 5.37887 73.1868 5.9936 74.3478 7.22305C75.5088 8.44397 76.0893 9.97225 76.0893 11.8079L75.9675 13.2423ZM71.7904 9.06724C71.3033 8.62327 70.7025 8.40128 69.988 8.40128C69.2736 8.40128 68.6647 8.619 68.1613 9.05443C67.6661 9.48986 67.317 10.0576 67.114 10.7577H72.7281C72.5982 10.0747 72.2857 9.51121 71.7904 9.06724Z" fill="white"/>
<path d="M85.9536 5.50694V9.05443C85.702 8.96905 85.3285 8.92209 84.8332 8.91355C83.9483 8.91355 83.246 9.20811 82.7264 9.79723C82.2149 10.3863 81.9592 11.2316 81.9592 12.333V18.4931H78.598V5.63501H81.9592V7.21025C82.0566 7.09072 82.1946 6.93703 82.3733 6.7492C82.5519 6.55283 82.9416 6.29669 83.5424 5.98079C84.1513 5.66489 84.7886 5.50694 85.4543 5.50694H85.9536Z" fill="white"/>
<path d="M96.1833 17.4429V16.3927C96.1508 16.444 96.0981 16.5123 96.025 16.5977C95.96 16.6745 95.8139 16.8196 95.5866 17.0331C95.3674 17.238 95.1279 17.4258 94.8681 17.5966C94.6164 17.7588 94.2795 17.9082 93.8573 18.0448C93.4432 18.1729 93.0129 18.2369 92.5664 18.2369C91.17 18.2369 89.9034 17.6009 88.7668 16.3287C87.6383 15.048 87.074 13.5411 87.074 11.8079C87.074 10.0747 87.6383 8.57204 88.7668 7.29989C89.9034 6.01921 91.17 5.37887 92.5664 5.37887C93.2646 5.37887 93.9182 5.53255 94.5271 5.83992C95.136 6.14728 95.5622 6.44611 95.8058 6.73639L96.1833 7.21025V5.63501H99.5445V17.4429C99.5445 19.2956 98.9275 20.8495 97.6934 22.1046C96.4675 23.3682 94.9249 24 93.0657 24C92.3675 24 91.6977 23.9018 91.0563 23.7054C90.4149 23.5176 89.8831 23.2914 89.461 23.0267C89.0388 22.7705 88.6694 22.5059 88.3527 22.2327C88.0361 21.9594 87.8128 21.7289 87.6829 21.5411L87.4516 21.2465L89.5706 19.1462C89.6517 19.2657 89.7735 19.4237 89.9359 19.6201C90.1064 19.8164 90.4839 20.0683 91.0685 20.3757C91.653 20.6916 92.2782 20.8495 92.9439 20.8495C93.9425 20.8495 94.7301 20.5422 95.3065 19.9274C95.891 19.3212 96.1833 18.4931 96.1833 17.4429ZM91.3608 9.5539C90.833 10.143 90.5692 10.8943 90.5692 11.8079C90.5692 12.7129 90.833 13.4642 91.3608 14.0619C91.8966 14.6596 92.5461 14.9584 93.3093 14.9584C94.0806 14.9584 94.7504 14.651 95.3187 14.0363C95.8951 13.4216 96.1833 12.6788 96.1833 11.8079C96.1833 10.9285 95.8951 10.1857 95.3187 9.57951C94.7504 8.96478 94.0806 8.65742 93.3093 8.65742C92.5461 8.65742 91.8966 8.95624 91.3608 9.5539Z" fill="white"/>
<path d="M105.646 19.2743L106.023 18.365L101.286 5.63501H104.781L107.643 14.1644L110.517 5.63501H114L109.141 19.2743C108.029 22.4248 106.45 24 104.404 24C104.038 24 103.677 23.9658 103.32 23.8975C102.963 23.8292 102.699 23.7609 102.528 23.6926L102.285 23.603V20.4653C102.617 20.6361 103.032 20.7215 103.527 20.7215C104.542 20.7215 105.248 20.2391 105.646 19.2743Z" fill="white"/>
</svg>
