<svg width="81" height="77" viewBox="0 0 81 77" fill="none" xmlns="http://www.w3.org/2000/svg">
<g clip-path="url(#clip0)">
<path d="M77.2031 51.3335H64.5469V50.0502C64.5469 49.7098 64.4135 49.3834 64.1762 49.1427C63.9388 48.9021 63.6169 48.7668 63.2812 48.7668H58.2188C57.8831 48.7668 57.5612 48.9021 57.3238 49.1427C57.0865 49.3834 56.9531 49.7098 56.9531 50.0502V51.3335H49.3594V43.6335C49.3594 43.2932 49.226 42.9667 48.9887 42.7261C48.7513 42.4854 48.4294 42.3502 48.0938 42.3502H46.8281V38.5002C46.8281 38.1598 46.6948 37.8334 46.4574 37.5927C46.2201 37.3521 45.8982 37.2168 45.5625 37.2168H44.2969V34.6502H45.5625C45.8982 34.6502 46.2201 34.515 46.4574 34.2743C46.6948 34.0336 46.8281 33.7072 46.8281 33.3668V28.2335C46.8281 27.8932 46.6948 27.5667 46.4574 27.3261C46.2201 27.0854 45.8982 26.9502 45.5625 26.9502H44.2969V23.1002H51.3021C51.7237 23.0989 52.1413 23.1824 52.5308 23.3458C52.9203 23.5093 53.274 23.7494 53.5714 24.0524L54.7484 25.2459C55.5511 26.06 56.5739 26.6144 57.6873 26.839C58.8008 27.0636 59.955 26.9484 61.0038 26.5078C62.0527 26.0673 62.9491 25.3212 63.5798 24.364C64.2105 23.4068 64.547 22.2814 64.5469 21.1303V17.3701C64.547 16.2189 64.2105 15.0936 63.5798 14.1364C62.9491 13.1792 62.0527 12.4331 61.0038 11.9925C59.955 11.552 58.8008 11.4367 57.6873 11.6614C56.5739 11.886 55.5511 12.4404 54.7484 13.2544L53.5714 14.4479C53.274 14.7509 52.9203 14.9911 52.5308 15.1545C52.1413 15.318 51.7237 15.4015 51.3021 15.4002H44.2969V11.5502C44.2969 11.2098 44.1635 10.8834 43.9262 10.6427C43.6888 10.4021 43.3669 10.2668 43.0312 10.2668H37.9688C37.6331 10.2668 37.3112 10.4021 37.0738 10.6427C36.8365 10.8834 36.7031 11.2098 36.7031 11.5502V15.4002H28.4323C28.0107 15.4015 27.5931 15.318 27.2036 15.1545C26.8141 14.9911 26.4604 14.7509 26.163 14.4479L24.986 13.2544C24.1833 12.4404 23.1605 11.886 22.047 11.6614C20.9336 11.4367 19.7794 11.552 18.7306 11.9925C17.6817 12.4331 16.7852 13.1792 16.1546 14.1364C15.5239 15.0936 15.1874 16.2189 15.1875 17.3701V21.1303C15.1874 22.2814 15.5239 23.4068 16.1546 24.364C16.7852 25.3212 17.6817 26.0673 18.7306 26.5078C19.7794 26.9484 20.9336 27.0636 22.047 26.839C23.1605 26.6144 24.1833 26.06 24.986 25.2459L26.163 24.0524C26.4604 23.7494 26.8141 23.5093 27.2036 23.3458C27.5931 23.1824 28.0107 23.0989 28.4323 23.1002H36.7031V26.9502H35.4375C35.1018 26.9502 34.7799 27.0854 34.5426 27.3261C34.3052 27.5667 34.1719 27.8932 34.1719 28.2335V33.3668C34.1719 33.7072 34.3052 34.0336 34.5426 34.2743C34.7799 34.515 35.1018 34.6502 35.4375 34.6502H36.7031V37.2168H35.4375C35.1018 37.2168 34.7799 37.3521 34.5426 37.5927C34.3052 37.8334 34.1719 38.1598 34.1719 38.5002V42.3502H32.9062C32.5706 42.3502 32.2487 42.4854 32.0113 42.7261C31.774 42.9667 31.6406 43.2932 31.6406 43.6335V51.3335H24.0469V50.0502C24.0469 49.7098 23.9135 49.3834 23.6762 49.1427C23.4388 48.9021 23.1169 48.7668 22.7812 48.7668H17.7188C17.3831 48.7668 17.0612 48.9021 16.8238 49.1427C16.5865 49.3834 16.4531 49.7098 16.4531 50.0502V51.3335H3.79688C3.46121 51.3335 3.13929 51.4687 2.90194 51.7094C2.66459 51.9501 2.53125 52.2765 2.53125 52.6168L2.53125 68.0168C2.53125 68.3572 2.66459 68.6836 2.90194 68.9243C3.13929 69.165 3.46121 69.3002 3.79688 69.3002H16.4531C16.4531 69.6405 16.5865 71.2503 16.8238 71.491C17.0612 71.7316 17.3831 71.8669 17.7188 71.8669H22.7812C23.1169 71.8669 23.4388 71.7316 23.6762 71.491C23.9135 71.2503 24.0469 70.9239 24.0469 70.5835V69.3002H56.9531V70.5835C56.9531 70.9239 57.0865 71.2503 57.3238 71.491C57.5612 71.7316 57.8831 71.8669 58.2188 71.8669H63.2812C63.6169 71.8669 63.9388 71.7316 64.1762 71.491C64.4135 71.2503 64.5469 70.9239 64.5469 70.5835V69.3002H77.2031C77.5388 69.3002 77.8607 69.165 78.0981 68.9243C78.3354 68.6836 78.4688 68.3572 78.4688 68.0168V52.6168C78.4688 52.2765 78.3354 51.9501 78.0981 51.7094C77.8607 51.4687 77.5388 51.3335 77.2031 51.3335ZM39.2344 12.8335H41.7656V15.4002H39.2344V12.8335ZM24.3734 22.2378L23.1964 23.4313C22.7474 23.8859 22.1757 24.1954 21.5534 24.3206C20.9311 24.4459 20.2861 24.3814 19.6999 24.1351C19.1138 23.8889 18.6128 23.4721 18.2601 22.9372C17.9075 22.4024 17.7191 21.7736 17.7188 21.1303V17.3701C17.7191 16.7268 17.9075 16.098 18.2601 15.5631C18.6128 15.0283 19.1138 14.6115 19.6999 14.3652C20.2861 14.119 20.9311 14.0544 21.5534 14.1797C22.1757 14.305 22.7474 14.6145 23.1964 15.0691L24.3734 16.2626C24.9052 16.8047 25.5378 17.2345 26.2345 17.527C26.9312 17.8196 27.6782 17.969 28.4323 17.9668H51.3021C52.0562 17.969 52.8032 17.8196 53.4999 17.527C54.1966 17.2345 54.8292 16.8047 55.361 16.2626L56.538 15.0691C56.9869 14.6145 57.5587 14.305 58.181 14.1797C58.8033 14.0544 59.4483 14.119 60.0344 14.3652C60.6206 14.6115 61.1216 15.0283 61.4743 15.5631C61.8269 16.098 62.0153 16.7268 62.0156 17.3701V21.1303C62.0153 21.7736 61.8269 22.4024 61.4743 22.9372C61.1216 23.4721 60.6206 23.8889 60.0344 24.1351C59.4483 24.3814 58.8033 24.4459 58.181 24.3206C57.5587 24.1954 56.9869 23.8859 56.538 23.4313L55.361 22.2378C54.8292 21.6957 54.1966 21.2659 53.4999 20.9733C52.8032 20.6808 52.0562 20.5313 51.3021 20.5335H28.4323C27.6782 20.5313 26.9312 20.6808 26.2345 20.9733C25.5378 21.2659 24.9052 21.6957 24.3734 22.2378ZM39.2344 23.1002H41.7656V26.9502H39.2344V23.1002ZM36.7031 29.5168H44.2969V32.0835H36.7031V29.5168ZM39.2344 34.6502H41.7656V37.2168H39.2344V34.6502ZM36.7031 39.7835H44.2969V42.3502H36.7031V39.7835ZM5.0625 66.7335V53.9002H16.4531V66.7335H5.0625ZM21.5156 69.3002H18.9844V51.3335H21.5156V69.3002ZM24.0469 66.7335V53.9002H32.9062C33.2419 53.9002 33.5638 53.765 33.8012 53.5243C34.0385 53.2836 34.1719 52.9572 34.1719 52.6168V44.9168H46.8281V52.6168C46.8281 52.9572 46.9615 53.2836 47.1988 53.5243C47.4362 53.765 47.7581 53.9002 48.0938 53.9002H56.9531V66.7335H24.0469ZM62.0156 69.3002H59.4844V51.3335H62.0156V69.3002ZM75.9375 66.7335H64.5469V53.9002H75.9375V66.7335Z" fill="#F1AC00"/>
<path d="M77.2031 51.002H64.5469V49.7186C64.5469 49.3783 64.4135 49.0518 64.1762 48.8112C63.9388 48.5705 63.6169 48.4353 63.2812 48.4353H58.2188C57.8831 48.4353 57.5612 48.5705 57.3238 48.8112C57.0865 49.0518 56.9531 49.3783 56.9531 49.7186V51.002H49.3594V43.302C49.3594 42.9616 49.226 42.6352 48.9887 42.3945C48.7513 42.1538 48.4294 42.0186 48.0938 42.0186H46.8281V38.1686C46.8281 37.8283 46.6948 37.5019 46.4574 37.2612C46.2201 37.0205 45.8982 36.8853 45.5625 36.8853H44.2969V34.3186H45.5625C45.8982 34.3186 46.2201 34.1834 46.4574 33.9428C46.6948 33.7021 46.8281 33.3757 46.8281 33.0353V27.902C46.8281 27.5616 46.6948 27.2352 46.4574 26.9945C46.2201 26.7538 45.8982 26.6186 45.5625 26.6186H44.2969V22.7686H51.3021C51.7237 22.7673 52.1413 22.8508 52.5308 23.0143C52.9203 23.1777 53.274 23.4179 53.5714 23.7209L54.7484 24.9144C55.5511 25.7284 56.5739 26.2828 57.6873 26.5075C58.8008 26.7321 59.955 26.6168 61.0038 26.1763C62.0527 25.7357 62.9491 24.9897 63.5798 24.0325C64.2105 23.0752 64.547 21.9499 64.5469 20.7987V17.0386C64.547 15.8874 64.2105 14.762 63.5798 13.8048C62.9491 12.8476 62.0527 12.1015 61.0038 11.661C59.955 11.2204 58.8008 11.1052 57.6873 11.3298C56.5739 11.5544 55.5511 12.1088 54.7484 12.9229L53.5714 14.1164C53.274 14.4194 52.9203 14.6595 52.5308 14.823C52.1413 14.9864 51.7237 15.0699 51.3021 15.0686H44.2969V11.2186C44.2969 10.8783 44.1635 10.5519 43.9262 10.3112C43.6888 10.0705 43.3669 9.9353 43.0312 9.9353H37.9688C37.6331 9.9353 37.3112 10.0705 37.0738 10.3112C36.8365 10.5519 36.7031 10.8783 36.7031 11.2186V15.0686H28.4323C28.0107 15.0699 27.5931 14.9864 27.2036 14.823C26.8141 14.6595 26.4604 14.4194 26.163 14.1164L24.986 12.9229C24.1833 12.1088 23.1605 11.5544 22.047 11.3298C20.9336 11.1052 19.7794 11.2204 18.7306 11.661C17.6817 12.1015 16.7852 12.8476 16.1546 13.8048C15.5239 14.762 15.1874 15.8874 15.1875 17.0386V20.7987C15.1874 21.9499 15.5239 23.0752 16.1546 24.0325C16.7852 24.9897 17.6817 25.7357 18.7306 26.1763C19.7794 26.6168 20.9336 26.7321 22.047 26.5075C23.1605 26.2828 24.1833 25.7284 24.986 24.9144L26.163 23.7209C26.4604 23.4179 26.8141 23.1777 27.2036 23.0143C27.5931 22.8508 28.0107 22.7673 28.4323 22.7686H36.7031V26.6186H35.4375C35.1018 26.6186 34.7799 26.7538 34.5426 26.9945C34.3052 27.2352 34.1719 27.5616 34.1719 27.902V33.0353C34.1719 33.3757 34.3052 33.7021 34.5426 33.9428C34.7799 34.1834 35.1018 34.3186 35.4375 34.3186H36.7031V36.8853H35.4375C35.1018 36.8853 34.7799 37.0205 34.5426 37.2612C34.3052 37.5019 34.1719 37.8283 34.1719 38.1686V42.0186H32.9062C32.5706 42.0186 32.2487 42.1538 32.0113 42.3945C31.774 42.6352 31.6406 42.9616 31.6406 43.302V51.002H24.0469V49.7186C24.0469 49.3783 23.9135 49.0518 23.6762 48.8112C23.4388 48.5705 23.1169 48.4353 22.7812 48.4353H17.7188C17.3831 48.4353 17.0612 48.5705 16.8238 48.8112C16.5865 49.0518 16.4531 49.3783 16.4531 49.7186V51.002H3.79688C3.46121 51.002 3.13929 51.1372 2.90194 51.3778C2.66459 51.6185 2.53125 51.9449 2.53125 52.2853L2.53125 67.6853C2.53125 68.0257 2.66459 68.3521 2.90194 68.5928C3.13929 68.8334 3.46121 68.9686 3.79688 68.9686H16.4531C16.4531 69.309 16.5865 70.9187 16.8238 71.1594C17.0612 71.4001 17.3831 71.5353 17.7188 71.5353H22.7812C23.1169 71.5353 23.4388 71.4001 23.6762 71.1594C23.9135 70.9187 24.0469 70.5923 24.0469 70.252V68.9686H56.9531V70.252C56.9531 70.5923 57.0865 70.9187 57.3238 71.1594C57.5612 71.4001 57.8831 71.5353 58.2188 71.5353H63.2812C63.6169 71.5353 63.9388 71.4001 64.1762 71.1594C64.4135 70.9187 64.5469 70.5923 64.5469 70.252V68.9686H77.2031C77.5388 68.9686 77.8607 68.8334 78.0981 68.5928C78.3354 68.3521 78.4688 68.0257 78.4688 67.6853V52.2853C78.4688 51.9449 78.3354 51.6185 78.0981 51.3778C77.8607 51.1372 77.5388 51.002 77.2031 51.002ZM39.2344 12.502H41.7656V15.0686H39.2344V12.502ZM24.3734 21.9062L23.1964 23.0997C22.7474 23.5543 22.1757 23.8638 21.5534 23.9891C20.9311 24.1144 20.2861 24.0498 19.6999 23.8036C19.1138 23.5574 18.6128 23.1405 18.2601 22.6057C17.9075 22.0709 17.7191 21.4421 17.7188 20.7987V17.0386C17.7191 16.3952 17.9075 15.7664 18.2601 15.2316C18.6128 14.6968 19.1138 14.2799 19.6999 14.0337C20.2861 13.7875 20.9311 13.7229 21.5534 13.8482C22.1757 13.9734 22.7474 14.2829 23.1964 14.7375L24.3734 15.931C24.9052 16.4732 25.5378 16.9029 26.2345 17.1955C26.9312 17.488 27.6782 17.6375 28.4323 17.6353H51.3021C52.0562 17.6375 52.8032 17.488 53.4999 17.1955C54.1966 16.9029 54.8292 16.4732 55.361 15.931L56.538 14.7375C56.9869 14.2829 57.5587 13.9734 58.181 13.8482C58.8033 13.7229 59.4483 13.7875 60.0344 14.0337C60.6206 14.2799 61.1216 14.6968 61.4743 15.2316C61.8269 15.7664 62.0153 16.3952 62.0156 17.0386V20.7987C62.0153 21.4421 61.8269 22.0709 61.4743 22.6057C61.1216 23.1405 60.6206 23.5574 60.0344 23.8036C59.4483 24.0498 58.8033 24.1144 58.181 23.9891C57.5587 23.8638 56.9869 23.5543 56.538 23.0997L55.361 21.9062C54.8292 21.3641 54.1966 20.9343 53.4999 20.6418C52.8032 20.3493 52.0562 20.1998 51.3021 20.202H28.4323C27.6782 20.1998 26.9312 20.3493 26.2345 20.6418C25.5378 20.9343 24.9052 21.3641 24.3734 21.9062ZM39.2344 22.7686H41.7656V26.6186H39.2344V22.7686ZM36.7031 29.1853H44.2969V31.752H36.7031V29.1853ZM39.2344 34.3186H41.7656V36.8853H39.2344V34.3186ZM36.7031 39.452H44.2969V42.0186H36.7031V39.452ZM5.0625 66.402V53.5686H16.4531V66.402H5.0625ZM21.5156 68.9686H18.9844V51.002H21.5156V68.9686ZM24.0469 66.402V53.5686H32.9062C33.2419 53.5686 33.5638 53.4334 33.8012 53.1928C34.0385 52.9521 34.1719 52.6257 34.1719 52.2853V44.5853H46.8281V52.2853C46.8281 52.6257 46.9615 52.9521 47.1988 53.1928C47.4362 53.4334 47.7581 53.5686 48.0938 53.5686H56.9531V66.402H24.0469ZM62.0156 68.9686H59.4844V51.002H62.0156V68.9686ZM75.9375 66.402H64.5469V53.5686H75.9375V66.402Z" fill="#F1AC00"/>
<path d="M77.6631 51.002H65.0068V49.7186C65.0068 49.3783 64.8735 49.0518 64.6361 48.8112C64.3988 48.5705 64.0769 48.4353 63.7412 48.4353H58.6787C58.343 48.4353 58.0211 48.5705 57.7838 48.8112C57.5464 49.0518 57.4131 49.3783 57.4131 49.7186V51.002H49.8193V43.302C49.8193 42.9616 49.686 42.6352 49.4486 42.3945C49.2113 42.1538 48.8894 42.0186 48.5537 42.0186H47.2881V38.1686C47.2881 37.8283 47.1547 37.5019 46.9174 37.2612C46.68 37.0205 46.3581 36.8853 46.0225 36.8853H44.7568V34.3186H46.0225C46.3581 34.3186 46.68 34.1834 46.9174 33.9428C47.1547 33.7021 47.2881 33.3757 47.2881 33.0353V27.902C47.2881 27.5616 47.1547 27.2352 46.9174 26.9945C46.68 26.7538 46.3581 26.6186 46.0225 26.6186H44.7568V22.7686H51.7621C52.1836 22.7673 52.6012 22.8508 52.9908 23.0143C53.3803 23.1777 53.734 23.4179 54.0313 23.7209L55.2084 24.9144C56.0111 25.7284 57.0338 26.2828 58.1473 26.5075C59.2608 26.7321 60.4149 26.6168 61.4638 26.1763C62.5126 25.7357 63.4091 24.9897 64.0398 24.0325C64.6704 23.0752 65.007 21.9499 65.0068 20.7987V17.0386C65.007 15.8874 64.6704 14.762 64.0398 13.8048C63.4091 12.8476 62.5126 12.1015 61.4638 11.661C60.4149 11.2204 59.2608 11.1052 58.1473 11.3298C57.0338 11.5544 56.0111 12.1088 55.2084 12.9229L54.0313 14.1164C53.734 14.4194 53.3803 14.6595 52.9908 14.823C52.6012 14.9864 52.1836 15.0699 51.7621 15.0686H44.7568V11.2186C44.7568 10.8783 44.6235 10.5519 44.3861 10.3112C44.1488 10.0705 43.8269 9.9353 43.4912 9.9353H38.4287C38.093 9.9353 37.7711 10.0705 37.5338 10.3112C37.2964 10.5519 37.1631 10.8783 37.1631 11.2186V15.0686H28.8922C28.4707 15.0699 28.0531 14.9864 27.6635 14.823C27.274 14.6595 26.9203 14.4194 26.623 14.1164L25.4459 12.9229C24.6432 12.1088 23.6205 11.5544 22.507 11.3298C21.3935 11.1052 20.2394 11.2204 19.1905 11.661C18.1417 12.1015 17.2452 12.8476 16.6145 13.8048C15.9839 14.762 15.6473 15.8874 15.6475 17.0386V20.7987C15.6473 21.9499 15.9839 23.0752 16.6145 24.0325C17.2452 24.9897 18.1417 25.7357 19.1905 26.1763C20.2394 26.6168 21.3935 26.7321 22.507 26.5075C23.6205 26.2828 24.6432 25.7284 25.4459 24.9144L26.623 23.7209C26.9203 23.4179 27.274 23.1777 27.6635 23.0143C28.0531 22.8508 28.4707 22.7673 28.8922 22.7686H37.1631V26.6186H35.8975C35.5618 26.6186 35.2399 26.7538 35.0025 26.9945C34.7652 27.2352 34.6318 27.5616 34.6318 27.902V33.0353C34.6318 33.3757 34.7652 33.7021 35.0025 33.9428C35.2399 34.1834 35.5618 34.3186 35.8975 34.3186H37.1631V36.8853H35.8975C35.5618 36.8853 35.2399 37.0205 35.0025 37.2612C34.7652 37.5019 34.6318 37.8283 34.6318 38.1686V42.0186H33.3662C33.0305 42.0186 32.7086 42.1538 32.4713 42.3945C32.2339 42.6352 32.1006 42.9616 32.1006 43.302V51.002H24.5068V49.7186C24.5068 49.3783 24.3735 49.0518 24.1361 48.8112C23.8988 48.5705 23.5769 48.4353 23.2412 48.4353H18.1787C17.843 48.4353 17.5211 48.5705 17.2838 48.8112C17.0464 49.0518 16.9131 49.3783 16.9131 49.7186V51.002H4.25684C3.92117 51.002 3.59925 51.1372 3.3619 51.3778C3.12455 51.6185 2.99121 51.9449 2.99121 52.2853L2.99121 67.6853C2.99121 68.0257 3.12455 68.3521 3.3619 68.5928C3.59925 68.8334 3.92117 68.9686 4.25684 68.9686H16.9131C16.9131 69.309 17.0464 70.9187 17.2838 71.1594C17.5211 71.4001 17.843 71.5353 18.1787 71.5353H23.2412C23.5769 71.5353 23.8988 71.4001 24.1361 71.1594C24.3735 70.9187 24.5068 70.5923 24.5068 70.252V68.9686H57.4131V70.252C57.4131 70.5923 57.5464 70.9187 57.7838 71.1594C58.0211 71.4001 58.343 71.5353 58.6787 71.5353H63.7412C64.0769 71.5353 64.3988 71.4001 64.6361 71.1594C64.8735 70.9187 65.0068 70.5923 65.0068 70.252V68.9686H77.6631C77.9987 68.9686 78.3207 68.8334 78.558 68.5928C78.7954 68.3521 78.9287 68.0257 78.9287 67.6853V52.2853C78.9287 51.9449 78.7954 51.6185 78.558 51.3778C78.3207 51.1372 77.9987 51.002 77.6631 51.002ZM39.6943 12.502H42.2256V15.0686H39.6943V12.502ZM24.8334 21.9062L23.6563 23.0997C23.2074 23.5543 22.6357 23.8638 22.0133 23.9891C21.391 24.1144 20.7461 24.0498 20.1599 23.8036C19.5737 23.5574 19.0727 23.1405 18.7201 22.6057C18.3675 22.0709 18.1791 21.4421 18.1787 20.7987V17.0386C18.1791 16.3952 18.3675 15.7664 18.7201 15.2316C19.0727 14.6968 19.5737 14.2799 20.1599 14.0337C20.7461 13.7875 21.391 13.7229 22.0133 13.8482C22.6357 13.9734 23.2074 14.2829 23.6563 14.7375L24.8334 15.931C25.3652 16.4732 25.9977 16.9029 26.6944 17.1955C27.3911 17.488 28.1381 17.6375 28.8922 17.6353H51.7621C52.5161 17.6375 53.2632 17.488 53.9599 17.1955C54.6566 16.9029 55.2891 16.4732 55.8209 15.931L56.998 14.7375C57.4469 14.2829 58.0186 13.9734 58.641 13.8482C59.2633 13.7229 59.9082 13.7875 60.4944 14.0337C61.0806 14.2799 61.5816 14.6968 61.9342 15.2316C62.2868 15.7664 62.4752 16.3952 62.4756 17.0386V20.7987C62.4752 21.4421 62.2868 22.0709 61.9342 22.6057C61.5816 23.1405 61.0806 23.5574 60.4944 23.8036C59.9082 24.0498 59.2633 24.1144 58.641 23.9891C58.0186 23.8638 57.4469 23.5543 56.998 23.0997L55.8209 21.9062C55.2891 21.3641 54.6566 20.9343 53.9599 20.6418C53.2632 20.3493 52.5161 20.1998 51.7621 20.202H28.8922C28.1381 20.1998 27.3911 20.3493 26.6944 20.6418C25.9977 20.9343 25.3652 21.3641 24.8334 21.9062ZM39.6943 22.7686H42.2256V26.6186H39.6943V22.7686ZM37.1631 29.1853H44.7568V31.752H37.1631V29.1853ZM39.6943 34.3186H42.2256V36.8853H39.6943V34.3186ZM37.1631 39.452H44.7568V42.0186H37.1631V39.452ZM5.52246 66.402V53.5686H16.9131V66.402H5.52246ZM21.9756 68.9686H19.4443V51.002H21.9756V68.9686ZM24.5068 66.402V53.5686H33.3662C33.7019 53.5686 34.0238 53.4334 34.2611 53.1928C34.4985 52.9521 34.6318 52.6257 34.6318 52.2853V44.5853H47.2881V52.2853C47.2881 52.6257 47.4214 52.9521 47.6588 53.1928C47.8961 53.4334 48.218 53.5686 48.5537 53.5686H57.4131V66.402H24.5068ZM62.4756 68.9686H59.9443V51.002H62.4756V68.9686ZM76.3975 66.402H65.0068V53.5686H76.3975V66.402Z" fill="#F1AC00"/>
<path d="M77.6631 51.3335H65.0068V50.0502C65.0068 49.7098 64.8735 49.3834 64.6361 49.1427C64.3988 48.9021 64.0769 48.7668 63.7412 48.7668H58.6787C58.343 48.7668 58.0211 48.9021 57.7838 49.1427C57.5464 49.3834 57.4131 49.7098 57.4131 50.0502V51.3335H49.8193V43.6335C49.8193 43.2932 49.686 42.9667 49.4486 42.7261C49.2113 42.4854 48.8894 42.3502 48.5537 42.3502H47.2881V38.5002C47.2881 38.1598 47.1547 37.8334 46.9174 37.5927C46.68 37.3521 46.3581 37.2168 46.0225 37.2168H44.7568V34.6502H46.0225C46.3581 34.6502 46.68 34.515 46.9174 34.2743C47.1547 34.0336 47.2881 33.7072 47.2881 33.3668V28.2335C47.2881 27.8932 47.1547 27.5667 46.9174 27.3261C46.68 27.0854 46.3581 26.9502 46.0225 26.9502H44.7568V23.1002H51.7621C52.1836 23.0989 52.6012 23.1824 52.9908 23.3458C53.3803 23.5093 53.734 23.7494 54.0313 24.0524L55.2084 25.2459C56.0111 26.06 57.0338 26.6144 58.1473 26.839C59.2608 27.0636 60.4149 26.9484 61.4638 26.5078C62.5126 26.0673 63.4091 25.3212 64.0397 24.364C64.6704 23.4068 65.007 22.2814 65.0068 21.1303V17.3701C65.007 16.2189 64.6704 15.0936 64.0397 14.1364C63.4091 13.1792 62.5126 12.4331 61.4638 11.9925C60.4149 11.552 59.2608 11.4367 58.1473 11.6614C57.0338 11.886 56.0111 12.4404 55.2084 13.2544L54.0313 14.4479C53.734 14.7509 53.3803 14.9911 52.9908 15.1545C52.6012 15.318 52.1836 15.4015 51.7621 15.4002H44.7568V11.5502C44.7568 11.2098 44.6235 10.8834 44.3861 10.6427C44.1488 10.4021 43.8269 10.2668 43.4912 10.2668H38.4287C38.093 10.2668 37.7711 10.4021 37.5338 10.6427C37.2964 10.8834 37.1631 11.2098 37.1631 11.5502V15.4002H28.8922C28.4707 15.4015 28.0531 15.318 27.6635 15.1545C27.274 14.9911 26.9203 14.7509 26.623 14.4479L25.4459 13.2544C24.6432 12.4404 23.6205 11.886 22.507 11.6614C21.3935 11.4367 20.2394 11.552 19.1905 11.9925C18.1417 12.4331 17.2452 13.1792 16.6145 14.1364C15.9839 15.0936 15.6473 16.2189 15.6475 17.3701V21.1303C15.6473 22.2814 15.9839 23.4068 16.6145 24.364C17.2452 25.3212 18.1417 26.0673 19.1905 26.5078C20.2394 26.9484 21.3935 27.0636 22.507 26.839C23.6205 26.6144 24.6432 26.06 25.4459 25.2459L26.623 24.0524C26.9203 23.7494 27.274 23.5093 27.6635 23.3458C28.0531 23.1824 28.4707 23.0989 28.8922 23.1002H37.1631V26.9502H35.8975C35.5618 26.9502 35.2399 27.0854 35.0025 27.3261C34.7652 27.5667 34.6318 27.8932 34.6318 28.2335V33.3668C34.6318 33.7072 34.7652 34.0336 35.0025 34.2743C35.2399 34.515 35.5618 34.6502 35.8975 34.6502H37.1631V37.2168H35.8975C35.5618 37.2168 35.2399 37.3521 35.0025 37.5927C34.7652 37.8334 34.6318 38.1598 34.6318 38.5002V42.3502H33.3662C33.0305 42.3502 32.7086 42.4854 32.4713 42.7261C32.2339 42.9667 32.1006 43.2932 32.1006 43.6335V51.3335H24.5068V50.0502C24.5068 49.7098 24.3735 49.3834 24.1361 49.1427C23.8988 48.9021 23.5769 48.7668 23.2412 48.7668H18.1787C17.843 48.7668 17.5211 48.9021 17.2838 49.1427C17.0464 49.3834 16.9131 49.7098 16.9131 50.0502V51.3335H4.25684C3.92117 51.3335 3.59925 51.4687 3.3619 51.7094C3.12455 51.9501 2.99121 52.2765 2.99121 52.6168L2.99121 68.0168C2.99121 68.3572 3.12455 68.6836 3.3619 68.9243C3.59925 69.165 3.92117 69.3002 4.25684 69.3002H16.9131C16.9131 69.6405 17.0464 71.2503 17.2838 71.491C17.5211 71.7316 17.843 71.8668 18.1787 71.8668H23.2412C23.5769 71.8668 23.8988 71.7316 24.1361 71.491C24.3735 71.2503 24.5068 70.9239 24.5068 70.5835V69.3002H57.4131V70.5835C57.4131 70.9239 57.5464 71.2503 57.7838 71.491C58.0211 71.7316 58.343 71.8668 58.6787 71.8668H63.7412C64.0769 71.8668 64.3988 71.7316 64.6361 71.491C64.8735 71.2503 65.0068 70.9239 65.0068 70.5835V69.3002H77.6631C77.9987 69.3002 78.3207 69.165 78.558 68.9243C78.7954 68.6836 78.9287 68.3572 78.9287 68.0168V52.6168C78.9287 52.2765 78.7954 51.9501 78.558 51.7094C78.3207 51.4687 77.9987 51.3335 77.6631 51.3335ZM39.6943 12.8335H42.2256V15.4002H39.6943V12.8335ZM24.8334 22.2378L23.6563 23.4313C23.2074 23.8859 22.6357 24.1954 22.0133 24.3206C21.391 24.4459 20.746 24.3814 20.1599 24.1351C19.5737 23.8889 19.0727 23.4721 18.7201 22.9372C18.3675 22.4024 18.1791 21.7736 18.1787 21.1303V17.3701C18.1791 16.7268 18.3675 16.098 18.7201 15.5631C19.0727 15.0283 19.5737 14.6115 20.1599 14.3652C20.746 14.119 21.391 14.0544 22.0133 14.1797C22.6357 14.305 23.2074 14.6145 23.6563 15.0691L24.8334 16.2626C25.3652 16.8047 25.9977 17.2345 26.6944 17.527C27.3911 17.8196 28.1381 17.969 28.8922 17.9668H51.7621C52.5161 17.969 53.2632 17.8196 53.9599 17.527C54.6566 17.2345 55.2891 16.8047 55.8209 16.2626L56.998 15.0691C57.4469 14.6145 58.0186 14.305 58.6409 14.1797C59.2633 14.0544 59.9082 14.119 60.4944 14.3652C61.0805 14.6115 61.5816 15.0283 61.9342 15.5631C62.2868 16.098 62.4752 16.7268 62.4756 17.3701V21.1303C62.4752 21.7736 62.2868 22.4024 61.9342 22.9372C61.5816 23.4721 61.0805 23.8889 60.4944 24.1351C59.9082 24.3814 59.2633 24.4459 58.6409 24.3206C58.0186 24.1954 57.4469 23.8859 56.998 23.4313L55.8209 22.2378C55.2891 21.6957 54.6566 21.2659 53.9599 20.9733C53.2632 20.6808 52.5161 20.5313 51.7621 20.5335H28.8922C28.1381 20.5313 27.3911 20.6808 26.6944 20.9733C25.9977 21.2659 25.3652 21.6957 24.8334 22.2378ZM39.6943 23.1002H42.2256V26.9502H39.6943V23.1002ZM37.1631 29.5168H44.7568V32.0835H37.1631V29.5168ZM39.6943 34.6502H42.2256V37.2168H39.6943V34.6502ZM37.1631 39.7835H44.7568V42.3502H37.1631V39.7835ZM5.52246 66.7335V53.9002H16.9131V66.7335H5.52246ZM21.9756 69.3002H19.4443V51.3335H21.9756V69.3002ZM24.5068 66.7335V53.9002H33.3662C33.7019 53.9002 34.0238 53.765 34.2611 53.5243C34.4985 53.2836 34.6318 52.9572 34.6318 52.6168V44.9168H47.2881V52.6168C47.2881 52.9572 47.4214 53.2836 47.6588 53.5243C47.8961 53.765 48.218 53.9002 48.5537 53.9002H57.4131V66.7335H24.5068ZM62.4756 69.3002H59.9443V51.3335H62.4756V69.3002ZM76.3975 66.7335H65.0068V53.9002H76.3975V66.7335Z" fill="#F1AC00"/>
</g>
<defs>
<clipPath id="clip0">
<rect width="81" height="77" fill="white"/>
</clipPath>
</defs>
</svg>
