<svg width="71" height="66" viewBox="0 0 71 66" fill="none" xmlns="http://www.w3.org/2000/svg">
<path d="M37.4362 13.1857L37.4171 13.1471L37.3891 13.1142L32.0889 6.88118L31.4803 7.1825L33.224 15.1763L33.2331 15.2182L33.2521 15.2567C33.8234 16.4138 35.2243 16.8859 36.3799 16.3141C37.5359 15.742 38.008 14.3413 37.4362 13.1857Z" fill="#F1AC00" stroke="#F1AC00" stroke-width="0.7"/>
<path d="M61.6786 52.1327L61.6763 65.2799L61.6762 65.63H62.0263H69.5471H69.8971V65.28V52.2571C69.915 51.175 69.8135 45.5759 65.8621 41.5241C63.4514 39.0516 60.1087 37.757 56.2196 37.757H50.0508V34.4223V34.0723H49.7008H40.547V28.6772C45.9478 26.5615 49.7913 21.313 49.7913 15.1679C49.7913 7.16249 43.2797 0.65 35.2743 0.65C27.2681 0.65 20.7556 7.16245 20.7556 15.1679C20.7556 21.313 24.5999 26.5614 30 28.6765V34.0723H20.847H20.497V34.4223V37.757H14.3281C10.4391 37.757 7.09644 39.0515 4.68568 41.524C0.734838 45.5745 0.632743 51.1733 0.65145 52.2453V65.28V65.63H1.00145H8.52149H8.87151L8.87149 65.28L8.87072 52.1467C8.87072 52.1433 8.87029 51.344 9.0904 50.3252C9.31201 49.2993 9.7475 48.0971 10.588 47.2462C11.4139 46.4113 12.6152 45.9778 14.3289 45.9778H20.4978V49.3117V49.6617H20.8478H49.7015H50.0515V49.3117V45.9778H56.2204C57.9343 45.9778 59.1356 46.4107 59.9614 47.2463L59.9614 47.2463C60.7973 48.0919 61.2327 49.2901 61.4555 50.3138C61.5659 50.821 61.6218 51.2747 61.6501 51.6032C61.6642 51.7673 61.6713 51.8996 61.6749 51.991C61.6785 52.0826 61.6786 52.1329 61.6786 52.1327ZM61.6786 52.1327V52.1327L62.0286 52.1327M61.6786 52.1327H62.0286M62.0286 52.1327L62.0263 64.93M62.0286 52.1327L62.0263 64.93M62.0263 64.93V65.28L62.3763 65.28V65.28H69.1971H69.5471V64.93V52.2539C69.565 51.196 69.4624 45.7172 65.6115 41.7684L62.0263 64.93ZM24.2202 14.059H22.8354C23.0699 11.4091 24.1307 8.99786 25.7639 7.0806L27.0042 8.32093L27.2564 8.57312L27.5038 8.31623C27.8184 7.98957 28.15 7.6829 28.5008 7.40104L28.805 7.1567L28.5292 6.88077L27.2517 5.60265C29.1735 3.98848 31.5815 2.94559 34.2252 2.72477V4.69167V5.06462L34.5974 5.04097C34.6509 5.03757 34.7029 5.03401 34.7538 5.03052C34.9344 5.01815 35.1014 5.00672 35.2735 5.00672C35.4429 5.00672 35.6067 5.01814 35.7836 5.03046C35.8377 5.03424 35.8931 5.0381 35.9503 5.04174L36.3225 5.06547V4.69245V2.72478C38.9658 2.94561 41.3749 3.98852 43.2969 5.60266L42.0194 6.88077L41.744 7.15634L42.0474 7.40075C42.3983 7.68341 42.7292 7.99016 43.044 8.317L43.2913 8.57383L43.5435 8.32177L44.7845 7.08135C46.4178 8.99925 47.4787 11.4099 47.7132 14.0598H46.3268H45.9301L45.9795 14.4533C46.0358 14.9022 46.0731 15.3514 46.0731 15.8071V16.1571H46.4231H47.7222C47.2149 22.589 41.8338 27.6723 35.2743 27.6723C28.7147 27.6723 23.3321 22.5889 22.8248 16.1563H24.1231H24.4731V15.8063C24.4731 15.3507 24.5104 14.9024 24.5674 14.4531L24.6175 14.059H24.2202ZM6.85576 52.154L6.85651 63.6166H2.66486L2.66492 52.2306L2.6648 52.2242C2.65411 51.6427 2.67352 46.4713 6.12738 42.9301L6.12743 42.93C8.13352 40.8723 10.9595 39.7712 14.3281 39.7712H20.497V43.9644H14.3281C12.1204 43.9644 10.4092 44.5606 9.1548 45.8308L9.40383 46.0768C7.19644 48.3121 7.20498 52.0022 7.20576 52.1521L6.85576 52.1522V52.153C6.85576 52.1533 6.85576 52.1537 6.85576 52.154ZM67.8829 52.2364V52.2422V63.6166H63.692L63.692 52.1368L63.342 52.1351H63.692V52.136C63.6924 52.0371 63.6873 51.0487 63.4036 49.7987C63.1202 48.5498 62.5501 47.002 61.393 45.8301L61.3928 45.8299C60.1378 44.5607 58.4283 43.9637 56.2196 43.9637H50.0508V39.7704H56.2196C59.5875 39.7704 62.4142 40.8715 64.4211 42.9292C67.875 46.472 67.8929 51.6424 67.8829 52.2364ZM50.0508 44.3137H49.7008V43.9637L50.0508 44.3137ZM38.5328 29.6873V34.0731H32.0142V29.6873H38.5328ZM48.0366 47.6483H22.5112V45.6278V38.107V36.0857H30.35H40.197H48.0366V38.107V45.6278V47.6483Z" fill="#F1AC00" stroke="#F1AC00" stroke-width="0.7"/>
</svg>
