<svg width="184" height="129" viewBox="0 0 184 129" fill="none" xmlns="http://www.w3.org/2000/svg">
<path d="M52.3478 55.0013L17.1533 18.5933" stroke="#455A64" stroke-miterlimit="10"/>
<path d="M16.8781 12.0827L16.3843 12.0045L16.8781 12.0827ZM20.2678 8.22283L19.9586 7.8299L20.2678 8.22283ZM24.0707 6.21425L23.6298 6.45006L24.0707 6.21425ZM23.4803 8.99063L23.9006 9.26144L23.4803 8.99063ZM24.0707 7.79193L24.5558 7.9132C24.5577 7.90551 24.5594 7.89777 24.561 7.88999L24.0707 7.79193ZM18.4881 12.7678V13.2678C18.5558 13.2678 18.6228 13.254 18.685 13.2273L18.4881 12.7678ZM17.396 12.6463L17.1724 13.0935C17.205 13.1099 17.2393 13.1226 17.2747 13.1314L17.396 12.6463ZM17.372 12.1609C17.5082 11.3008 17.8056 10.8249 18.2887 10.3714C18.5447 10.1311 18.855 9.89584 19.242 9.61259C19.6235 9.33345 20.0734 9.01199 20.577 8.61577L19.9586 7.8299C19.4728 8.21216 19.0429 8.51914 18.6515 8.80559C18.2656 9.08794 17.9099 9.35541 17.6044 9.64222C16.9644 10.2429 16.5563 10.9183 16.3843 12.0045L17.372 12.1609ZM20.577 8.61577C20.8324 8.41477 21.1707 8.1059 21.5126 7.80287C21.8652 7.49034 22.238 7.16892 22.5944 6.90836C22.963 6.63896 23.2621 6.47424 23.4708 6.42349C23.5685 6.39973 23.6045 6.41169 23.6047 6.41178C23.6049 6.41183 23.6041 6.41156 23.6031 6.41093C23.602 6.41029 23.6019 6.41005 23.6028 6.41093C23.6045 6.4124 23.615 6.42228 23.6298 6.45006L24.5116 5.97843C24.3844 5.74053 24.1917 5.55812 23.9363 5.46835C23.6935 5.38301 23.4471 5.40012 23.2345 5.45181C22.8228 5.55195 22.3897 5.81936 22.0043 6.10105C21.6068 6.39158 21.2039 6.74023 20.8493 7.05449C20.484 7.37825 20.1835 7.65289 19.9586 7.8299L20.577 8.61577ZM23.9006 9.26144C24.163 8.85421 24.4114 8.4907 24.5558 7.9132L23.5856 7.67066C23.4873 8.06405 23.3336 8.29516 23.06 8.71981L23.9006 9.26144ZM24.561 7.88999C24.663 7.38009 24.9086 6.72066 24.5116 5.97843L23.6298 6.45006C23.814 6.79442 23.7212 6.99017 23.5804 7.69387L24.561 7.88999ZM18.4881 12.2678C18.3713 12.2678 17.9388 12.2667 17.5172 12.1613L17.2747 13.1314C17.824 13.2687 18.3622 13.2678 18.4881 13.2678V12.2678ZM17.6196 12.1991C17.5696 12.1741 17.5199 12.1468 17.4747 12.1183C17.4287 12.0892 17.3942 12.0629 17.3708 12.0413C17.3458 12.0183 17.3467 12.0127 17.3545 12.0279C17.3649 12.0485 17.382 12.0974 17.372 12.1609L16.3843 12.0045C16.3251 12.3782 16.5514 12.6461 16.6928 12.7765C16.8482 12.9198 17.0365 13.0256 17.1724 13.0935L17.6196 12.1991ZM23.06 8.71981C22.3713 9.78869 21.9466 10.0646 20.9794 10.7901L21.5794 11.5901C22.5539 10.8592 23.1072 10.4928 23.9006 9.26144L23.06 8.71981ZM20.9794 10.7901C20.0513 11.4861 19.1193 11.9533 18.2911 12.3082L18.685 13.2273C19.5559 12.8541 20.5656 12.3504 21.5794 11.5901L20.9794 10.7901Z" fill="#455A64"/>
<path d="M17.5177 7.79192L17.8339 8.17919L17.5177 7.79192ZM27.4807 1.19537L27.2407 0.756712V0.756712L27.4807 1.19537ZM22.1294 4.39399L22.3998 4.81459L22.401 4.81378L22.1294 4.39399ZM24.3138 11.7967L23.931 11.4752L24.3138 11.7967ZM16.5468 19.1998L16.8629 19.5872L16.8654 19.5852L16.5468 19.1998ZM9.50797 21.9912L9.60729 21.5012L9.50797 21.9912ZM6.71665 19.4426L6.22345 19.5248L6.22345 19.5248L6.71665 19.4426ZM7.32345 21.0203L7.68797 20.6781L7.32345 21.0203ZM8.29432 21.6271L8.09973 22.0877L8.11125 22.0926L8.12299 22.0969L8.29432 21.6271ZM29.1683 0.995691L29.0001 1.46658L29.1683 0.995691ZM30.1391 2.81633L29.6435 2.75051L30.1391 2.81633ZM30.1391 2.20953L29.6455 2.28911L30.1391 2.20953ZM27.2407 0.756712C25.0098 1.97709 23.9297 2.63353 21.8578 3.97421L22.401 4.81378C24.4553 3.48454 25.5142 2.84104 27.7206 1.63403L27.2407 0.756712ZM21.859 3.97341C20.1392 5.07896 18.9436 5.982 17.2014 7.40464L17.8339 8.17919C19.5572 6.77195 20.7214 5.89351 22.3998 4.81458L21.859 3.97341ZM24.6967 12.1183C25.9343 10.6447 27.2826 8.68217 28.3312 7.06808C29.3741 5.46281 30.1468 4.16148 30.2223 4.01058L29.3278 3.56337C29.3279 3.5633 29.3169 3.58371 29.2869 3.63607C29.2597 3.68332 29.2223 3.74752 29.175 3.82739C29.0807 3.98696 28.949 4.20625 28.7863 4.47245C28.4609 5.00482 28.0128 5.72274 27.4927 6.52328C26.4497 8.1286 25.1281 10.0496 23.931 11.4752L24.6967 12.1183ZM16.5468 19.1998C16.8654 19.5852 16.8654 19.5851 16.8655 19.5851C16.8655 19.585 16.8656 19.585 16.8657 19.5849C16.8659 19.5847 16.8662 19.5845 16.8665 19.5842C16.8672 19.5837 16.8681 19.5829 16.8694 19.5818C16.872 19.5797 16.8758 19.5766 16.8807 19.5724C16.8906 19.5642 16.9053 19.552 16.9245 19.5361C16.9628 19.5042 17.0191 19.4571 17.0916 19.3962C17.2367 19.2743 17.4465 19.0969 17.7067 18.8741C18.2268 18.4286 18.9485 17.8011 19.7549 17.0727C21.3629 15.6202 23.3261 13.7504 24.6967 12.1183L23.931 11.4752C22.6068 13.0519 20.6864 14.8837 19.0846 16.3306C18.2861 17.0518 17.5713 17.6734 17.0562 18.1146C16.7987 18.3351 16.5912 18.5105 16.4483 18.6305C16.3769 18.6905 16.3216 18.7367 16.2843 18.7678C16.2657 18.7833 16.2515 18.7951 16.2421 18.8029C16.2374 18.8069 16.2338 18.8098 16.2315 18.8117C16.2303 18.8127 16.2295 18.8134 16.2289 18.8139C16.2286 18.8141 16.2284 18.8143 16.2283 18.8144C16.2282 18.8144 16.2282 18.8145 16.2282 18.8145C16.2281 18.8145 16.2281 18.8145 16.5468 19.1998ZM9.40866 22.4812C10.2429 22.6503 11.1334 22.5292 11.9716 22.2825C12.8139 22.0346 13.6379 21.6497 14.3558 21.2535C15.0753 20.8564 15.6997 20.4415 16.1439 20.1263C16.3663 19.9685 16.5444 19.8351 16.6676 19.7405C16.7292 19.6932 16.7772 19.6556 16.8102 19.6294C16.8267 19.6164 16.8394 19.6062 16.8482 19.5991C16.8527 19.5955 16.8561 19.5927 16.8586 19.5907C16.8598 19.5897 16.8607 19.589 16.8615 19.5884C16.8618 19.5881 16.8621 19.5878 16.8624 19.5876C16.8625 19.5875 16.8626 19.5874 16.8627 19.5874C16.8628 19.5873 16.8629 19.5872 16.5468 19.1998C16.2307 18.8124 16.2307 18.8124 16.2308 18.8123C16.2308 18.8123 16.2308 18.8123 16.2308 18.8123C16.2308 18.8123 16.2307 18.8124 16.2306 18.8125C16.2303 18.8127 16.2297 18.8132 16.229 18.8138C16.2274 18.8151 16.2249 18.8171 16.2214 18.8199C16.2143 18.8256 16.2035 18.8343 16.1889 18.8458C16.1598 18.8689 16.116 18.9033 16.0588 18.9472C15.9442 19.0351 15.7762 19.161 15.5652 19.3108C15.1423 19.6108 14.5505 20.0039 13.8726 20.378C13.193 20.7531 12.4385 21.1027 11.6893 21.3232C10.936 21.5448 10.2222 21.6258 9.60729 21.5012L9.40866 22.4812ZM6.22345 19.5248C6.28012 19.8648 6.32581 20.1905 6.42118 20.4803C6.52558 20.7975 6.68657 21.0724 6.95892 21.3625L7.68797 20.6781C7.50849 20.4869 7.42677 20.337 7.37106 20.1677C7.30633 19.971 7.27453 19.7485 7.20984 19.3604L6.22345 19.5248ZM9.60729 21.5012C9.39404 21.4579 9.113 21.3744 8.87351 21.2967C8.75632 21.2587 8.65361 21.2236 8.58032 21.1981C8.54373 21.1853 8.51461 21.175 8.49484 21.1679C8.48497 21.1644 8.47744 21.1617 8.47249 21.1599C8.47001 21.159 8.46819 21.1583 8.46704 21.1579C8.46646 21.1577 8.46606 21.1576 8.46582 21.1575C8.46571 21.1574 8.46563 21.1574 8.4656 21.1574C8.46559 21.1574 8.46559 21.1574 8.46559 21.1574C8.4656 21.1574 8.46561 21.1574 8.46561 21.1574C8.46563 21.1574 8.46565 21.1574 8.29432 21.6271C8.12299 22.0969 8.12301 22.0969 8.12304 22.0969C8.12305 22.0969 8.12308 22.0969 8.12311 22.0969C8.12316 22.0969 8.12322 22.097 8.1233 22.097C8.12344 22.097 8.12364 22.0971 8.12387 22.0972C8.12434 22.0974 8.12499 22.0976 8.12581 22.0979C8.12744 22.0985 8.12977 22.0993 8.13275 22.1004C8.13871 22.1026 8.14731 22.1057 8.15831 22.1096C8.18029 22.1174 8.21188 22.1286 8.25118 22.1423C8.32968 22.1697 8.43945 22.2072 8.56505 22.2479C8.81115 22.3277 9.13694 22.4262 9.40866 22.4812L9.60729 21.5012ZM8.29432 21.6271C8.4889 21.1666 8.48896 21.1666 8.48901 21.1666C8.48902 21.1666 8.48907 21.1666 8.4891 21.1666C8.48916 21.1667 8.4892 21.1667 8.48924 21.1667C8.48931 21.1667 8.48934 21.1667 8.48933 21.1667C8.48932 21.1667 8.48915 21.1667 8.48883 21.1665C8.48819 21.1663 8.48695 21.1657 8.48514 21.1649C8.48151 21.1634 8.47559 21.1608 8.46765 21.1573C8.45173 21.1502 8.42777 21.1394 8.39769 21.1253C8.33724 21.097 8.25372 21.0562 8.16215 21.0065C7.96521 20.8996 7.78291 20.7792 7.68797 20.6781L6.95892 21.3625C7.17001 21.5874 7.47315 21.7703 7.68515 21.8854C7.79803 21.9467 7.89985 21.9964 7.97362 22.031C8.01066 22.0483 8.04102 22.062 8.06266 22.0716C8.07349 22.0764 8.08216 22.0802 8.08841 22.0829C8.09154 22.0842 8.09407 22.0853 8.09597 22.0861C8.09692 22.0865 8.09771 22.0869 8.09834 22.0871C8.09865 22.0873 8.09892 22.0874 8.09916 22.0875C8.09927 22.0875 8.09938 22.0876 8.09947 22.0876C8.09952 22.0876 8.09959 22.0877 8.09961 22.0877C8.09967 22.0877 8.09973 22.0877 8.29432 21.6271ZM27.7206 1.63403C27.8575 1.55917 28.103 1.48249 28.3784 1.44619C28.6609 1.40894 28.8864 1.42595 29.0001 1.46658L29.3364 0.524806C29.0038 0.406064 28.5934 0.409194 28.2477 0.454765C27.8948 0.501281 27.5197 0.604126 27.2407 0.756712L27.7206 1.63403ZM29.0001 1.46658C29.1978 1.53717 29.3576 1.64944 29.4215 1.71331L30.1286 1.0062C29.9497 0.827347 29.6592 0.640064 29.3364 0.524806L29.0001 1.46658ZM30.2223 4.01058C30.3265 3.80202 30.5678 3.38668 30.6348 2.88215L29.6435 2.75051C29.6039 3.04863 29.4663 3.28648 29.3278 3.56337L30.2223 4.01058ZM30.6348 2.88215C30.6702 2.61524 30.6805 2.42592 30.6328 2.12994L29.6455 2.28911C29.6732 2.46103 29.6704 2.5476 29.6435 2.75051L30.6348 2.88215ZM29.4215 1.71331C29.413 1.70477 29.4238 1.71422 29.449 1.75535C29.4716 1.79215 29.4982 1.84186 29.525 1.90153C29.5797 2.02309 29.6251 2.1628 29.6455 2.28911L30.6328 2.12994C30.5957 1.89982 30.5198 1.67532 30.4371 1.49145C30.3604 1.32094 30.2539 1.1315 30.1286 1.0062L29.4215 1.71331ZM7.20984 19.3604C7.20162 19.3111 7.21354 19.1533 7.35819 18.8437C7.49408 18.5527 7.71529 18.1938 8.01824 17.7753C8.62282 16.9401 9.51277 15.922 10.5728 14.8205C12.6903 12.6203 15.4437 10.1311 17.8339 8.17919L17.2014 7.40464C14.7861 9.377 12.0023 11.8931 9.85231 14.1271C8.77865 15.2427 7.85231 16.2991 7.20819 17.1889C6.88679 17.633 6.62555 18.0493 6.45216 18.4204C6.28753 18.7729 6.16334 19.1641 6.22345 19.5248L7.20984 19.3604Z" fill="#455A64"/>
<path d="M50.77 56.2148L15.6162 20.0979" stroke="#455A64" stroke-miterlimit="10" stroke-linecap="round" stroke-linejoin="round"/>
<path d="M8.17285 12.0396L10.1322 14.3255" stroke="#455A64" stroke-miterlimit="10" stroke-linecap="round" stroke-linejoin="round"/>
<path d="M46.8867 77.0885L58.6586 64.2244" stroke="#455A64" stroke-miterlimit="10"/>
<path d="M47.8574 78.0596L60.1148 68.4722" stroke="#455A64" stroke-miterlimit="10"/>
<path d="M58.6582 64.2244L60.1145 68.472" stroke="#455A64" stroke-miterlimit="10" stroke-linecap="round" stroke-linejoin="round"/>
<path d="M84.3874 73.2053H83.1738" stroke="#455A64" stroke-miterlimit="10" stroke-linecap="round" stroke-linejoin="round"/>
<path d="M84.3867 73.2053V70.4141" stroke="#455A64" stroke-miterlimit="10"/>
<path d="M82.5664 111.069L84.3868 104.273" stroke="#455A64" stroke-miterlimit="10" stroke-linecap="round" stroke-linejoin="round"/>
<path d="M84.1441 111.676L82.5664 111.07" stroke="#455A64" stroke-miterlimit="10" stroke-linecap="round" stroke-linejoin="round"/>
<path d="M81.3594 116.205C81.6021 115.476 82.0818 114.832 82.5672 113.982C83.0526 113.133 83.6594 112.404 84.1449 111.798" stroke="#455A64" stroke-miterlimit="10" stroke-linecap="round" stroke-linejoin="round"/>
<path d="M177.956 112.647C178.441 113.375 178.927 113.982 179.534 114.832C180.141 115.681 180.626 116.531 181.111 117.259" stroke="#455A64" stroke-miterlimit="10" stroke-linecap="round" stroke-linejoin="round"/>
<path d="M179.412 112.041L177.956 112.647" stroke="#455A64" stroke-miterlimit="10" stroke-linecap="round" stroke-linejoin="round"/>
<path d="M178.198 106.215L179.412 112.04" stroke="#455A64" stroke-miterlimit="10" stroke-linecap="round" stroke-linejoin="round"/>
<path d="M182.81 101.492C182.81 102.649 182.743 103.865 181.894 104.31" stroke="#455A64" stroke-miterlimit="10"/>
<path d="M90.9485 123.169L91.1547 122.713L90.9485 123.169ZM85.7215 120.05L86.0339 119.66C86.0268 119.654 86.0195 119.649 86.0121 119.643L85.7215 120.05ZM81.7061 115.935C81.5108 115.739 81.1942 115.739 80.999 115.935C80.8037 116.13 80.8037 116.446 80.999 116.642L81.7061 115.935ZM106.595 126.482L106.521 126.977C106.532 126.978 106.543 126.98 106.554 126.98L106.595 126.482ZM98.8284 125.269L98.7265 125.758C98.7319 125.759 98.7373 125.76 98.7428 125.761L98.8284 125.269ZM154.775 126.846L154.831 127.343L154.775 126.846ZM163.756 125.633L163.832 126.127L163.845 126.125L163.756 125.633ZM171.061 123.707L170.866 123.247L171.061 123.707ZM181.302 117.649C181.517 117.477 181.552 117.162 181.38 116.946C181.207 116.731 180.892 116.696 180.677 116.868L181.302 117.649ZM176.984 120.293L176.707 119.877L176.696 119.884L176.984 120.293ZM91.1547 122.713C88.9654 121.722 87.813 121.083 86.0339 119.66L85.4092 120.441C87.2708 121.93 88.5005 122.61 90.7423 123.624L91.1547 122.713ZM86.0121 119.643C84.3434 118.451 82.9085 117.137 81.7061 115.935L80.999 116.642C82.2238 117.866 83.7016 119.222 85.4309 120.457L86.0121 119.643ZM106.67 125.988C104.238 125.623 101.698 125.26 98.9141 124.776L98.7428 125.761C101.541 126.248 104.098 126.613 106.521 126.977L106.67 125.988ZM98.9304 124.779C95.9711 124.163 93.9691 123.987 91.1547 122.713L90.7423 123.624C93.6883 124.958 95.8605 125.161 98.7265 125.758L98.9304 124.779ZM154.831 127.343C158.357 126.947 160.673 126.613 163.832 126.127L163.68 125.139C160.529 125.623 158.227 125.955 154.72 126.349L154.831 127.343ZM163.845 126.125C166.507 125.641 168.474 125.343 171.256 124.168L170.866 123.247C168.203 124.372 166.345 124.654 163.667 125.141L163.845 126.125ZM180.677 116.868C179.456 117.845 178.141 118.921 176.707 119.877L177.262 120.709C178.74 119.723 180.095 118.615 181.302 117.649L180.677 116.868ZM176.696 119.884C174.645 121.332 173.313 122.213 170.866 123.247L171.256 124.168C173.798 123.094 175.197 122.166 177.273 120.701L176.696 119.884ZM106.595 126.482C106.554 126.98 106.554 126.98 106.554 126.981C106.554 126.981 106.555 126.981 106.555 126.981C106.556 126.981 106.558 126.981 106.559 126.981C106.563 126.981 106.569 126.982 106.576 126.982C106.59 126.983 106.612 126.985 106.64 126.988C106.697 126.992 106.781 126.999 106.891 127.008C107.113 127.025 107.439 127.051 107.861 127.083C108.706 127.146 109.932 127.234 111.462 127.334C114.521 127.532 118.796 127.775 123.655 127.952C133.368 128.306 145.443 128.398 154.831 127.343L154.72 126.349C145.409 127.396 133.395 127.306 123.692 126.953C118.844 126.776 114.579 126.534 111.527 126.336C110 126.237 108.777 126.149 107.936 126.085C107.516 126.054 107.191 126.028 106.971 126.011C106.861 126.002 106.777 125.995 106.721 125.991C106.693 125.989 106.672 125.987 106.658 125.986C106.651 125.985 106.646 125.985 106.642 125.984C106.641 125.984 106.639 125.984 106.638 125.984C106.638 125.984 106.638 125.984 106.637 125.984C106.637 125.984 106.637 125.984 106.595 126.482Z" fill="#455A64"/>
<path d="M84.1445 115.074L177.956 115.681" stroke="#455A64" stroke-miterlimit="10" stroke-linecap="round" stroke-linejoin="round"/>
<path d="M158.417 109.613H172.373" stroke="#455A64" stroke-miterlimit="10" stroke-linecap="round" stroke-linejoin="round"/>
<path d="M84.1445 111.676L177.956 112.647" stroke="#455A64" stroke-miterlimit="10" stroke-linecap="round" stroke-linejoin="round"/>
<path d="M182.203 76.8462L182.81 101.604" stroke="#455A64" stroke-miterlimit="10"/>
<path d="M117.154 71.6274V91.4091" stroke="#455A64" stroke-miterlimit="10" stroke-linecap="round" stroke-linejoin="round"/>
<path d="M131.596 52.2324L117.154 71.6275" stroke="#455A64" stroke-miterlimit="10" stroke-linecap="round" stroke-linejoin="round"/>
<path d="M162.559 52.4385L131.945 52.2883" stroke="#455A64" stroke-miterlimit="10" stroke-linecap="round" stroke-linejoin="round"/>
<path d="M166.788 81.215L166.551 56.8218" stroke="#455A64" stroke-miterlimit="10" stroke-linecap="round" stroke-linejoin="round"/>
<path d="M162.543 52.4526L166.548 56.8216" stroke="#455A64" stroke-miterlimit="10" stroke-linecap="round" stroke-linejoin="round"/>
<path d="M182.203 76.846L182.567 51.239" stroke="#455A64" stroke-miterlimit="10"/>
<path d="M182.569 51.3979C182.569 50.393 182.637 48.773 182.569 47.0934C182.341 41.4249 180.99 34.7339 180.019 32.7922C179.291 31.3359 178.077 29.1514 175.529 26.9669C175.529 26.9669 172.495 24.661 170.31 24.1756C165.436 23.0924 153.562 23.3261 134.023 23.8115" stroke="#455A64" stroke-miterlimit="10"/>
<path d="M130.989 8.03467L131.353 25.996" stroke="#455A64" stroke-miterlimit="10"/>
<path d="M133.538 7.79197C133.538 7.37817 132.896 6.73249 131.987 6.88402C131.395 6.98258 130.989 7.68509 130.989 8.15605" stroke="#455A64" stroke-miterlimit="10" stroke-linecap="round" stroke-linejoin="round"/>
<path d="M134.145 26.6028L133.538 7.79199" stroke="#455A64" stroke-miterlimit="10"/>
<path d="M131.354 25.9961C131.354 26.6029 131.589 27.2844 132.249 27.6289C132.909 27.9734 134.145 27.4566 134.145 26.6029" stroke="#455A64" stroke-miterlimit="10" stroke-linecap="round" stroke-linejoin="round"/>
<path d="M84.9368 66.3146L85.4147 66.4617L85.4157 66.4583L84.9368 66.3146ZM93.6984 50.6143L94.1157 50.8897L93.6984 50.6143ZM121.483 24.6142L121.538 25.1111L121.483 24.6142ZM106.992 33.1665L107.34 33.5258L107.346 33.5201L106.992 33.1665ZM85.8894 63.0151C85.5385 63.6622 84.8398 64.8979 84.4579 66.171L85.4157 66.4583C85.7619 65.3042 86.4031 64.1657 86.7685 63.4918L85.8894 63.0151ZM84.4589 66.1676C83.9525 67.8134 83.8857 69.0144 83.8857 70.5943H84.8857C84.8857 69.0597 84.9502 67.9713 85.4147 66.4617L84.4589 66.1676ZM98.0063 43.307C96.4188 45.7493 94.9719 47.7771 93.2811 50.3389L94.1157 50.8897C95.7601 48.3982 97.2769 46.2641 98.8448 43.852L98.0063 43.307ZM93.2811 50.3389C92.5671 51.4207 91.9166 52.5259 91.2706 53.635C90.6228 54.7473 89.9804 55.8621 89.2742 56.981L90.1198 57.5147C90.8378 56.3773 91.4906 55.2443 92.1348 54.1383C92.7807 53.0292 93.4188 51.9458 94.1157 50.8897L93.2811 50.3389ZM86.2458 63.4134C86.6896 63.6436 86.6896 63.6436 86.6897 63.6436C86.6897 63.6435 86.6897 63.6435 86.6897 63.6435C86.6898 63.6433 86.6899 63.6432 86.69 63.643C86.6902 63.6425 86.6906 63.6418 86.691 63.6409C86.692 63.6391 86.6934 63.6363 86.6953 63.6327C86.6991 63.6253 86.7048 63.6143 86.7124 63.5999C86.7274 63.5709 86.7498 63.5281 86.7787 63.4728C86.8366 63.362 86.921 63.2011 87.0268 63.0009C87.2384 62.6005 87.5354 62.0431 87.8766 61.4156C88.5607 60.1575 89.417 58.6282 90.1198 57.5147L89.2742 56.981C88.5529 58.1237 87.6836 59.6772 86.9981 60.9379C86.6545 61.5697 86.3557 62.1307 86.1427 62.5337C86.0362 62.7353 85.9511 62.8975 85.8926 63.0093C85.8633 63.0653 85.8407 63.1086 85.8254 63.1381C85.8177 63.1528 85.8119 63.164 85.8079 63.1716C85.806 63.1754 85.8045 63.1783 85.8035 63.1802C85.803 63.1812 85.8026 63.182 85.8023 63.1825C85.8022 63.1827 85.8021 63.1829 85.802 63.183C85.802 63.1831 85.8019 63.1832 85.8019 63.1832C85.8019 63.1832 85.8019 63.1833 86.2458 63.4134ZM114.634 27.6302C115.91 26.6228 118.517 25.4468 121.538 25.1111L121.428 24.1173C118.247 24.4706 115.457 25.7062 114.015 26.8454L114.634 27.6302ZM121.538 25.1111C124.31 24.8032 127.583 24.7974 131.369 24.6753L131.337 23.6758C127.599 23.7964 124.251 23.8035 121.428 24.1173L121.538 25.1111ZM114.066 26.807C111.777 28.4941 109.221 30.2308 106.639 32.8129L107.346 33.5201C109.861 31.0051 112.337 29.3231 114.66 27.6121L114.066 26.807ZM106.645 32.8072C102.849 36.4801 100.003 40.263 97.9249 43.4409L98.7619 43.9881C100.81 40.8553 103.611 37.1345 107.34 33.5258L106.645 32.8072Z" fill="#455A64"/>
<path d="M171.402 77.6956V50.6323" stroke="#455A64" stroke-miterlimit="10" stroke-linecap="round" stroke-linejoin="round"/>
<path d="M83.1738 103.667H82.6738V103.971L82.9435 104.11L83.1738 103.667ZM92.7613 108.642L92.5309 109.086L92.634 109.14L92.7502 109.142L92.7613 108.642ZM178.199 106.215L177.97 105.771L177.958 105.777L177.947 105.783L178.199 106.215ZM109.145 109.006L109.134 109.506L109.363 109.511L109.517 109.34L109.145 109.006ZM113.392 104.273V103.773H113.169L113.02 103.939L113.392 104.273ZM152.349 104.273L152.679 103.898L152.538 103.773H152.349V104.273ZM95.1885 73.2053L95.6226 72.9573L95.4786 72.7053H95.1885V73.2053ZM99.5573 80.851L99.1232 81.0991L99.1777 81.1944L99.267 81.2581L99.5573 80.851ZM114.363 91.4091L114.073 91.8162L114.202 91.9081L114.36 91.9091L114.363 91.4091ZM152.349 91.652L152.346 92.152L152.508 92.1531L152.639 92.0591L152.349 91.652ZM171.403 78.0597V77.5597C171.298 77.5597 171.197 77.5922 171.112 77.6527L171.403 78.0597ZM181.597 78.5597C181.873 78.5597 182.097 78.3359 182.097 78.0597C182.097 77.7836 181.873 77.5597 181.597 77.5597V78.5597ZM92.9916 108.199L83.4041 103.223L82.9435 104.11L92.5309 109.086L92.9916 108.199ZM181.732 103.829L177.97 105.771L178.428 106.659L182.19 104.718L181.732 103.829ZM109.517 109.34L113.764 104.607L113.02 103.939L108.773 108.672L109.517 109.34ZM152.349 103.773H113.392V104.773H152.349V103.773ZM158.747 109.238L152.679 103.898L152.019 104.649L158.087 109.989L158.747 109.238ZM177.947 105.783L172.122 109.181L172.625 110.045L178.451 106.647L177.947 105.783ZM109.156 108.507L92.7724 108.142L92.7502 109.142L109.134 109.506L109.156 108.507ZM95.1885 72.7053H84.3874V73.7053H95.1885V72.7053ZM99.9915 80.6029L95.6226 72.9573L94.7543 73.4534L99.1232 81.0991L99.9915 80.6029ZM114.654 91.002L99.8476 80.4439L99.267 81.2581L114.073 91.8162L114.654 91.002ZM152.352 91.152L114.367 90.9091L114.36 91.9091L152.346 92.152L152.352 91.152ZM171.112 77.6527L152.059 91.245L152.639 92.0591L171.693 78.4668L171.112 77.6527ZM181.597 77.5597H171.403V78.5597H181.597V77.5597ZM82.6738 73.2053V103.667H83.6738V73.2053H82.6738Z" fill="#455A64"/>
<path d="M135.977 121.839C135.856 122.325 135.492 122.568 135.37 122.81C134.642 123.417 133.428 123.781 131.244 123.781C131.244 123.781 127.603 123.781 126.511 122.568C126.39 122.446 126.268 122.204 126.147 121.961C126.025 121.354 126.632 120.869 126.754 120.747C127.482 120.019 128.574 120.14 131.244 120.14C134.157 120.14 135.249 120.019 135.734 120.747C135.734 120.626 136.098 121.233 135.977 121.839Z" stroke="#455A64" stroke-miterlimit="10" stroke-linecap="round" stroke-linejoin="round"/>
<path d="M156.973 122.325C156.852 123.296 154.91 123.902 153.575 123.902C152.24 123.902 150.298 123.296 150.177 122.325C150.055 121.839 150.419 121.475 150.541 121.354C150.784 121.111 151.148 120.747 153.575 120.747C156.002 120.747 156.487 121.111 156.609 121.354C156.73 121.475 156.973 121.839 156.973 122.325Z" stroke="#455A64" stroke-miterlimit="10" stroke-linecap="round" stroke-linejoin="round"/>
<path d="M112.19 121.718C111.826 122.81 110.127 123.296 108.792 123.296C107.457 123.296 105.515 122.81 105.394 121.718C105.272 121.232 105.636 120.868 105.758 120.747C106.243 120.019 107.335 120.019 108.792 120.14C110.369 120.14 111.947 120.262 112.19 121.111C112.311 121.354 112.19 121.597 112.19 121.718Z" stroke="#455A64" stroke-miterlimit="10" stroke-linecap="round" stroke-linejoin="round"/>
<path d="M45.5522 81.579C46.8927 81.579 47.9794 80.4923 47.9794 79.1518C47.9794 77.8113 46.8927 76.7246 45.5522 76.7246C44.2117 76.7246 43.125 77.8113 43.125 79.1518C43.125 80.4923 44.2117 81.579 45.5522 81.579Z" stroke="#455A64" stroke-miterlimit="10"/>
<path d="M1.49973 17.865L1.16782 17.491L1.1567 17.5009L1.14618 17.5114L1.49973 17.865ZM1.49982 19.8068L1.09982 20.1068L1.11728 20.1301L1.13734 20.1512L1.49982 19.8068ZM9.50797 11.4328L9.44013 10.9374L9.50797 11.4328ZM1.49973 17.865C1.83165 18.2389 1.83167 18.2389 1.83172 18.2388C1.83177 18.2388 1.83185 18.2387 1.83195 18.2386C1.83215 18.2384 1.83246 18.2382 1.83286 18.2378C1.83368 18.2371 1.8349 18.236 1.83651 18.2346C1.83975 18.2317 1.84458 18.2274 1.85095 18.2218C1.8637 18.2104 1.88263 18.1937 1.90734 18.1717C1.95675 18.1279 2.02927 18.0636 2.12165 17.9817C2.30643 17.8178 2.57069 17.5837 2.88856 17.3022C3.52433 16.7394 4.37445 15.9878 5.23207 15.2324C6.08988 14.4769 6.9544 13.7183 7.61927 13.1414C7.95193 12.8527 8.2332 12.6107 8.43818 12.4377C8.54097 12.3509 8.62241 12.2833 8.68062 12.2364C8.71002 12.2128 8.73068 12.1967 8.74379 12.1868C8.76999 12.1672 8.74844 12.186 8.7091 12.2056L8.26189 11.3112C8.20737 11.3385 8.15796 11.3762 8.14441 11.3864C8.11777 11.4063 8.08679 11.4307 8.05346 11.4575C7.98624 11.5117 7.89791 11.5851 7.79309 11.6736C7.58285 11.8511 7.29751 12.0966 6.96387 12.3861C6.29615 12.9655 5.42941 13.726 4.57112 14.482C3.71264 15.2381 2.86183 15.9903 2.2257 16.5535C1.90761 16.8351 1.64317 17.0694 1.45824 17.2334C1.36577 17.3154 1.29318 17.3798 1.2437 17.4237C1.21896 17.4456 1.2 17.4625 1.18722 17.4738C1.18083 17.4795 1.17598 17.4838 1.17273 17.4867C1.17111 17.4881 1.16988 17.4892 1.16906 17.4899C1.16865 17.4903 1.16834 17.4905 1.16813 17.4907C1.16803 17.4908 1.16795 17.4909 1.1679 17.4909C1.16785 17.491 1.16782 17.491 1.49973 17.865ZM43.4871 63.2734L1.8623 19.4624L1.13734 20.1512L42.7622 63.9622L43.4871 63.2734ZM8.7091 12.2056C8.9218 12.0993 9.23242 11.9752 9.5758 11.9282L9.44013 10.9374C8.95314 11.0041 8.53463 11.1748 8.26189 11.3112L8.7091 12.2056ZM9.5758 11.9282C9.85777 11.8896 10.0417 11.8849 10.3544 11.9637L10.5987 10.994C10.1329 10.8766 9.81554 10.886 9.44013 10.9374L9.5758 11.9282ZM1.14618 17.5114C0.948978 17.7086 0.635742 18.1945 0.635742 18.8359H1.63574C1.63574 18.6768 1.6756 18.5348 1.72745 18.4207C1.78154 18.3017 1.83999 18.2318 1.85329 18.2185L1.14618 17.5114ZM0.635742 18.8359C0.635742 19.0232 0.649382 19.5062 1.09982 20.1068L1.89982 19.5068C1.75501 19.3137 1.69229 19.1584 1.66363 19.0533C1.63541 18.9498 1.63574 18.8802 1.63574 18.8359H0.635742ZM10.3544 11.9637C10.3078 11.9519 10.304 11.9385 10.356 11.9765C10.3982 12.0073 10.4543 12.0551 10.5232 12.1209C10.6603 12.252 10.8179 12.4258 10.9714 12.6058C11.1234 12.7841 11.2646 12.9605 11.3682 13.093C11.4198 13.1591 11.4618 13.2137 11.4907 13.2516C11.5051 13.2706 11.5163 13.2853 11.5237 13.2952C11.5274 13.3001 11.5302 13.3038 11.532 13.3062C11.5329 13.3074 11.5335 13.3083 11.5339 13.3088C11.5341 13.3091 11.5343 13.3093 11.5344 13.3094C11.5344 13.3094 11.5344 13.3095 11.5344 13.3095C11.5344 13.3095 11.5344 13.3095 11.5344 13.3095C11.5344 13.3094 11.5344 13.3094 11.9352 13.0105C12.336 12.7115 12.3359 12.7115 12.3359 12.7115C12.3359 12.7114 12.3359 12.7114 12.3358 12.7113C12.3358 12.7113 12.3357 12.7112 12.3356 12.711C12.3354 12.7108 12.3352 12.7105 12.3348 12.71C12.3342 12.7092 12.3333 12.708 12.3322 12.7065C12.3299 12.7035 12.3267 12.6991 12.3224 12.6935C12.314 12.6823 12.3018 12.6662 12.2862 12.6457C12.2551 12.6049 12.2105 12.5468 12.1558 12.4769C12.0468 12.3375 11.8963 12.1494 11.7323 11.957C11.5698 11.7664 11.3871 11.5634 11.2142 11.3981C11.1281 11.3158 11.0368 11.2355 10.946 11.1691C10.865 11.1099 10.7427 11.0302 10.5987 10.994L10.3544 11.9637Z" fill="#455A64"/>
<path d="M121.931 65.1824L124.8 57.0645" stroke="#455A64" stroke-miterlimit="10" stroke-linecap="round" stroke-linejoin="round"/>
<path d="M115.94 67.6226H120.004" stroke="#455A64" stroke-miterlimit="10" stroke-linecap="round" stroke-linejoin="round"/>
<path d="M106.96 79.6372L115.941 67.6226" stroke="#455A64" stroke-miterlimit="10" stroke-linecap="round" stroke-linejoin="round"/>
<path d="M106.96 71.2634V86.0694" stroke="#455A64" stroke-miterlimit="10" stroke-linecap="round" stroke-linejoin="round"/>
<path d="M104.533 67.6226V71.2634" stroke="#455A64" stroke-miterlimit="10" stroke-linecap="round" stroke-linejoin="round"/>
<path d="M96.1592 67.6226H104.533" stroke="#455A64" stroke-miterlimit="10" stroke-linecap="round" stroke-linejoin="round"/>
<path d="M118.178 52.0398L117.708 52.2105L118.178 52.0398ZM121.815 55.8936L121.59 56.3401L121.815 55.8936ZM121.595 37.9622C121.811 37.7897 121.846 37.475 121.673 37.2594C121.501 37.0438 121.186 37.0088 120.97 37.1814L121.595 37.9622ZM118.57 41.0395L118.102 40.864C118.099 40.8722 118.096 40.8806 118.093 40.889L118.57 41.0395ZM127.698 57.8687C127.974 57.8559 128.187 57.6219 128.174 57.346C128.161 57.0702 127.927 56.857 127.651 56.8698L127.698 57.8687ZM117.708 52.2105C118.277 53.776 119.674 55.3749 121.59 56.3401L122.04 55.447C120.328 54.5845 119.121 53.171 118.648 51.8691L117.708 52.2105ZM121.59 56.3401C122.494 56.7955 123.041 57.1187 124.69 57.5233L124.929 56.5521C123.394 56.1756 122.93 55.8953 122.04 55.447L121.59 56.3401ZM120.97 37.1814C119.413 38.4276 118.501 39.7994 118.102 40.864L119.038 41.2151C119.367 40.3379 120.162 39.1091 121.595 37.9622L120.97 37.1814ZM124.69 57.5233C125.521 57.7271 126.267 57.8134 126.806 57.8489C127.076 57.8666 127.295 57.8717 127.449 57.8723C127.526 57.8726 127.586 57.8718 127.628 57.8709C127.649 57.8704 127.665 57.8699 127.677 57.8695C127.683 57.8693 127.688 57.8691 127.691 57.869C127.693 57.8689 127.694 57.8688 127.695 57.8688C127.696 57.8688 127.696 57.8687 127.697 57.8687C127.697 57.8687 127.697 57.8687 127.697 57.8687C127.697 57.8687 127.697 57.8687 127.698 57.8687C127.698 57.8687 127.698 57.8687 127.675 57.3692C127.651 56.8698 127.651 56.8697 127.652 56.8697C127.652 56.8697 127.652 56.8697 127.652 56.8697C127.652 56.8697 127.652 56.8697 127.652 56.8697C127.652 56.8697 127.652 56.8697 127.652 56.8697C127.652 56.8697 127.651 56.8698 127.651 56.8698C127.649 56.8698 127.646 56.8699 127.642 56.8701C127.635 56.8704 127.622 56.8707 127.605 56.8711C127.572 56.8719 127.52 56.8726 127.453 56.8723C127.318 56.8718 127.119 56.8673 126.872 56.851C126.376 56.8184 125.69 56.7389 124.929 56.5521L124.69 57.5233ZM118.093 40.889C116.919 44.6075 116.251 48.1996 117.708 52.2105L118.648 51.8691C117.304 48.1698 117.895 44.8384 119.047 41.1901L118.093 40.889Z" fill="#455A64"/>
<path d="M94.9453 71.2634H106.96" stroke="#455A64" stroke-miterlimit="10" stroke-linecap="round" stroke-linejoin="round"/>
<path d="M128.684 55.9984V35.7048" stroke="#455A64" stroke-miterlimit="10" stroke-linecap="round" stroke-linejoin="round"/>
<path d="M131.596 35.2195V52.3633" stroke="#455A64" stroke-miterlimit="10" stroke-linecap="round" stroke-linejoin="round"/>
<path d="M160.115 35.2195L159.994 52.4526" stroke="#455A64" stroke-miterlimit="10" stroke-linecap="round" stroke-linejoin="round"/>
<path d="M157.567 35.2195V52.4526" stroke="#455A64" stroke-miterlimit="10" stroke-linecap="round" stroke-linejoin="round"/>
<path d="M162.3 58.2781C162.703 58.2781 163.029 57.9521 163.029 57.5499C163.029 57.1478 162.703 56.8218 162.3 56.8218C161.898 56.8218 161.572 57.1478 161.572 57.5499C161.572 57.9521 161.898 58.2781 162.3 58.2781Z" stroke="#455A64" stroke-miterlimit="10" stroke-linecap="round" stroke-linejoin="round"/>
<path d="M133.902 58.0349C134.304 58.0349 134.63 57.7089 134.63 57.3068C134.63 56.9046 134.304 56.5786 133.902 56.5786C133.5 56.5786 133.174 56.9046 133.174 57.3068C133.174 57.7089 133.5 58.0349 133.902 58.0349Z" stroke="#455A64" stroke-miterlimit="10" stroke-linecap="round" stroke-linejoin="round"/>
<path d="M120.673 76.482C121.076 76.482 121.402 76.1559 121.402 75.7538C121.402 75.3516 121.076 75.0256 120.673 75.0256C120.271 75.0256 119.945 75.3516 119.945 75.7538C119.945 76.1559 120.271 76.482 120.673 76.482Z" stroke="#455A64" stroke-miterlimit="10" stroke-linecap="round" stroke-linejoin="round"/>
<path d="M106.96 80.8508H99.5566" stroke="#455A64" stroke-miterlimit="10" stroke-linecap="round" stroke-linejoin="round"/>
<path d="M108.78 87.4043H117.154" stroke="#455A64" stroke-miterlimit="10" stroke-linecap="round" stroke-linejoin="round"/>
<path d="M112.543 90.0742H117.155" stroke="#455A64" stroke-miterlimit="10" stroke-linecap="round" stroke-linejoin="round"/>
<path d="M154.533 40.9233H134.509V45.535H154.533V40.9233Z" stroke="#455A64" stroke-miterlimit="10"/>
<path d="M175.65 84.6129C176.589 84.6129 177.349 83.8523 177.349 82.9139C177.349 81.9755 176.589 81.2148 175.65 81.2148C174.712 81.2148 173.951 81.9755 173.951 82.9139C173.951 83.8523 174.712 84.6129 175.65 84.6129Z" stroke="#455A64" stroke-miterlimit="10"/>
<path d="M89.242 79.3944C90.1804 79.3944 90.941 78.6337 90.941 77.6954C90.941 76.757 90.1804 75.9963 89.242 75.9963C88.3036 75.9963 87.543 76.757 87.543 77.6954C87.543 78.6337 88.3036 79.3944 89.242 79.3944Z" stroke="#455A64" stroke-miterlimit="10"/>
<path d="M52.3477 55.2439L61.5698 64.4661" stroke="#455A64" stroke-miterlimit="10" stroke-linecap="round" stroke-linejoin="round"/>
<path d="M83.1729 86.4333L61.3281 64.2244" stroke="#455A64" stroke-miterlimit="10"/>
<path d="M43.1249 63.6176L42.7841 63.2517H42.7841L43.1249 63.6176ZM54.1687 53.4234L54.5047 53.7936L54.1687 53.4234ZM55.3824 53.4234L55.7366 53.0705L55.3824 53.4234ZM65.9407 87.4042L65.5953 87.7657L65.6815 87.8482L65.7957 87.8827L65.9407 87.4042ZM43.3676 65.1953L43.7205 64.8411L43.3676 65.1953ZM43.4657 63.9835C47.2107 60.4954 50.6225 57.3172 54.5047 53.7936L53.8326 53.0531C49.945 56.5816 46.5286 59.7641 42.7841 63.2517L43.4657 63.9835ZM83.1738 80.8507C83.5245 80.4943 83.5244 80.4942 83.5242 80.4941C83.5241 80.4939 83.5238 80.4936 83.5234 80.4933C83.5227 80.4926 83.5216 80.4915 83.5202 80.4901C83.5173 80.4873 83.5131 80.4831 83.5074 80.4775C83.4961 80.4663 83.4791 80.4497 83.4567 80.4277C83.412 80.3836 83.3455 80.3182 83.2587 80.2328C83.085 80.0618 82.8296 79.8105 82.5031 79.4892C81.8502 78.8466 80.9127 77.9238 79.7745 76.8033C77.4981 74.5623 74.4191 71.5302 71.2085 68.366C64.7861 62.0365 57.8404 55.1819 55.7366 53.0705L55.0282 53.7763C57.1362 55.8918 64.0862 62.7508 70.5066 69.0783C73.7173 72.2426 76.7965 75.2748 79.0729 77.5159C80.2111 78.6365 81.1487 79.5593 81.8017 80.202C82.1282 80.5233 82.3836 80.7746 82.5573 80.9455C82.6442 81.031 82.7106 81.0964 82.7554 81.1405C82.7777 81.1625 82.7947 81.1791 82.806 81.1903C82.8117 81.1959 82.816 81.2001 82.8189 81.2029C82.8203 81.2043 82.8214 81.2054 82.8221 81.2061C82.8224 81.2064 82.8227 81.2067 82.8229 81.2069C82.8231 81.2071 82.8232 81.2072 83.1738 80.8507ZM65.7957 87.8827L83.0289 93.1012L83.3187 92.1442L66.0856 86.9257L65.7957 87.8827ZM43.0147 65.5495C44.3771 66.9069 46.3201 68.8195 47.9216 70.3919C48.7225 71.1783 49.4383 71.8799 49.954 72.3849C50.2118 72.6374 50.4195 72.8408 50.5628 72.981C50.6345 73.0511 50.69 73.1055 50.7277 73.1423C50.7465 73.1607 50.7608 73.1747 50.7704 73.1841C50.7753 73.1889 50.7789 73.1924 50.7814 73.1948C50.7826 73.196 50.7835 73.1969 50.7841 73.1975C50.7844 73.1978 50.7846 73.198 50.7848 73.1982C50.7849 73.1983 50.7849 73.1983 50.785 73.1984C50.785 73.1984 50.785 73.1984 51.1346 72.8409C51.4842 72.4835 51.4842 72.4834 51.4841 72.4834C51.4841 72.4834 51.4841 72.4833 51.484 72.4832C51.4838 72.4831 51.4836 72.4829 51.4833 72.4826C51.4827 72.482 51.4818 72.4811 51.4805 72.4799C51.4781 72.4775 51.4745 72.474 51.4697 72.4692C51.4601 72.4598 51.4457 72.4458 51.4269 72.4274C51.3893 72.3907 51.3338 72.3364 51.2622 72.2663C51.119 72.1261 50.9114 71.9229 50.6537 71.6705C50.1383 71.1657 49.4227 70.4644 48.6222 69.6784C47.0207 68.106 45.0801 66.1957 43.7205 64.8411L43.0147 65.5495ZM42.7841 63.2517C42.3951 63.6141 42.3312 64.0956 42.4211 64.5074C42.508 64.9055 42.7402 65.276 43.0147 65.5495L43.7205 64.8411C43.5534 64.6746 43.4362 64.4686 43.3981 64.2942C43.363 64.1333 43.3986 64.046 43.4657 63.9835L42.7841 63.2517ZM55.7366 53.0705C55.1912 52.5231 54.3571 52.5771 53.8326 53.0531L54.5047 53.7936C54.6822 53.6325 54.9045 53.6521 55.0282 53.7763L55.7366 53.0705ZM66.286 87.0427L52.6938 74.0572L52.003 74.7803L65.5953 87.7657L66.286 87.0427Z" fill="#455A64"/>
<path d="M166.548 57.7922H171.402" stroke="#455A64" stroke-miterlimit="10" stroke-linecap="round" stroke-linejoin="round"/>
<path d="M166.548 59.6128H171.402" stroke="#455A64" stroke-miterlimit="10" stroke-linecap="round" stroke-linejoin="round"/>
<path d="M166.79 74.4189H171.402" stroke="#455A64" stroke-miterlimit="10" stroke-linecap="round" stroke-linejoin="round"/>
<path d="M166.79 75.9963H171.402" stroke="#455A64" stroke-miterlimit="10" stroke-linecap="round" stroke-linejoin="round"/>
<path d="M94.0861 73.1342C94.047 73.4076 94.237 73.6609 94.5103 73.6999C94.7837 73.739 95.037 73.549 95.076 73.2757L94.0861 73.1342ZM95.1879 70.1709L95.6668 70.3146C95.6703 70.303 95.6733 70.2913 95.6759 70.2794L95.1879 70.1709ZM96.7655 66.1661L97.2128 66.3897C97.2155 66.3841 97.2182 66.3786 97.2207 66.373L96.7655 66.1661ZM99.4355 60.8262L99.0002 60.5802L99.4355 60.8262ZM119.027 38.6427L119.282 39.0728L119.027 38.6427ZM107.485 49.3774L107.104 49.0535C107.101 49.0573 107.098 49.0612 107.094 49.0651L107.485 49.3774ZM132.809 34.9767L132.774 34.478C132.761 34.4789 132.748 34.4804 132.735 34.4823L132.809 34.9767ZM124.795 36.4142L124.669 35.9303L124.661 35.9324L124.795 36.4142ZM153.805 34.6124L153.826 34.1128L153.816 34.1126L153.805 34.6124ZM167.763 37.7458L168.112 37.3877L167.763 37.7458ZM170.902 51.3971C170.902 51.6732 171.126 51.8971 171.402 51.8971C171.678 51.8971 171.902 51.6732 171.902 51.3971H170.902ZM95.076 73.2757C95.1982 72.4205 95.3152 71.4865 95.6668 70.3146L94.7089 70.0273C94.3324 71.2825 94.2066 72.2904 94.0861 73.1342L95.076 73.2757ZM95.6759 70.2794C95.9059 69.2448 96.2497 68.3158 97.2128 66.3897L96.3183 65.9424C95.3396 67.8999 94.9553 68.9126 94.6998 70.0625L95.6759 70.2794ZM97.2207 66.373C97.8262 65.0409 98.7348 63.0821 99.8707 61.0722L99.0002 60.5802C97.8418 62.6298 96.9185 64.6213 96.3104 65.9592L97.2207 66.373ZM118.772 38.2127C116.274 39.6938 113.349 42.4198 111.072 44.7437C109.927 45.9113 108.936 46.9877 108.231 47.7723C107.879 48.1646 107.597 48.4843 107.404 48.7061C107.307 48.817 107.233 48.9035 107.182 48.9625C107.157 48.9919 107.137 49.0145 107.124 49.0298C107.118 49.0375 107.113 49.0433 107.109 49.0473C107.108 49.0493 107.106 49.0508 107.105 49.0518C107.105 49.0523 107.105 49.0527 107.104 49.053C107.104 49.0532 107.104 49.0533 107.104 49.0533C107.104 49.0534 107.104 49.0535 107.485 49.3774C107.866 49.7012 107.866 49.7012 107.866 49.7012C107.866 49.7011 107.866 49.7011 107.866 49.701C107.866 49.7008 107.867 49.7005 107.867 49.7C107.868 49.6992 107.869 49.6978 107.87 49.696C107.873 49.6924 107.878 49.687 107.884 49.6797C107.897 49.6651 107.915 49.6433 107.94 49.6146C107.989 49.5572 108.063 49.4724 108.158 49.3631C108.348 49.1447 108.626 48.8288 108.975 48.4406C109.673 47.6639 110.654 46.5985 111.786 45.4437C114.061 43.1227 116.907 40.4814 119.282 39.0728L118.772 38.2127ZM107.485 49.3774C107.094 49.0651 107.094 49.0652 107.094 49.0653C107.094 49.0653 107.094 49.0654 107.094 49.0655C107.094 49.0658 107.094 49.0661 107.093 49.0665C107.093 49.0674 107.092 49.0687 107.09 49.0704C107.088 49.0737 107.084 49.0787 107.078 49.0852C107.068 49.0984 107.052 49.1178 107.032 49.1433C106.992 49.1942 106.932 49.2694 106.856 49.3666C106.702 49.5611 106.481 49.8438 106.206 50.1978C105.658 50.9055 104.899 51.8983 104.056 53.0388C102.374 55.3152 100.347 58.1977 99.0002 60.5802L99.8707 61.0722C101.186 58.7458 103.183 55.9039 104.86 53.633C105.697 52.5 106.452 51.5135 106.997 50.8103C107.269 50.4588 107.489 50.1782 107.641 49.9857C107.717 49.8894 107.776 49.8152 107.815 49.7651C107.835 49.7401 107.85 49.7211 107.86 49.7084C107.866 49.7021 107.869 49.6973 107.872 49.6942C107.873 49.6926 107.874 49.6914 107.875 49.6906C107.875 49.6903 107.875 49.69 107.875 49.6898C107.875 49.6897 107.875 49.6897 107.875 49.6896C107.875 49.6896 107.875 49.6896 107.485 49.3774ZM132.735 34.4823C130.325 34.8438 127.493 35.1936 124.669 35.9304L124.921 36.898C127.68 36.1784 130.439 35.8379 132.884 35.4712L132.735 34.4823ZM124.661 35.9324C122.472 36.5407 120.583 37.1388 118.772 38.2127L119.282 39.0728C120.971 38.0713 122.75 37.5013 124.929 36.8959L124.661 35.9324ZM132.845 35.4755C141.316 34.8704 148.457 34.991 153.793 35.1123L153.816 34.1126C148.473 33.9911 141.293 33.8695 132.774 34.478L132.845 35.4755ZM153.784 35.112C158.089 35.2939 161.018 35.5676 163.122 36.0406C165.212 36.5102 166.454 37.169 167.414 38.104L168.112 37.3877C166.983 36.2881 165.554 35.5623 163.341 35.0649C161.143 34.5708 158.137 34.295 153.826 34.1129L153.784 35.112ZM167.414 38.104C168.264 38.9324 169.285 40.5581 169.728 41.6036L170.649 41.2135C170.167 40.0756 169.078 38.3293 168.112 37.3877L167.414 38.104ZM169.728 41.6036C170.174 42.6568 170.573 43.8782 170.734 45.6786L171.73 45.5895C171.558 43.6671 171.128 42.3439 170.649 41.2135L169.728 41.6036ZM170.734 45.6786C170.899 47.5149 170.902 48.7281 170.902 51.3971H171.902C171.902 48.731 171.899 47.476 171.73 45.5895L170.734 45.6786Z" fill="#455A64"/>
<path d="M171.366 47.4282C171.366 49.114 171.165 50.1053 170.633 51.5693C170.284 52.5288 169.946 52.938 169.218 53.6662C168.854 54.0303 168.49 54.273 168.005 54.6371C167.519 55.0012 166.67 55.4866 165.456 55.8507" stroke="#455A64" stroke-miterlimit="10"/>
</svg>
