<svg width="250" height="175" viewBox="0 0 250 175" fill="none" xmlns="http://www.w3.org/2000/svg">
<path d="M70.9752 74.8876L22.8865 25.1406" stroke="#455A64" stroke-miterlimit="10"/>
<path d="M22.5107 16.2451L22.0168 16.1669L22.5107 16.2451ZM27.1421 10.9711L26.8329 10.5781L27.1421 10.9711ZM32.3384 8.22658L31.8975 8.4624L32.3384 8.22658ZM31.5316 12.0202L31.9519 12.291L31.5316 12.0202ZM32.3384 10.3823L32.8235 10.5036C32.8254 10.4959 32.8271 10.4881 32.8287 10.4803L32.3384 10.3823ZM24.7104 17.1811V17.6811C24.7781 17.6811 24.8452 17.6674 24.9074 17.6407L24.7104 17.1811ZM23.2182 17.0152L22.9946 17.4624C23.0272 17.4787 23.0615 17.4914 23.0969 17.5003L23.2182 17.0152ZM23.0045 16.3233C23.1971 15.1067 23.6237 14.4198 24.3126 13.7732C24.6715 13.4364 25.1037 13.109 25.6324 12.7222C26.1554 12.3394 26.7666 11.9028 27.4513 11.364L26.8329 10.5781C26.1659 11.103 25.5749 11.5251 25.0418 11.9152C24.5144 12.3011 24.0367 12.6607 23.6283 13.0441C22.7826 13.8378 22.2453 14.7242 22.0168 16.1669L23.0045 16.3233ZM27.4513 11.364C27.7948 11.0938 28.2501 10.678 28.7216 10.2601C29.2037 9.83279 29.7185 9.38863 30.2131 9.02712C30.7198 8.65676 31.1531 8.41289 31.4754 8.33449C31.63 8.2969 31.7176 8.30793 31.7624 8.32367C31.7946 8.33499 31.8432 8.36085 31.8975 8.4624L32.7793 7.99077C32.624 7.70031 32.3939 7.48566 32.094 7.38024C31.8066 7.27924 31.5085 7.2973 31.2391 7.36281C30.7137 7.4906 30.1465 7.83716 29.623 8.2198C29.0874 8.61129 28.5424 9.08268 28.0583 9.51176C27.5634 9.95035 27.1459 10.3319 26.8329 10.5781L27.4513 11.364ZM31.9519 12.291C32.3125 11.7314 32.6346 11.2589 32.8235 10.5036L31.8533 10.261C31.7105 10.8323 31.4831 11.1723 31.1113 11.7493L31.9519 12.291ZM32.8287 10.4803C32.9751 9.74813 33.2828 8.93205 32.7793 7.99077L31.8975 8.4624C32.1882 9.00581 32.0333 9.35822 31.8481 10.2842L32.8287 10.4803ZM24.7104 16.6811C24.5492 16.6811 23.9389 16.68 23.3395 16.5301L23.0969 17.5003C23.8241 17.6821 24.54 17.6811 24.7104 17.6811V16.6811ZM23.4418 16.568C23.2905 16.4923 23.1499 16.4066 23.0596 16.3232C22.9552 16.227 23.0188 16.2332 23.0045 16.3233L22.0168 16.1669C21.9507 16.5845 22.2022 16.8929 22.3816 17.0584C22.5751 17.2367 22.8143 17.3723 22.9946 17.4624L23.4418 16.568ZM31.1113 11.7493C30.1511 13.2396 29.5473 13.6332 28.2244 14.6254L28.8244 15.4254C30.1546 14.4278 30.8871 13.9436 31.9519 12.291L31.1113 11.7493ZM28.2244 14.6254C26.9406 15.5882 25.6529 16.2332 24.5135 16.7216L24.9074 17.6407C26.0895 17.1341 27.4549 16.4525 28.8244 15.4254L28.2244 14.6254Z" fill="#455A64"/>
<path d="M23.3838 10.382L23.7001 10.7693L23.3838 10.382ZM36.997 1.36869L36.7571 0.930034V0.930034L36.997 1.36869ZM29.6851 5.73921L29.9555 6.1598L29.9568 6.15899L29.6851 5.73921ZM32.6699 15.8541L32.287 15.5326L32.6699 15.8541ZM22.0572 25.9695L22.3733 26.3569L22.3758 26.3548L22.0572 25.9695ZM12.4396 29.7836L12.5389 29.2935L12.4396 29.7836ZM8.62557 26.3012L8.13237 26.3834L8.13238 26.3834L8.62557 26.3012ZM9.45469 28.4569L9.81922 28.1147L9.45469 28.4569ZM10.7813 29.2861L10.5867 29.7467L10.5982 29.7516L10.6099 29.7558L10.7813 29.2861ZM39.3029 1.09586L39.1347 1.56674L39.3029 1.09586ZM40.6294 3.58353L40.1338 3.51771L40.6294 3.58353ZM40.6294 2.75441L40.1358 2.834L40.6294 2.75441ZM36.7571 0.930034C33.7132 2.59508 32.2413 3.48964 29.4135 5.31942L29.9568 6.15899C32.7669 4.34066 34.2176 3.45902 37.237 1.80735L36.7571 0.930034ZM29.4148 5.31862C27.0725 6.82435 25.4445 8.05372 23.0676 9.99476L23.7001 10.7693C26.0582 8.84368 27.6547 7.63889 29.9555 6.1598L29.4148 5.31862ZM33.0528 16.1757C34.7363 14.1709 36.5738 11.4971 38.0056 9.29321C39.4316 7.09819 40.4815 5.32876 40.5792 5.1334L39.6848 4.68618C39.6848 4.68604 39.6805 4.69443 39.6684 4.7161C39.6575 4.73585 39.6426 4.76205 39.6238 4.79483C39.5862 4.86028 39.5346 4.94872 39.4698 5.05827C39.3403 5.27719 39.1599 5.57759 38.9373 5.94194C38.4919 6.67061 37.8787 7.65299 37.167 8.74841C35.7409 10.9435 33.9302 13.5759 32.287 15.5326L33.0528 16.1757ZM22.0572 25.9695C22.3758 26.3548 22.3759 26.3548 22.3759 26.3547C22.376 26.3547 22.3761 26.3546 22.3762 26.3545C22.3765 26.3543 22.3768 26.354 22.3773 26.3536C22.3782 26.3529 22.3795 26.3518 22.3812 26.3504C22.3847 26.3475 22.3898 26.3433 22.3965 26.3377C22.41 26.3265 22.4299 26.3099 22.456 26.2882C22.5082 26.2447 22.5849 26.1806 22.6838 26.0975C22.8816 25.9313 23.1679 25.6893 23.5229 25.3853C24.2327 24.7774 25.2175 23.921 26.3179 22.9271C28.5139 20.9435 31.1885 18.3956 33.0528 16.1757L32.287 15.5326C30.4692 17.6972 27.8374 20.207 25.6476 22.185C24.5551 23.1718 23.5771 24.0222 22.8724 24.6258C22.5201 24.9276 22.2362 25.1675 22.0405 25.3319C21.9427 25.414 21.867 25.4773 21.8159 25.5199C21.7903 25.5413 21.7708 25.5574 21.7579 25.5682C21.7514 25.5736 21.7465 25.5776 21.7433 25.5803C21.7416 25.5816 21.7404 25.5826 21.7397 25.5833C21.7393 25.5836 21.739 25.5838 21.7388 25.584C21.7387 25.5841 21.7386 25.5841 21.7386 25.5841C21.7386 25.5842 21.7386 25.5842 22.0572 25.9695ZM12.3403 30.2736C13.4399 30.4965 14.6244 30.3383 15.7541 30.0058C16.8879 29.6722 18.0011 29.1527 18.975 28.6152C19.9505 28.0768 20.7977 27.5139 21.4007 27.0861C21.7025 26.8719 21.944 26.6909 22.1108 26.5629C22.1942 26.4989 22.259 26.4481 22.3033 26.413C22.3255 26.3954 22.3425 26.3817 22.3543 26.3723C22.3602 26.3676 22.3647 26.3639 22.3679 26.3613C22.3695 26.36 22.3707 26.359 22.3716 26.3583C22.3721 26.3579 22.3724 26.3576 22.3727 26.3574C22.3729 26.3573 22.373 26.3571 22.3731 26.3571C22.3732 26.357 22.3733 26.3569 22.0572 25.9695C21.7411 25.5821 21.7411 25.5821 21.7412 25.582C21.7412 25.582 21.7412 25.582 21.7411 25.5821C21.7411 25.5821 21.7409 25.5822 21.7407 25.5824C21.7402 25.5828 21.7394 25.5835 21.7383 25.5844C21.736 25.5862 21.7324 25.5892 21.7274 25.5932C21.7175 25.6011 21.7023 25.6133 21.6821 25.6293C21.6416 25.6614 21.581 25.709 21.5019 25.7697C21.3438 25.891 21.1124 26.0644 20.822 26.2705C20.2403 26.6832 19.4256 27.2243 18.4918 27.7397C17.5562 28.2561 16.5125 28.7403 15.4718 29.0465C14.427 29.354 13.4192 29.4719 12.5389 29.2935L12.3403 30.2736ZM8.13238 26.3834C8.21128 26.8569 8.27116 27.283 8.39586 27.6619C8.52959 28.0682 8.73505 28.4209 9.09016 28.7992L9.81922 28.1147C9.55697 27.8354 9.43078 27.6077 9.34574 27.3493C9.25168 27.0635 9.20569 26.7405 9.11877 26.219L8.13238 26.3834ZM12.5389 29.2935C12.2368 29.2323 11.8446 29.1154 11.5162 29.0089C11.3545 28.9564 11.2129 28.9081 11.1118 28.8728C11.0613 28.8552 11.021 28.8409 10.9936 28.8312C10.9799 28.8263 10.9694 28.8225 10.9625 28.82C10.959 28.8187 10.9564 28.8178 10.9548 28.8172C10.9539 28.8169 10.9533 28.8167 10.953 28.8165C10.9528 28.8165 10.9527 28.8164 10.9526 28.8164C10.9526 28.8164 10.9525 28.8164 10.9525 28.8164C10.9525 28.8164 10.9526 28.8164 10.9526 28.8164C10.9526 28.8164 10.9526 28.8164 10.7813 29.2861C10.6099 29.7558 10.61 29.7559 10.61 29.7559C10.61 29.7559 10.61 29.7559 10.6101 29.7559C10.6101 29.7559 10.6102 29.7559 10.6103 29.756C10.6105 29.756 10.6107 29.7561 10.611 29.7562C10.6116 29.7565 10.6124 29.7568 10.6135 29.7572C10.6157 29.7579 10.6188 29.7591 10.6227 29.7605C10.6307 29.7634 10.6423 29.7675 10.6571 29.7728C10.6867 29.7834 10.7294 29.7986 10.7826 29.8171C10.8889 29.8542 11.0376 29.905 11.2077 29.9601C11.5427 30.0688 11.9797 30.2005 12.3403 30.2736L12.5389 29.2935ZM10.7813 29.2861C10.9758 28.8255 10.9759 28.8256 10.9759 28.8256C10.976 28.8256 10.976 28.8256 10.976 28.8256C10.9761 28.8256 10.9761 28.8257 10.9761 28.8257C10.9762 28.8257 10.9762 28.8257 10.9761 28.8256C10.976 28.8256 10.9756 28.8254 10.9751 28.8252C10.974 28.8247 10.972 28.8239 10.9693 28.8227C10.9639 28.8204 10.9553 28.8166 10.9439 28.8116C10.9211 28.8015 10.8872 28.7862 10.8448 28.7664C10.7598 28.7266 10.6423 28.6691 10.5133 28.5991C10.2414 28.4516 9.97022 28.2755 9.81922 28.1147L9.09016 28.7992C9.35732 29.0837 9.74938 29.3223 10.0363 29.478C10.1866 29.5596 10.3224 29.6259 10.4207 29.672C10.4701 29.6951 10.5104 29.7133 10.5389 29.7259C10.5532 29.7322 10.5645 29.7372 10.5726 29.7407C10.5766 29.7424 10.5798 29.7438 10.5822 29.7448C10.5834 29.7453 10.5844 29.7457 10.5851 29.746C10.5855 29.7462 10.5858 29.7463 10.5861 29.7464C10.5862 29.7465 10.5863 29.7465 10.5864 29.7466C10.5865 29.7466 10.5865 29.7466 10.5866 29.7467C10.5866 29.7467 10.5867 29.7467 10.7813 29.2861ZM37.237 1.80735C37.45 1.69082 37.8091 1.58126 38.1996 1.52979C38.5973 1.47737 38.9392 1.49693 39.1347 1.56674L39.471 0.624971C39.0567 0.477036 38.5297 0.477623 38.0689 0.538365C37.601 0.600052 37.1122 0.735783 36.7571 0.930034L37.237 1.80735ZM39.1347 1.56674C39.4278 1.67138 39.6701 1.83853 39.7784 1.94686L40.4855 1.23975C40.2622 1.01643 39.8891 0.774274 39.471 0.624971L39.1347 1.56674ZM40.5792 5.1334C40.7279 4.83592 41.0386 4.30091 41.1251 3.64935L40.1338 3.51771C40.0747 3.96286 39.8677 4.32037 39.6848 4.68618L40.5792 5.1334ZM41.1251 3.64935C41.172 3.29638 41.1846 3.05652 41.1231 2.67483L40.1358 2.834C40.1774 3.09163 40.1722 3.22873 40.1338 3.51771L41.1251 3.64935ZM39.7784 1.94686C39.7777 1.94617 39.7842 1.95274 39.7971 1.97004C39.8095 1.98661 39.8249 2.00914 39.8426 2.03794C39.8781 2.09581 39.918 2.1708 39.9574 2.25845C40.0372 2.43597 40.1049 2.64239 40.1358 2.834L41.1231 2.67483C41.0754 2.37941 40.9773 2.0882 40.8695 1.84837C40.7676 1.62191 40.633 1.38728 40.4855 1.23975L39.7784 1.94686ZM9.11877 26.219C9.09803 26.0946 9.13488 25.8363 9.33619 25.4053C9.52874 24.9931 9.83833 24.4922 10.2556 23.9156C11.089 22.7644 12.3116 21.3664 13.7626 19.8587C16.6618 16.8462 20.4295 13.4401 23.7001 10.7693L23.0676 9.99476C19.7719 12.686 15.9738 16.119 13.042 19.1653C11.5775 20.6871 10.3185 22.1234 9.44559 23.3293C9.00982 23.9313 8.66021 24.4896 8.43016 24.9821C8.20888 25.4558 8.05975 25.9476 8.13237 26.3834L9.11877 26.219Z" fill="#455A64"/>
<path d="M68.8192 76.546L20.7859 27.1968" stroke="#455A64" stroke-miterlimit="10" stroke-linecap="round" stroke-linejoin="round"/>
<path d="M10.6157 16.1865L13.2929 19.31" stroke="#455A64" stroke-miterlimit="10" stroke-linecap="round" stroke-linejoin="round"/>
<path d="M63.5132 105.067L79.598 87.4897" stroke="#455A64" stroke-miterlimit="10"/>
<path d="M64.8389 106.394L81.587 93.2935" stroke="#455A64" stroke-miterlimit="10"/>
<path d="M79.5977 87.4897L81.5875 93.2936" stroke="#455A64" stroke-miterlimit="10" stroke-linecap="round" stroke-linejoin="round"/>
<path d="M114.752 99.7617H113.094" stroke="#455A64" stroke-miterlimit="10" stroke-linecap="round" stroke-linejoin="round"/>
<path d="M114.752 99.7602V95.9463" stroke="#455A64" stroke-miterlimit="10"/>
<path d="M112.265 151.498L114.753 142.211" stroke="#455A64" stroke-miterlimit="10" stroke-linecap="round" stroke-linejoin="round"/>
<path d="M114.421 152.328L112.265 151.499" stroke="#455A64" stroke-miterlimit="10" stroke-linecap="round" stroke-linejoin="round"/>
<path d="M110.615 158.515C110.946 157.52 111.602 156.639 112.265 155.478C112.928 154.317 113.758 153.322 114.421 152.493" stroke="#455A64" stroke-miterlimit="10" stroke-linecap="round" stroke-linejoin="round"/>
<path d="M242.602 153.654C243.266 154.649 243.929 155.478 244.758 156.639C245.587 157.8 246.25 158.961 246.914 159.956" stroke="#455A64" stroke-miterlimit="10" stroke-linecap="round" stroke-linejoin="round"/>
<path d="M244.592 152.824L242.602 153.653" stroke="#455A64" stroke-miterlimit="10" stroke-linecap="round" stroke-linejoin="round"/>
<path d="M242.934 144.866L244.592 152.825" stroke="#455A64" stroke-miterlimit="10" stroke-linecap="round" stroke-linejoin="round"/>
<path d="M249.235 138.412C249.235 139.993 249.143 141.655 247.982 142.262" stroke="#455A64" stroke-miterlimit="10"/>
<path d="M123.718 168.03L123.924 167.575L123.718 168.03ZM116.576 163.769L116.889 163.378C116.882 163.373 116.874 163.367 116.867 163.362L116.576 163.769ZM110.96 158.275C110.765 158.08 110.448 158.08 110.253 158.275C110.058 158.47 110.058 158.787 110.253 158.982L110.96 158.275ZM145.098 172.557L145.024 173.052C145.035 173.053 145.045 173.055 145.056 173.056L145.098 172.557ZM134.485 170.899L134.383 171.389C134.389 171.39 134.394 171.391 134.4 171.392L134.485 170.899ZM210.93 173.055L210.986 173.552L210.93 173.055ZM223.201 171.397L223.277 171.891L223.29 171.889L223.201 171.397ZM233.182 168.766L232.987 168.305L233.182 168.766ZM247.06 160.345C247.275 160.173 247.31 159.858 247.138 159.642C246.965 159.427 246.651 159.392 246.435 159.564L247.06 160.345ZM241.275 164.1L240.998 163.684L240.987 163.692L241.275 164.1ZM123.924 167.575C120.924 166.216 119.335 165.335 116.889 163.378L116.264 164.159C118.793 166.182 120.459 167.104 123.512 168.486L123.924 167.575ZM116.867 163.362C114.576 161.725 112.607 159.922 110.96 158.275L110.253 158.982C111.923 160.651 113.934 162.496 116.286 164.176L116.867 163.362ZM145.172 172.063C141.852 171.565 138.377 171.069 134.571 170.407L134.4 171.392C138.221 172.056 141.711 172.555 145.024 173.052L145.172 172.063ZM134.587 170.41C130.561 169.571 127.794 169.326 123.924 167.575L123.512 168.486C127.513 170.297 130.45 170.569 134.383 171.389L134.587 170.41ZM210.986 173.552C215.8 173.011 218.961 172.555 223.277 171.891L223.125 170.902C218.817 171.565 215.67 172.019 210.874 172.558L210.986 173.552ZM223.29 171.889C226.93 171.227 229.597 170.823 233.377 169.226L232.987 168.305C229.326 169.852 226.767 170.24 223.111 170.905L223.29 171.889ZM246.435 159.564C244.77 160.896 242.966 162.372 240.998 163.684L241.553 164.516C243.565 163.175 245.408 161.666 247.06 160.345L246.435 159.564ZM240.987 163.692C238.18 165.673 236.348 166.885 232.987 168.305L233.377 169.226C236.833 167.766 238.733 166.507 241.564 164.509L240.987 163.692ZM145.098 172.557C145.056 173.056 145.057 173.056 145.057 173.056C145.057 173.056 145.058 173.056 145.058 173.056C145.06 173.056 145.061 173.056 145.064 173.056C145.069 173.057 145.076 173.057 145.086 173.058C145.106 173.06 145.135 173.062 145.174 173.065C145.251 173.072 145.366 173.081 145.517 173.093C145.819 173.117 146.265 173.152 146.841 173.195C147.994 173.282 149.669 173.402 151.759 173.538C155.938 173.809 161.777 174.141 168.415 174.382C181.684 174.866 198.172 174.992 210.986 173.552L210.874 172.558C198.138 173.989 181.711 173.866 168.451 173.383C161.825 173.142 155.996 172.811 151.824 172.54C149.738 172.405 148.066 172.284 146.916 172.198C146.341 172.155 145.897 172.12 145.596 172.096C145.446 172.084 145.332 172.075 145.255 172.069C145.217 172.066 145.188 172.063 145.168 172.062C145.159 172.061 145.152 172.06 145.147 172.06C145.144 172.06 145.143 172.059 145.141 172.059C145.141 172.059 145.14 172.059 145.14 172.059C145.14 172.059 145.14 172.059 145.098 172.557Z" fill="#455A64"/>
<path d="M114.421 156.97L242.602 157.799" stroke="#455A64" stroke-miterlimit="10" stroke-linecap="round" stroke-linejoin="round"/>
<path d="M215.905 149.508H234.974" stroke="#455A64" stroke-miterlimit="10" stroke-linecap="round" stroke-linejoin="round"/>
<path d="M114.421 152.327L242.602 153.654" stroke="#455A64" stroke-miterlimit="10" stroke-linecap="round" stroke-linejoin="round"/>
<path d="M248.406 104.736L249.235 138.564" stroke="#455A64" stroke-miterlimit="10"/>
<path d="M159.525 97.605V124.634" stroke="#455A64" stroke-miterlimit="10" stroke-linecap="round" stroke-linejoin="round"/>
<path d="M179.258 71.104L159.525 97.605" stroke="#455A64" stroke-miterlimit="10" stroke-linecap="round" stroke-linejoin="round"/>
<path d="M221.565 71.3865L179.734 71.1813" stroke="#455A64" stroke-miterlimit="10" stroke-linecap="round" stroke-linejoin="round"/>
<path d="M227.343 110.706L227.019 77.3755" stroke="#455A64" stroke-miterlimit="10" stroke-linecap="round" stroke-linejoin="round"/>
<path d="M221.542 71.4048L227.015 77.3744" stroke="#455A64" stroke-miterlimit="10" stroke-linecap="round" stroke-linejoin="round"/>
<path d="M248.406 104.736L248.903 69.7471" stroke="#455A64" stroke-miterlimit="10"/>
<path d="M248.905 69.9632C248.905 68.59 248.997 66.3766 248.905 64.0815C248.593 56.3363 246.747 47.1939 245.421 44.5407C244.426 42.5508 242.768 39.566 239.285 36.5812C239.285 36.5812 235.14 33.4306 232.155 32.7673C225.496 31.2872 209.271 31.6065 182.574 32.2698" stroke="#455A64" stroke-miterlimit="10"/>
<path d="M178.429 10.7144L178.926 35.2562" stroke="#455A64" stroke-miterlimit="10"/>
<path d="M181.911 10.3824C181.911 9.81703 181.035 8.93479 179.792 9.14184C178.984 9.27651 178.429 10.2364 178.429 10.8799" stroke="#455A64" stroke-miterlimit="10" stroke-linecap="round" stroke-linejoin="round"/>
<path d="M182.74 36.0844L181.911 10.3818" stroke="#455A64" stroke-miterlimit="10"/>
<path d="M178.926 35.2563C178.926 36.0855 179.247 37.0166 180.15 37.4873C181.052 37.9581 182.74 37.252 182.74 36.0855" stroke="#455A64" stroke-miterlimit="10" stroke-linecap="round" stroke-linejoin="round"/>
<path d="M115.503 90.3458L115.981 90.4929L115.982 90.4895L115.503 90.3458ZM127.475 68.8933L127.892 69.1687L127.475 68.8933ZM165.439 33.3674L165.494 33.8644L165.439 33.3674ZM145.64 45.0531L145.987 45.4124L145.993 45.4066L145.64 45.0531ZM116.966 85.9247C116.484 86.8139 115.54 88.4844 115.024 90.2021L115.982 90.4895C116.462 88.8907 117.349 87.3173 117.845 86.4014L116.966 85.9247ZM115.026 90.1988C114.341 92.4226 114.25 94.043 114.25 96.1934H115.25C115.25 94.0882 115.339 92.5805 115.981 90.4929L115.026 90.1988ZM133.515 59.0086C131.349 62.3402 129.359 65.1304 127.058 68.6179L127.892 69.1687C130.148 65.7515 132.207 62.855 134.353 59.5536L133.515 59.0086ZM127.058 68.6179C126.085 70.0914 125.199 71.5975 124.316 73.1129C123.432 74.6316 122.552 76.1582 121.585 77.6903L122.431 78.2241C123.409 76.6733 124.299 75.1285 125.18 73.6162C126.063 72.1007 126.937 70.6164 127.892 69.1687L127.058 68.6179ZM117.292 86.3817C117.736 86.6118 117.736 86.6118 117.736 86.6118C117.736 86.6118 117.736 86.6117 117.736 86.6116C117.736 86.6115 117.736 86.6113 117.736 86.611C117.737 86.6103 117.737 86.6094 117.738 86.6081C117.739 86.6056 117.741 86.6018 117.744 86.5968C117.749 86.5867 117.757 86.5717 117.767 86.5518C117.788 86.5122 117.818 86.4536 117.858 86.3779C117.937 86.2263 118.053 86.0063 118.197 85.7325C118.487 85.1849 118.893 84.4226 119.359 83.5644C120.294 81.8449 121.467 79.7509 122.431 78.2241L121.585 77.6903C120.603 79.2464 119.417 81.3646 118.481 83.0867C118.012 83.9492 117.604 84.715 117.313 85.2653C117.168 85.5405 117.052 85.7618 116.972 85.9144C116.932 85.9907 116.901 86.0499 116.88 86.09C116.87 86.1101 116.862 86.1254 116.856 86.1357C116.854 86.1409 116.852 86.1448 116.85 86.1475C116.85 86.1488 116.849 86.1498 116.849 86.1505C116.848 86.1508 116.848 86.1511 116.848 86.1512C116.848 86.1513 116.848 86.1514 116.848 86.1514C116.848 86.1515 116.848 86.1515 117.292 86.3817ZM155.968 37.3447C157.741 35.944 161.337 34.3263 165.494 33.8644L165.384 32.8705C161.068 33.3501 157.288 35.0275 155.348 36.5599L155.968 37.3447ZM165.494 33.8644C169.291 33.4426 173.777 33.4344 178.942 33.2678L178.91 32.2683C173.793 32.4334 169.232 32.4429 165.384 32.8705L165.494 33.8644ZM155.414 36.5111C152.28 38.8207 148.802 41.1836 145.286 44.6995L145.993 45.4066C149.442 41.958 152.84 39.6497 156.007 37.3162L155.414 36.5111ZM145.292 44.6938C140.118 49.7006 136.237 54.858 133.403 59.192L134.24 59.7392C137.045 55.4504 140.88 50.355 145.987 45.4124L145.292 44.6938Z" fill="#455A64"/>
<path d="M233.648 105.896V68.917" stroke="#455A64" stroke-miterlimit="10" stroke-linecap="round" stroke-linejoin="round"/>
<path d="M113.094 141.383H112.594V141.687L112.864 141.827L113.094 141.383ZM126.194 148.182L125.964 148.626L126.067 148.679L126.183 148.682L126.194 148.182ZM242.934 144.865L242.704 144.421L242.693 144.427L242.682 144.434L242.934 144.865ZM148.58 148.679L148.569 149.179L148.799 149.184L148.952 149.013L148.58 148.679ZM154.384 142.212V141.712H154.161L154.012 141.878L154.384 142.212ZM207.613 142.212L207.943 141.837L207.802 141.712H207.613V142.212ZM129.51 99.7617L129.945 99.5137L129.801 99.2617H129.51V99.7617ZM135.48 110.209L135.046 110.457L135.1 110.552L135.19 110.616L135.48 110.209ZM155.711 124.635L155.42 125.042L155.549 125.134L155.707 125.135L155.711 124.635ZM207.613 124.967L207.61 125.467L207.772 125.468L207.904 125.374L207.613 124.967ZM233.647 106.395V105.895C233.543 105.895 233.442 105.927 233.357 105.988L233.647 106.395ZM247.577 106.895C247.853 106.895 248.077 106.671 248.077 106.395C248.077 106.119 247.853 105.895 247.577 105.895V106.895ZM126.424 147.738L113.324 140.94L112.864 141.827L125.964 148.626L126.424 147.738ZM247.845 141.768L242.704 144.421L243.163 145.31L248.303 142.657L247.845 141.768ZM148.952 149.013L154.756 142.546L154.012 141.878L148.208 148.345L148.952 149.013ZM207.613 141.712H154.384V142.712H207.613V141.712ZM216.235 149.133L207.943 141.837L207.283 142.588L215.574 149.884L216.235 149.133ZM242.682 144.434L234.722 149.077L235.226 149.94L243.186 145.297L242.682 144.434ZM148.591 148.179L126.205 147.682L126.183 148.682L148.569 149.179L148.591 148.179ZM129.51 99.2617H114.752V100.262H129.51V99.2617ZM135.914 109.96L129.945 99.5137L129.076 100.01L135.046 110.457L135.914 109.96ZM156.001 124.228L135.77 109.801L135.19 110.616L155.42 125.042L156.001 124.228ZM207.616 124.467L155.714 124.135L155.707 125.135L207.61 125.467L207.616 124.467ZM233.357 105.988L207.323 124.56L207.904 125.374L233.938 106.802L233.357 105.988ZM247.577 105.895H233.647V106.895H247.577V105.895ZM112.594 99.7617V141.383H113.594V99.7617H112.594Z" fill="#455A64"/>
<path d="M185.244 166.214C185.078 166.877 184.58 167.209 184.415 167.54C183.42 168.369 181.761 168.867 178.777 168.867C178.777 168.867 173.802 168.867 172.31 167.209C172.144 167.043 171.978 166.711 171.812 166.38C171.646 165.55 172.475 164.887 172.641 164.721C173.636 163.726 175.129 163.892 178.777 163.892C182.756 163.892 184.249 163.726 184.912 164.721C184.912 164.555 185.41 165.385 185.244 166.214Z" stroke="#455A64" stroke-miterlimit="10" stroke-linecap="round" stroke-linejoin="round"/>
<path d="M213.931 166.876C213.765 168.203 211.112 169.032 209.288 169.032C207.464 169.032 204.811 168.203 204.645 166.876C204.479 166.213 204.976 165.716 205.142 165.55C205.474 165.218 205.971 164.721 209.288 164.721C212.604 164.721 213.268 165.218 213.433 165.55C213.599 165.716 213.931 166.213 213.931 166.876Z" stroke="#455A64" stroke-miterlimit="10" stroke-linecap="round" stroke-linejoin="round"/>
<path d="M152.742 166.047C152.244 167.539 149.923 168.202 148.099 168.202C146.275 168.202 143.622 167.539 143.456 166.047C143.29 165.383 143.787 164.886 143.953 164.72C144.617 163.725 146.109 163.725 148.099 163.891C150.254 163.891 152.41 164.057 152.742 165.217C152.908 165.549 152.742 165.881 152.742 166.047Z" stroke="#455A64" stroke-miterlimit="10" stroke-linecap="round" stroke-linejoin="round"/>
<path d="M61.689 111.202C63.5207 111.202 65.0055 109.717 65.0055 107.886C65.0055 106.054 63.5207 104.569 61.689 104.569C59.8574 104.569 58.3726 106.054 58.3726 107.886C58.3726 109.717 59.8574 111.202 61.689 111.202Z" stroke="#455A64" stroke-miterlimit="10"/>
<path d="M1.49735 24.1455L1.16543 23.7715L1.15431 23.7814L1.14379 23.7919L1.49735 24.1455ZM1.49746 26.7988L1.09746 27.0988L1.11493 27.1221L1.13498 27.1432L1.49746 26.7988ZM12.4396 15.3567L12.3718 14.8614L12.4396 15.3567ZM1.49735 24.1455C1.82926 24.5194 1.8293 24.5194 1.82937 24.5193C1.82943 24.5193 1.82954 24.5192 1.82968 24.5191C1.82996 24.5188 1.83037 24.5184 1.83093 24.5179C1.83204 24.517 1.83371 24.5155 1.83592 24.5135C1.84034 24.5096 1.84694 24.5037 1.85566 24.496C1.87308 24.4805 1.89895 24.4576 1.93272 24.4276C2.00025 24.3677 2.09934 24.2798 2.2256 24.1679C2.4781 23.944 2.8392 23.624 3.27357 23.2395C4.14234 22.4703 5.30405 21.4432 6.47603 20.411C7.64821 19.3786 8.82988 18.3418 9.73886 17.553C10.1936 17.1584 10.5786 16.8271 10.8597 16.5899C11.0005 16.471 11.113 16.3775 11.1942 16.3121C11.2351 16.2792 11.2652 16.2557 11.2856 16.2404C11.3191 16.2153 11.3027 16.2306 11.2661 16.2489L10.8189 15.3545C10.7616 15.3831 10.7071 15.4244 10.6863 15.44C10.6523 15.4654 10.6119 15.4972 10.5671 15.5333C10.4769 15.6059 10.3574 15.7051 10.2146 15.8257C9.92829 16.0675 9.53915 16.4023 9.08346 16.7977C8.17163 17.5889 6.98774 18.6277 5.81508 19.6605C4.64224 20.6935 3.47984 21.7213 2.61071 22.4907C2.17613 22.8754 1.81484 23.1956 1.56218 23.4196C1.43585 23.5316 1.33668 23.6196 1.26908 23.6796C1.23529 23.7096 1.20938 23.7325 1.19192 23.748C1.18319 23.7558 1.17657 23.7617 1.17214 23.7656C1.16992 23.7676 1.16824 23.769 1.16712 23.77C1.16656 23.7705 1.16614 23.7709 1.16586 23.7712C1.16572 23.7713 1.16561 23.7714 1.16554 23.7714C1.16547 23.7715 1.16543 23.7715 1.49735 24.1455ZM58.735 86.3166L1.85994 26.4544L1.13498 27.1432L58.01 87.0053L58.735 86.3166ZM11.2661 16.2489C11.5677 16.0981 12.0119 15.92 12.5074 15.8521L12.3718 14.8614C11.7326 14.9489 11.1806 15.1736 10.8189 15.3545L11.2661 16.2489ZM12.5074 15.8521C12.9098 15.797 13.1855 15.7897 13.6409 15.9045L13.8852 14.9348C13.2767 14.7815 12.8676 14.7935 12.3718 14.8614L12.5074 15.8521ZM1.14379 23.7919C0.90213 24.0336 0.5 24.6529 0.5 25.4722H1.5C1.5 24.9649 1.76092 24.589 1.8509 24.499L1.14379 23.7919ZM0.5 25.4722C0.5 25.704 0.513637 26.3204 1.09746 27.0988L1.89746 26.4988C1.48635 25.9506 1.5 25.5721 1.5 25.4722H0.5ZM13.6409 15.9045C13.6121 15.8972 13.6301 15.896 13.7064 15.9518C13.7729 16.0003 13.8561 16.0716 13.9533 16.1646C14.1473 16.35 14.3672 16.5928 14.5785 16.8407C14.7884 17.0869 14.983 17.3301 15.1256 17.5124C15.1968 17.6033 15.2546 17.6786 15.2945 17.731C15.3144 17.7571 15.3298 17.7775 15.3401 17.7912C15.3453 17.7981 15.3492 17.8033 15.3517 17.8067C15.353 17.8084 15.3539 17.8096 15.3545 17.8104C15.3548 17.8108 15.355 17.8111 15.3552 17.8113C15.3552 17.8113 15.3553 17.8114 15.3553 17.8114C15.3553 17.8114 15.3553 17.8114 15.3553 17.8114C15.3553 17.8114 15.3553 17.8114 15.756 17.5125C16.1568 17.2135 16.1568 17.2135 16.1568 17.2134C16.1568 17.2134 16.1567 17.2133 16.1567 17.2133C16.1566 17.2132 16.1565 17.2131 16.1564 17.2129C16.1562 17.2126 16.1558 17.2122 16.1554 17.2116C16.1546 17.2105 16.1535 17.209 16.1519 17.207C16.1489 17.2029 16.1446 17.1971 16.1389 17.1896C16.1276 17.1745 16.1111 17.1527 16.09 17.1251C16.0479 17.0698 15.9874 16.991 15.9133 16.8962C15.7653 16.707 15.5614 16.4522 15.3395 16.1919C15.1191 15.9334 14.874 15.6613 14.6444 15.4418C14.5298 15.3323 14.4116 15.2285 14.2964 15.1443C14.191 15.0673 14.047 14.9755 13.8852 14.9348L13.6409 15.9045Z" fill="#455A64"/>
<path d="M166.051 88.7992L169.972 77.707" stroke="#455A64" stroke-miterlimit="10" stroke-linecap="round" stroke-linejoin="round"/>
<path d="M157.866 92.1328H163.419" stroke="#455A64" stroke-miterlimit="10" stroke-linecap="round" stroke-linejoin="round"/>
<path d="M145.596 108.549L157.867 92.1328" stroke="#455A64" stroke-miterlimit="10" stroke-linecap="round" stroke-linejoin="round"/>
<path d="M145.596 97.1084V117.339" stroke="#455A64" stroke-miterlimit="10" stroke-linecap="round" stroke-linejoin="round"/>
<path d="M142.279 92.1328V97.1075" stroke="#455A64" stroke-miterlimit="10" stroke-linecap="round" stroke-linejoin="round"/>
<path d="M130.837 92.1328H142.279" stroke="#455A64" stroke-miterlimit="10" stroke-linecap="round" stroke-linejoin="round"/>
<path d="M160.923 70.841L160.453 71.0117L160.923 70.841ZM165.893 76.1067L165.668 76.5532L165.893 76.1067ZM165.478 51.4627C165.693 51.2902 165.728 50.9755 165.556 50.7599C165.383 50.5443 165.069 50.5093 164.853 50.6819L165.478 51.4627ZM161.458 55.8105L160.99 55.6349C160.987 55.6432 160.984 55.6515 160.982 55.6599L161.458 55.8105ZM173.922 78.6224C174.198 78.6096 174.411 78.3756 174.398 78.0998C174.385 77.8239 174.151 77.6107 173.876 77.6235L173.922 78.6224ZM160.453 71.0117C161.213 73.1025 163.087 75.2532 165.668 76.5532L166.117 75.6602C163.741 74.4628 162.057 72.4975 161.393 70.6703L160.453 71.0117ZM165.668 76.5532C166.9 77.1741 167.633 77.6079 169.865 78.1556L170.103 77.1844C167.986 76.6648 167.336 76.274 166.117 75.6602L165.668 76.5532ZM164.853 50.6819C162.747 52.3665 161.523 54.2147 160.99 55.6349L161.927 55.9861C162.389 54.7532 163.496 53.0479 165.478 51.4627L164.853 50.6819ZM169.865 78.1556C170.987 78.4309 171.996 78.5476 172.724 78.5955C173.089 78.6195 173.385 78.6264 173.591 78.6272C173.694 78.6276 173.775 78.6265 173.831 78.6253C173.859 78.6246 173.881 78.624 173.896 78.6234C173.904 78.6232 173.91 78.6229 173.914 78.6228C173.916 78.6227 173.918 78.6226 173.919 78.6225C173.92 78.6225 173.921 78.6225 173.921 78.6225C173.921 78.6225 173.921 78.6225 173.922 78.6224C173.922 78.6224 173.922 78.6224 173.922 78.6224C173.922 78.6224 173.922 78.6224 173.899 78.123C173.876 77.6235 173.876 77.6235 173.876 77.6235C173.876 77.6235 173.876 77.6235 173.876 77.6235C173.876 77.6235 173.876 77.6235 173.876 77.6235C173.876 77.6235 173.876 77.6235 173.876 77.6235C173.875 77.6235 173.875 77.6235 173.873 77.6236C173.871 77.6237 173.867 77.6238 173.861 77.624C173.85 77.6244 173.832 77.625 173.809 77.6255C173.761 77.6266 173.689 77.6276 173.595 77.6272C173.407 77.6265 173.132 77.6202 172.79 77.5977C172.105 77.5526 171.156 77.4428 170.103 77.1844L169.865 78.1556ZM160.982 55.6599C159.381 60.7279 158.483 65.5883 160.453 71.0117L161.393 70.6703C159.536 65.5586 160.357 60.9588 161.935 55.9611L160.982 55.6599Z" fill="#455A64"/>
<path d="M129.179 97.1084H145.595" stroke="#455A64" stroke-miterlimit="10" stroke-linecap="round" stroke-linejoin="round"/>
<path d="M175.278 76.2496V48.521" stroke="#455A64" stroke-miterlimit="10" stroke-linecap="round" stroke-linejoin="round"/>
<path d="M179.258 47.8579V71.2828" stroke="#455A64" stroke-miterlimit="10" stroke-linecap="round" stroke-linejoin="round"/>
<path d="M218.226 47.8579L218.061 71.4048" stroke="#455A64" stroke-miterlimit="10" stroke-linecap="round" stroke-linejoin="round"/>
<path d="M214.744 47.8579V71.4048" stroke="#455A64" stroke-miterlimit="10" stroke-linecap="round" stroke-linejoin="round"/>
<path d="M221.211 79.3654C221.761 79.3654 222.206 78.9199 222.206 78.3704C222.206 77.8209 221.761 77.3755 221.211 77.3755C220.662 77.3755 220.216 77.8209 220.216 78.3704C220.216 78.9199 220.662 79.3654 221.211 79.3654Z" stroke="#455A64" stroke-miterlimit="10" stroke-linecap="round" stroke-linejoin="round"/>
<path d="M182.408 79.0319C182.957 79.0319 183.403 78.5864 183.403 78.0369C183.403 77.4875 182.957 77.042 182.408 77.042C181.858 77.042 181.413 77.4875 181.413 78.0369C181.413 78.5864 181.858 79.0319 182.408 79.0319Z" stroke="#455A64" stroke-miterlimit="10" stroke-linecap="round" stroke-linejoin="round"/>
<path d="M164.334 104.238C164.883 104.238 165.328 103.792 165.328 103.243C165.328 102.693 164.883 102.248 164.334 102.248C163.784 102.248 163.339 102.693 163.339 103.243C163.339 103.792 163.784 104.238 164.334 104.238Z" stroke="#455A64" stroke-miterlimit="10" stroke-linecap="round" stroke-linejoin="round"/>
<path d="M145.595 110.208H135.48" stroke="#455A64" stroke-miterlimit="10" stroke-linecap="round" stroke-linejoin="round"/>
<path d="M148.083 119.162H159.525" stroke="#455A64" stroke-miterlimit="10" stroke-linecap="round" stroke-linejoin="round"/>
<path d="M153.223 122.81H159.525" stroke="#455A64" stroke-miterlimit="10" stroke-linecap="round" stroke-linejoin="round"/>
<path d="M210.598 55.6519H183.237V61.9531H210.598V55.6519Z" stroke="#455A64" stroke-miterlimit="10"/>
<path d="M239.452 115.348C240.734 115.348 241.773 114.309 241.773 113.027C241.773 111.744 240.734 110.705 239.452 110.705C238.169 110.705 237.13 111.744 237.13 113.027C237.13 114.309 238.169 115.348 239.452 115.348Z" stroke="#455A64" stroke-miterlimit="10"/>
<path d="M121.385 108.218C122.668 108.218 123.707 107.178 123.707 105.896C123.707 104.614 122.668 103.575 121.385 103.575C120.103 103.575 119.064 104.614 119.064 105.896C119.064 107.178 120.103 108.218 121.385 108.218Z" stroke="#455A64" stroke-miterlimit="10"/>
<path d="M70.9758 75.2183L83.5768 87.8192" stroke="#455A64" stroke-miterlimit="10" stroke-linecap="round" stroke-linejoin="round"/>
<path d="M113.094 117.835L83.2461 87.4897" stroke="#455A64" stroke-miterlimit="10"/>
<path d="M58.3725 86.6614L58.0318 86.2955H58.0318L58.3725 86.6614ZM73.4625 72.7323L73.7985 73.1025L73.4625 72.7323ZM75.1208 72.7323L75.475 72.3794L75.1208 72.7323ZM89.5474 119.163L89.202 119.524L89.2883 119.607L89.4025 119.641L89.5474 119.163ZM58.7041 88.8171L59.057 88.4629L58.7041 88.8171ZM58.7133 87.0273C63.8304 82.2613 68.493 77.9179 73.7985 73.1025L73.1264 72.3621C67.8155 77.1824 63.1483 81.5301 58.0318 86.2955L58.7133 87.0273ZM113.094 110.208C113.445 109.852 113.445 109.852 113.445 109.852C113.444 109.851 113.444 109.851 113.444 109.85C113.443 109.849 113.441 109.848 113.439 109.846C113.435 109.842 113.429 109.837 113.422 109.829C113.406 109.814 113.383 109.791 113.352 109.761C113.291 109.701 113.201 109.611 113.082 109.495C112.844 109.261 112.496 108.918 112.049 108.479C111.157 107.6 109.876 106.34 108.321 104.809C105.211 101.746 101.004 97.6034 96.6167 93.28C87.8416 84.6319 78.3504 75.2651 75.475 72.3794L74.7667 73.0852C77.6462 75.975 87.1417 85.3462 95.9147 93.9922C100.302 98.3159 104.509 102.459 107.619 105.521C109.175 107.052 110.456 108.313 111.348 109.191C111.794 109.63 112.143 109.974 112.38 110.207C112.499 110.324 112.59 110.413 112.651 110.474C112.682 110.504 112.705 110.526 112.72 110.542C112.728 110.549 112.734 110.555 112.738 110.559C112.74 110.561 112.741 110.562 112.742 110.563C112.743 110.564 112.743 110.564 112.743 110.564C112.744 110.565 112.744 110.565 113.094 110.208ZM89.4025 119.641L112.949 126.772L113.239 125.815L89.6923 118.684L89.4025 119.641ZM58.3512 89.1713C60.2123 91.0256 62.8667 93.6384 65.055 95.787C66.1493 96.8614 67.1273 97.82 67.8318 98.5099C68.184 98.8549 68.4678 99.1328 68.6636 99.3244C68.7615 99.4202 68.8374 99.4944 68.8888 99.5447C68.9146 99.5699 68.9341 99.589 68.9473 99.6019C68.9539 99.6084 68.9589 99.6132 68.9622 99.6165C68.9639 99.6181 68.9651 99.6193 68.966 99.6202C68.9664 99.6206 68.9667 99.6209 68.9669 99.6211C68.967 99.6212 68.9671 99.6213 68.9672 99.6213C68.9672 99.6214 68.9672 99.6214 69.3168 99.2639C69.6664 98.9064 69.6664 98.9064 69.6663 98.9064C69.6663 98.9063 69.6662 98.9062 69.6661 98.9061C69.6659 98.9059 69.6656 98.9056 69.6651 98.9052C69.6643 98.9044 69.6631 98.9032 69.6614 98.9016C69.6581 98.8983 69.6531 98.8934 69.6465 98.887C69.6334 98.8742 69.6138 98.855 69.5881 98.8299C69.5368 98.7796 69.4609 98.7054 69.3631 98.6097C69.1674 98.4181 68.8836 98.1404 68.5315 97.7955C67.8272 97.1057 66.8495 96.1475 65.7555 95.0734C63.5673 92.9249 60.9153 90.3144 59.057 88.4629L58.3512 89.1713ZM58.0318 86.2955C57.5592 86.7357 57.4771 87.3214 57.5898 87.8381C57.6996 88.3411 57.9958 88.8172 58.3512 89.1713L59.057 88.4629C58.8091 88.2158 58.6278 87.9043 58.5668 87.6249C58.5089 87.3592 58.5626 87.1677 58.7133 87.0273L58.0318 86.2955ZM75.475 72.3794C74.8071 71.709 73.7795 71.7693 73.1264 72.3621L73.7985 73.1025C74.1046 72.8247 74.5204 72.838 74.7667 73.0852L75.475 72.3794ZM89.8928 118.801L71.3207 101.058L70.6299 101.781L89.202 119.524L89.8928 118.801Z" fill="#455A64"/>
<path d="M227.014 78.7012H233.647" stroke="#455A64" stroke-miterlimit="10" stroke-linecap="round" stroke-linejoin="round"/>
<path d="M227.014 81.1885H233.647" stroke="#455A64" stroke-miterlimit="10" stroke-linecap="round" stroke-linejoin="round"/>
<path d="M227.346 101.418H233.647" stroke="#455A64" stroke-miterlimit="10" stroke-linecap="round" stroke-linejoin="round"/>
<path d="M227.346 103.575H233.647" stroke="#455A64" stroke-miterlimit="10" stroke-linecap="round" stroke-linejoin="round"/>
<path d="M128.186 99.6904C128.147 99.9638 128.337 100.217 128.611 100.256C128.884 100.295 129.137 100.105 129.176 99.8318L128.186 99.6904ZM129.511 95.6155L129.989 95.7592C129.993 95.7476 129.996 95.7358 129.999 95.724L129.511 95.6155ZM131.666 90.1434L132.113 90.367C132.116 90.3615 132.119 90.3559 132.121 90.3503L131.666 90.1434ZM135.314 82.8471L134.879 82.6011L135.314 82.8471ZM162.084 52.5362L162.339 52.9663L162.084 52.5362ZM146.313 67.2037L145.932 66.8799C145.929 66.8837 145.926 66.8876 145.922 66.8915L146.313 67.2037ZM180.916 47.5271L180.88 47.0284C180.867 47.0293 180.854 47.0307 180.842 47.0326L180.916 47.5271ZM169.965 49.4912L169.839 49.0073L169.831 49.0094L169.965 49.4912ZM209.603 47.0293L209.624 46.5297L209.614 46.5295L209.603 47.0293ZM228.675 51.3107L229.024 50.9526L228.675 51.3107ZM233.147 69.9634C233.147 70.2396 233.371 70.4634 233.647 70.4634C233.923 70.4634 234.147 70.2396 234.147 69.9634H233.147ZM129.176 99.8318C129.343 98.6654 129.504 97.3758 129.989 95.7592L129.032 95.4719C128.522 97.1718 128.351 98.5353 128.186 99.6904L129.176 99.8318ZM129.999 95.724C130.317 94.2892 130.795 93.0045 132.113 90.367L131.219 89.9198C129.885 92.5886 129.367 93.957 129.022 95.5071L129.999 95.724ZM132.121 90.3503C132.949 88.5291 134.193 85.8467 135.75 83.0931L134.879 82.6011C133.3 85.3944 132.041 88.1095 131.211 89.9365L132.121 90.3503ZM161.829 52.1061C158.438 54.1167 154.456 57.8258 151.344 61.0006C149.783 62.5937 148.431 64.0625 147.469 65.133C146.988 65.6684 146.604 66.1044 146.341 66.4069C146.209 66.5582 146.107 66.6761 146.038 66.7563C146.003 66.7964 145.977 66.8271 145.959 66.8479C145.95 66.8583 145.944 66.8662 145.939 66.8715C145.937 66.8742 145.935 66.8763 145.934 66.8777C145.933 66.8783 145.933 66.8789 145.933 66.8792C145.932 66.8794 145.932 66.8796 145.932 66.8797C145.932 66.8798 145.932 66.8799 146.313 67.2037C146.694 67.5276 146.694 67.5276 146.694 67.5275C146.694 67.5274 146.694 67.5274 146.694 67.5272C146.694 67.5269 146.695 67.5265 146.695 67.5259C146.696 67.5247 146.698 67.5228 146.7 67.5203C146.704 67.5153 146.711 67.5078 146.719 67.4978C146.736 67.4778 146.762 67.4478 146.796 67.4085C146.864 67.3298 146.964 67.2135 147.094 67.0639C147.355 66.7648 147.735 66.3326 148.213 65.8013C149.168 64.7387 150.51 63.2809 152.059 61.7006C155.168 58.5288 159.071 54.9042 162.339 52.9663L161.829 52.1061ZM146.313 67.2037C145.922 66.8915 145.922 66.8916 145.922 66.8917C145.922 66.8917 145.922 66.8919 145.922 66.892C145.922 66.8923 145.921 66.8928 145.921 66.8933C145.92 66.8945 145.919 66.8962 145.917 66.8985C145.913 66.9031 145.908 66.9098 145.901 66.9187C145.886 66.9366 145.865 66.963 145.838 66.9978C145.783 67.0672 145.701 67.1698 145.597 67.3025C145.388 67.5678 145.085 67.9538 144.711 68.4369C143.962 69.4031 142.925 70.7585 141.775 72.3155C139.478 75.4248 136.713 79.3561 134.879 82.6011L135.75 83.0931C137.552 79.9041 140.286 76.0136 142.579 72.9097C143.724 71.3602 144.756 70.0111 145.501 69.0495C145.874 68.5687 146.174 68.185 146.382 67.9215C146.486 67.7898 146.566 67.6882 146.621 67.6197C146.648 67.5854 146.669 67.5593 146.683 67.5419C146.69 67.5332 146.695 67.5267 146.698 67.5223C146.7 67.5202 146.701 67.5185 146.702 67.5175C146.703 67.5169 146.703 67.5165 146.703 67.5163C146.703 67.5162 146.703 67.5161 146.703 67.516C146.703 67.516 146.703 67.5159 146.313 67.2037ZM180.842 47.0326C177.542 47.5275 173.686 48.0038 169.839 49.0074L170.091 49.975C173.872 48.9887 177.656 48.5216 180.99 48.0216L180.842 47.0326ZM169.831 49.0094C166.841 49.84 164.281 50.6522 161.829 52.1061L162.339 52.9663C164.669 51.5846 167.119 50.8006 170.099 49.9729L169.831 49.0094ZM180.951 48.0258C192.535 47.1985 202.299 47.3635 209.592 47.5292L209.614 46.5295C202.315 46.3636 192.512 46.1975 180.88 47.0284L180.951 48.0258ZM209.582 47.5289C215.466 47.7775 219.482 48.1518 222.374 48.8019C225.252 49.4488 226.984 50.3612 228.326 51.6689L229.024 50.9526C227.512 49.4803 225.595 48.5008 222.593 47.8263C219.607 47.155 215.514 46.7786 209.624 46.5298L209.582 47.5289ZM228.326 51.6689C229.509 52.8215 230.916 55.0649 231.529 56.5104L232.45 56.1204C231.798 54.5825 230.323 52.2184 229.024 50.9526L228.326 51.6689ZM231.529 56.5104C232.144 57.9636 232.695 59.6511 232.918 62.1336L233.914 62.0444C233.68 59.44 233.098 57.6507 232.45 56.1204L231.529 56.5104ZM232.918 62.1336C233.143 64.6518 233.147 66.3171 233.147 69.9634H234.147C234.147 66.3201 234.144 64.6129 233.914 62.0444L232.918 62.1336Z" fill="#455A64"/>
<path d="M233.597 64.5391C233.597 66.8425 233.323 68.197 232.596 70.1973C232.12 71.5084 231.658 72.0675 230.663 73.0625C230.165 73.5599 229.668 73.8916 229.005 74.3891C228.341 74.8865 227.181 75.5498 225.522 76.0473" stroke="#455A64" stroke-miterlimit="10"/>
</svg>
