<svg width="176" height="69" viewBox="0 0 176 69" fill="none" xmlns="http://www.w3.org/2000/svg">
<path fill-rule="evenodd" clip-rule="evenodd" d="M106.064 6.71946H81.3359V45.7027H106.064V6.71946ZM80.6172 6.00073V46.4214H106.783V6.00073H80.6172Z" fill="#455A64"/>
<path fill-rule="evenodd" clip-rule="evenodd" d="M84.6547 15.0117H83.7051V39.2071H84.6547V15.0117ZM82.9863 14.293V39.9258H85.3734V14.293H82.9863Z" fill="#455A64"/>
<path fill-rule="evenodd" clip-rule="evenodd" d="M88.0414 15.0117H87.0918V39.2071H88.0414V15.0117ZM86.373 14.293V39.9258H88.7601V14.293H86.373Z" fill="#455A64"/>
<path fill-rule="evenodd" clip-rule="evenodd" d="M91.4281 15.0117H90.4785V39.2071H91.4281V15.0117ZM89.7598 14.293V39.9258H92.1469V14.293H89.7598Z" fill="#455A64"/>
<path fill-rule="evenodd" clip-rule="evenodd" d="M94.8149 15.0117H93.8652V39.2071H94.8149V15.0117ZM93.1465 14.293V39.9258H95.5336V14.293H93.1465Z" fill="#455A64"/>
<path fill-rule="evenodd" clip-rule="evenodd" d="M98.2016 15.0117H97.2519V39.2071H98.2016V15.0117ZM96.5332 14.293V39.9258H98.9203V14.293H96.5332Z" fill="#455A64"/>
<path fill-rule="evenodd" clip-rule="evenodd" d="M101.588 15.0117H100.639V39.2071H101.588V15.0117ZM99.9199 14.293V39.9258H102.307V14.293H99.9199Z" fill="#455A64"/>
<path fill-rule="evenodd" clip-rule="evenodd" d="M12.2148 0.612061H109.911L119.474 8.1952V15.7663H118.755V8.54253L109.661 1.33079H12.9336V6.27612H12.2148V0.612061Z" fill="#455A64"/>
<path fill-rule="evenodd" clip-rule="evenodd" d="M106.064 6.71946H0.740211V67.6694H106.064V6.71946ZM0.0214844 6.00073V68.3881H106.783V6.00073H0.0214844Z" fill="#455A64"/>
<path fill-rule="evenodd" clip-rule="evenodd" d="M103.971 8.68089H2.83396V65.7076H103.971V8.68089ZM2.11523 7.96216V66.4263H104.69V7.96216H2.11523Z" fill="#455A64"/>
<path fill-rule="evenodd" clip-rule="evenodd" d="M106.064 6.71946H81.3359V67.6694H106.064V6.71946ZM80.6172 6.00073V68.3881H106.783V6.00073H80.6172Z" fill="#455A64"/>
<path fill-rule="evenodd" clip-rule="evenodd" d="M110.073 11.3398H106.815V61.7428H110.073V11.3398ZM106.097 10.6211V62.4615H110.791V10.6211H106.097Z" fill="#455A64"/>
<path fill-rule="evenodd" clip-rule="evenodd" d="M137.608 9.55906H121.669V15.0477H137.608V9.55906ZM120.95 8.84033V15.7664H138.327V8.84033H120.95Z" fill="#455A64"/>
<path fill-rule="evenodd" clip-rule="evenodd" d="M162.255 15.7964H110.832V57.2865H162.255C169.003 57.2865 174.473 51.8162 174.473 45.0682V28.0147C174.473 21.2667 169.003 15.7964 162.255 15.7964ZM110.113 15.0776V58.0052H162.255C169.4 58.0052 175.192 52.2131 175.192 45.0682V28.0147C175.192 20.8698 169.4 15.0776 162.255 15.0776H110.113Z" fill="#455A64"/>
<path fill-rule="evenodd" clip-rule="evenodd" d="M154.901 57.595V15.5105H155.62V57.595H154.901Z" fill="#455A64"/>
<path fill-rule="evenodd" clip-rule="evenodd" d="M118.755 57.595V15.5105H119.474V57.595H118.755Z" fill="#455A64"/>
<path fill-rule="evenodd" clip-rule="evenodd" d="M119.113 18.7988L155.261 18.7988V19.5176L119.113 19.5176V18.7988Z" fill="#455A64"/>
<path fill-rule="evenodd" clip-rule="evenodd" d="M5.34058e-05 15.407L80.6172 15.407V16.1257L5.34058e-05 16.1257V15.407Z" fill="#455A64"/>
<path fill-rule="evenodd" clip-rule="evenodd" d="M5.34058e-05 57.2356L80.6172 57.2356V57.9543L5.34058e-05 57.9543V57.2356Z" fill="#455A64"/>
<path fill-rule="evenodd" clip-rule="evenodd" d="M119.113 23.1111L155.261 23.1111V23.8298L119.113 23.8298V23.1111Z" fill="#455A64"/>
<path fill-rule="evenodd" clip-rule="evenodd" d="M119.113 27.4236L155.261 27.4236V28.1423L119.113 28.1423V27.4236Z" fill="#455A64"/>
<path fill-rule="evenodd" clip-rule="evenodd" d="M119.113 31.7361L155.261 31.7361V32.4548H119.113V31.7361Z" fill="#455A64"/>
<path fill-rule="evenodd" clip-rule="evenodd" d="M119.113 36.0483H155.261V36.7671H119.113V36.0483Z" fill="#455A64"/>
<path fill-rule="evenodd" clip-rule="evenodd" d="M119.113 40.3606H155.261V41.0793H119.113V40.3606Z" fill="#455A64"/>
<path fill-rule="evenodd" clip-rule="evenodd" d="M119.113 44.6731H155.261V45.3918H119.113V44.6731Z" fill="#455A64"/>
<path fill-rule="evenodd" clip-rule="evenodd" d="M119.113 48.9854H155.261V49.7041H119.113V48.9854Z" fill="#455A64"/>
<path fill-rule="evenodd" clip-rule="evenodd" d="M119.113 53.2976H155.261V54.0163H119.113V53.2976Z" fill="#455A64"/>
<path fill-rule="evenodd" clip-rule="evenodd" d="M85.0697 5.47048C85.2578 5.17777 85.3976 4.72997 85.3976 4.19834C85.3976 3.66671 85.2578 3.21892 85.0697 2.92621C84.8767 2.62576 84.6965 2.56858 84.6075 2.56858C84.5185 2.56858 84.3383 2.62576 84.1452 2.92621C83.9572 3.21892 83.8174 3.66671 83.8174 4.19834C83.8174 4.72997 83.9572 5.17777 84.1452 5.47048C84.3383 5.77092 84.5185 5.82811 84.6075 5.82811C84.6965 5.82811 84.8767 5.77092 85.0697 5.47048ZM84.6075 6.54683C85.4408 6.54683 86.1164 5.49538 86.1164 4.19834C86.1164 2.90131 85.4408 1.84985 84.6075 1.84985C83.7742 1.84985 83.0986 2.90131 83.0986 4.19834C83.0986 5.49538 83.7742 6.54683 84.6075 6.54683Z" fill="#455A64"/>
<path fill-rule="evenodd" clip-rule="evenodd" d="M125.707 13.7409C126.501 13.7409 127.144 13.0973 127.144 12.3034C127.144 11.5095 126.501 10.8659 125.707 10.8659C124.913 10.8659 124.27 11.5095 124.27 12.3034C124.27 13.0973 124.913 13.7409 125.707 13.7409ZM125.707 14.4596C126.898 14.4596 127.863 13.4942 127.863 12.3034C127.863 11.1126 126.898 10.1472 125.707 10.1472C124.516 10.1472 123.551 11.1126 123.551 12.3034C123.551 13.4942 124.516 14.4596 125.707 14.4596Z" fill="#455A64"/>
<path fill-rule="evenodd" clip-rule="evenodd" d="M133.174 13.7409C133.968 13.7409 134.611 13.0973 134.611 12.3034C134.611 11.5095 133.968 10.8659 133.174 10.8659C132.38 10.8659 131.736 11.5095 131.736 12.3034C131.736 13.0973 132.38 13.7409 133.174 13.7409ZM133.174 14.4596C134.365 14.4596 135.33 13.4942 135.33 12.3034C135.33 11.1126 134.365 10.1472 133.174 10.1472C131.983 10.1472 131.018 11.1126 131.018 12.3034C131.018 13.4942 131.983 14.4596 133.174 14.4596Z" fill="#455A64"/>
</svg>
