<svg width="83" height="75" viewBox="0 0 83 75" fill="none" xmlns="http://www.w3.org/2000/svg">
<path fill-rule="evenodd" clip-rule="evenodd" d="M38.7541 14.3684C38.4754 13.0194 38.0481 11.8052 37.7187 11.0561C37.6855 10.9805 37.7184 10.8919 37.7935 10.8575C37.8686 10.8231 37.9573 10.8558 37.9906 10.9314C38.3285 11.6991 38.7634 12.9353 39.047 14.3079C39.3475 15.7627 39.4816 17.387 39.1372 18.7736L39.1367 18.7756L39.1361 18.7777C38.6349 20.5757 37.765 21.8406 36.6781 22.6956C35.5925 23.5496 34.2999 23.9871 32.9635 24.1474C30.2953 24.4674 27.4294 23.6856 25.605 22.8689L25.5962 22.865L25.5879 22.8599C24.4549 22.1656 23.4868 21.8721 22.6682 21.8456C21.8516 21.8192 21.1742 22.0582 20.6189 22.4455C19.552 23.1895 18.9278 24.4876 18.6694 25.5174C18.6493 25.5975 18.5697 25.648 18.4891 25.6301C18.4085 25.6121 18.3575 25.5324 18.3775 25.4523C18.645 24.3808 19.2979 23.0021 20.4478 22.2002C21.0525 21.7785 21.7926 21.5181 22.6779 21.5468C23.5591 21.5752 24.5746 21.8897 25.7359 22.5999C27.531 23.4018 30.3358 24.1614 32.9279 23.8505C34.2238 23.695 35.4606 23.2728 36.4933 22.4605C37.5242 21.6496 38.3612 20.4423 38.8475 18.6994C39.1756 17.3764 39.0508 15.8042 38.7541 14.3684Z" fill="#FBC02D" stroke="#F1AC00" stroke-width="3"/>
<path fill-rule="evenodd" clip-rule="evenodd" d="M57.6288 22.7803C58.6494 21.8681 59.479 20.8944 59.9622 20.2347C60.011 20.1681 60.1042 20.1522 60.1715 20.2C60.2389 20.2478 60.2549 20.341 60.2062 20.4077C59.7115 21.0836 58.8668 22.0748 57.8281 23.0033C56.7271 23.9874 55.3961 24.9121 54.0232 25.3076L54.0212 25.3081L54.0191 25.3087C52.2116 25.7742 50.6812 25.654 49.3971 25.1406C48.1146 24.6279 47.089 23.7276 46.2816 22.6507C44.6696 20.5006 43.9127 17.6279 43.707 15.6397L43.706 15.6301L43.7063 15.6204C43.7406 14.292 43.5104 13.307 43.1238 12.585C42.7381 11.8647 42.1923 11.3977 41.5791 11.1106C40.4011 10.5591 38.9649 10.6681 37.9439 10.9596C37.8645 10.9823 37.7809 10.9386 37.7562 10.8598C37.7314 10.781 37.7749 10.697 37.8543 10.6743C38.9159 10.3698 40.4362 10.2453 41.7059 10.8398C42.3735 11.1524 42.9693 11.663 43.3874 12.4438C43.8036 13.2211 44.0394 14.2576 44.0055 15.6184C44.2092 17.5739 44.9548 20.3825 46.5209 22.4713C47.3038 23.5155 48.2882 24.3753 49.5081 24.863C50.7261 25.3499 52.1902 25.4706 53.9425 25.0196C55.2521 24.6418 56.5426 23.7513 57.6288 22.7803Z" fill="#FBC02D" stroke="#F1AC00" stroke-width="3"/>
<path fill-rule="evenodd" clip-rule="evenodd" d="M59.8026 43.424C61.1105 43.8563 62.3758 44.0925 63.1894 44.1813C63.2714 44.1903 63.3317 44.2631 63.3241 44.3453C63.3164 44.4275 63.2437 44.488 63.1616 44.4791C62.3277 44.3884 61.0396 44.1478 59.7087 43.7079C58.2983 43.2417 56.8241 42.5465 55.7949 41.5556L55.7934 41.5541L55.7919 41.5526C54.4846 40.2204 53.8232 38.835 53.6253 37.4664C53.4277 36.0994 53.6943 34.761 54.2229 33.5232C55.2782 31.0518 57.387 28.9594 59.0057 27.7867L59.0135 27.781L59.022 27.7764C60.1894 27.1417 60.9272 26.4495 61.359 25.7536C61.7897 25.0593 61.921 24.3531 61.8629 23.6785C61.7512 22.3827 60.9383 21.1936 60.1752 20.4554C60.1158 20.3979 60.1118 20.3037 60.1677 20.2429C60.2235 20.182 60.318 20.1776 60.3774 20.235C61.1721 21.0019 62.0404 22.2561 62.1608 23.6528C62.2241 24.3874 62.08 25.1586 61.6131 25.9112C61.1482 26.6604 60.3687 27.3831 59.1734 28.0345C57.5821 29.1891 55.5231 31.2396 54.4979 33.6406C53.9853 34.8409 53.7333 36.1233 53.9213 37.4236C54.1089 38.7219 54.7368 40.05 56.0038 41.3417C56.9861 42.2867 58.4106 42.9639 59.8026 43.424Z" fill="#FBC02D" stroke="#F1AC00" stroke-width="3"/>
<path fill-rule="evenodd" clip-rule="evenodd" d="M43.0883 55.5745C43.3689 56.9143 43.7981 58.1193 44.1283 58.8674C44.1616 58.943 44.1288 59.0316 44.0538 59.0661C43.9788 59.1006 43.89 59.0679 43.8566 58.9924C43.518 58.2262 43.0812 56.9994 42.7956 55.6358C42.4929 54.1904 42.3566 52.5755 42.6997 51.1886L42.7002 51.1865L42.7008 51.1845C43.2002 49.386 44.0688 48.1202 45.1549 47.2642C46.2396 46.4091 47.5318 45.9703 48.8681 45.8087C51.5359 45.486 54.4026 46.2651 56.2279 47.0799L56.2367 47.0838L56.2449 47.0889C57.3786 47.7821 58.347 48.0746 59.1656 48.1003C59.9822 48.1259 60.6594 47.8863 61.2144 47.4984C62.2805 46.7534 62.9034 45.4546 63.1608 44.4246C63.1808 44.3445 63.2604 44.2939 63.341 44.3118C63.4216 44.3297 63.4727 44.4093 63.4528 44.4894C63.1863 45.5612 62.5348 46.9405 61.3857 47.7435C60.7814 48.1658 60.0415 48.4269 59.1562 48.3992C58.275 48.3716 57.2592 48.0581 56.0972 47.349C54.3013 46.5489 51.4958 45.7921 48.904 46.1056C47.6083 46.2623 46.3718 46.6857 45.34 47.499C44.3098 48.311 43.474 49.5191 42.9895 51.2624C42.6627 52.5857 42.7897 54.1485 43.0883 55.5745Z" fill="#FBC02D" stroke="#F1AC00" stroke-width="3"/>
<path fill-rule="evenodd" clip-rule="evenodd" d="M24.0204 47.4854C23.0059 48.4173 22.1835 49.4075 21.7098 50.0747C21.662 50.1421 21.5691 50.1593 21.501 50.1126C21.4329 50.0658 21.4154 49.9729 21.4632 49.9055C21.9485 49.2214 22.7859 48.2134 23.8181 47.2652C24.9121 46.2602 26.2371 45.3111 27.6037 44.8946L27.6057 44.894L27.6078 44.8934C29.408 44.4002 30.9401 44.4971 32.2318 44.9907C33.5221 45.4837 34.5613 46.3682 35.3851 47.4326C37.0299 49.5578 37.8306 52.4185 38.0668 54.4034L38.0679 54.413L38.0678 54.4226C38.0538 55.7514 38.2991 56.7328 38.6967 57.4488C39.0934 58.1631 39.6463 58.6216 40.2638 58.8993C41.4501 59.4327 42.8845 59.3017 43.9009 58.9946C43.9799 58.9707 44.0642 59.0131 44.0901 59.0915C44.1161 59.1699 44.0739 59.2546 43.9949 59.2786C42.938 59.5992 41.4198 59.747 40.1412 59.172C39.4688 58.8697 38.8653 58.3683 38.4353 57.594C38.0072 56.8232 37.7556 55.7904 37.7687 54.4292C37.535 52.477 36.7465 49.6802 35.1486 47.6156C34.3498 46.5835 33.3524 45.739 32.1251 45.27C30.8998 44.8018 29.434 44.7035 27.6888 45.1813C26.3851 45.5791 25.1 46.4936 24.0204 47.4854Z" fill="#FBC02D" stroke="#F1AC00" stroke-width="3"/>
<path fill-rule="evenodd" clip-rule="evenodd" d="M21.7636 26.7041C20.5652 26.1755 19.4202 25.8457 18.6298 25.7566C18.5477 25.7473 18.4862 25.6756 18.4926 25.5933C18.499 25.5109 18.5708 25.4492 18.6529 25.4583C19.4858 25.5505 20.6661 25.8931 21.8842 26.4305C23.1785 27.0014 24.53 27.7985 25.5664 28.7661L25.568 28.7676L25.5695 28.769C26.8972 30.081 27.5799 31.456 27.7987 32.8214C28.0174 34.1853 27.7715 35.5276 27.262 36.7734C26.2448 39.2608 24.1685 41.3853 22.5681 42.5828L22.5603 42.5886L22.5519 42.5934C21.3944 43.246 20.6674 43.9494 20.2464 44.6519C19.8264 45.3528 19.7059 46.0609 19.7745 46.7345C19.9061 48.0285 20.7372 49.2049 21.5116 49.9313C21.5718 49.9878 21.5772 50.082 21.5224 50.1437C21.4675 50.2054 21.373 50.2112 21.3128 50.1548C20.5064 49.4001 19.6189 48.1595 19.477 46.7648C19.4024 46.0313 19.5346 45.258 19.9899 44.4982C20.4431 43.7419 21.2114 43.0073 22.3966 42.3377C23.9699 41.1586 25.997 39.0767 26.9852 36.6602C27.4792 35.4522 27.7115 34.166 27.5035 32.8688C27.2959 31.5736 26.6476 30.2553 25.3608 28.9832C24.3563 28.0459 23.0371 27.2659 21.7636 26.7041Z" fill="#FBC02D" stroke="#F1AC00" stroke-width="3"/>
</svg>
