<svg width="95" height="93" viewBox="0 0 95 93" fill="none" xmlns="http://www.w3.org/2000/svg">
<path fill-rule="evenodd" clip-rule="evenodd" d="M79.9747 31.5666C80.6388 32.1901 81.0575 32.8362 81.1308 33.4323L80.834 33.4688C80.7733 32.9753 80.4145 32.3897 79.77 31.7846C79.1295 31.1832 78.2235 30.5783 77.1046 30.0443C74.8674 28.9763 71.7952 28.1991 68.3361 28.2912C67.4629 28.3144 66.7544 27.8985 66.2613 27.148C65.7723 26.4037 65.4945 25.3318 65.4551 24.0244L65.4551 24.0221L65.4551 24.0198C65.4563 19.2513 64.4716 15.1906 62.7532 12.3629C61.0369 9.53851 58.5972 7.95356 55.6715 8.09146L55.6574 7.79276C58.7199 7.64842 61.2515 9.31583 63.0088 12.2076C64.7638 15.0956 65.755 19.2142 65.7541 24.0177C65.7927 25.2927 66.0637 26.3027 66.5112 26.9838C66.9549 27.6592 67.5713 28.0124 68.3281 27.9922C71.835 27.8989 74.954 28.6863 77.2334 29.7744C78.3729 30.3183 79.3066 30.9393 79.9747 31.5666Z" fill="#FBC02D" stroke="#000000" stroke-width="3"/>
<path fill-rule="evenodd" clip-rule="evenodd" d="M53.7655 8.32359C54.5607 7.87911 55.3031 7.67535 55.8935 7.78574L55.8386 8.07968C55.3498 7.98829 54.6831 8.15325 53.9114 8.58461C53.1445 9.01329 52.294 9.69404 51.4467 10.599C49.7523 12.4086 48.0825 15.102 47.1243 18.4271C46.8825 19.2664 46.2719 19.816 45.4074 20.0591C44.55 20.3002 43.4443 20.2409 42.1862 19.8831L42.184 19.8824L42.1818 19.8818C37.6368 18.4387 33.4685 18.1496 30.2536 18.9325C27.0425 19.7145 24.794 21.5608 24.0408 24.3912L23.7519 24.3143C24.5403 21.3515 26.8951 19.4426 30.1829 18.642C33.4663 17.8423 37.6918 18.1428 42.2702 19.5961C43.4972 19.9448 44.5419 19.9919 45.3264 19.7712C46.1043 19.5525 46.6274 19.0717 46.837 18.3443C47.8084 14.9733 49.502 12.2384 51.2284 10.3947C52.0914 9.47297 52.9656 8.77076 53.7655 8.32359Z" fill="#FBC02D" stroke="#000000" stroke-width="3"/>
<path fill-rule="evenodd" clip-rule="evenodd" d="M66.2859 63.5354C65.9088 64.3647 65.4315 64.9687 64.8905 65.2297L64.7606 64.9603C65.2085 64.7443 65.6477 64.2164 66.0137 63.4116C66.3775 62.6119 66.6592 61.5596 66.8055 60.3284C67.098 57.8667 66.8471 54.7077 65.6485 51.4615C65.346 50.6421 65.5122 49.8376 66.0645 49.1295C66.6123 48.4272 67.538 47.8198 68.7636 47.3625L68.7657 47.3617L68.7678 47.361C73.284 45.8301 76.813 43.5931 78.9388 41.0573C81.062 38.5246 81.5705 35.7263 80.5 33L81 32.9789C82.1206 35.8327 81.3418 38.6562 79.1679 41.2494C76.9969 43.8392 73.4151 46.1011 68.866 47.6434C67.6709 48.0897 66.8015 48.6707 66.3003 49.3134C65.8033 49.9505 65.6668 50.6477 65.9291 51.3579C67.1441 54.6489 67.4005 57.8556 67.1024 60.3637C66.9534 61.6175 66.6654 62.7012 66.2859 63.5354Z" fill="#FBC02D" stroke="#000000" stroke-width="3"/>
<path fill-rule="evenodd" clip-rule="evenodd" d="M31.3832 60.1438C30.4796 60.0282 29.7616 59.7505 29.3526 59.3105L29.5716 59.1069C29.9101 59.4711 30.5442 59.735 31.4211 59.8472C32.2926 59.9587 33.3812 59.9173 34.6007 59.6938C37.0391 59.2468 39.9833 58.0748 42.7312 55.9716C43.4248 55.4407 44.2426 55.3621 45.0822 55.6808C45.9148 55.997 46.7684 56.7022 47.567 57.7382L47.5684 57.74L47.5697 57.7419C50.3652 61.6051 53.544 64.3167 56.5942 65.5995C59.6407 66.8807 62.5464 66.7338 64.8353 64.9064L65.0219 65.1401C62.6259 67.0529 59.5975 67.1869 56.4783 65.8751C53.3631 64.565 50.1449 61.8103 47.3288 57.919C46.5497 56.9089 45.738 56.2497 44.976 55.9604C44.2206 55.6736 43.5142 55.7489 42.913 56.2091C40.1272 58.3413 37.139 59.5325 34.6546 59.9879C33.4126 60.2156 32.2922 60.2602 31.3832 60.1438Z" fill="#FBC02D" stroke="#000000" stroke-width="3"/>
<path fill-rule="evenodd" clip-rule="evenodd" d="M23.7231 26.2218C23.5423 25.329 23.5746 24.5598 23.8598 24.0312L24.123 24.1732C23.8869 24.6108 23.8407 25.296 24.0162 26.1625C24.1905 27.0236 24.5795 28.0412 25.183 29.1242C26.3896 31.2897 28.4454 33.7014 31.3199 35.6279C32.0455 36.1142 32.3827 36.8633 32.3506 37.7608C32.3187 38.6508 31.9251 39.6857 31.2006 40.7748L31.1993 40.7767L31.198 40.7786C28.4377 44.667 26.8911 48.5485 26.6563 51.8491C26.4217 55.1458 27.4944 57.8502 29.9603 59.4306L29.7989 59.6824C27.2177 58.028 26.1179 55.2032 26.358 51.8279C26.5978 48.457 28.1726 44.5244 30.9529 40.6073C31.6592 39.5451 32.0226 38.5646 32.0518 37.7501C32.0806 36.9425 31.7823 36.2978 31.1535 35.8763C28.2393 33.9232 26.1512 31.4761 24.9217 29.2697C24.3071 28.1668 23.905 27.1201 23.7231 26.2218Z" fill="#FBC02D" stroke="#000000" stroke-width="3"/>
</svg>
