<svg version="1.1" id="Слой_1" xmlns="http://www.w3.org/2000/svg" xmlns:xlink="http://www.w3.org/1999/xlink" x="0px" y="0px"
	 viewBox="0 0 107.3 62" style="enable-background:new 0 0 107.3 62;" xml:space="preserve" width="107.3" height="62">
<style type="text/css">
	.st0{fill:#FBC02D;stroke:#F1AC00;stroke-width:3;}
</style>
<path class="st0" d="M58.1,25.3c0.7,0.6,1.1,1.3,1.2,1.9l-0.3,0c-0.1-0.5-0.4-1.1-1.1-1.7c-0.6-0.6-1.5-1.2-2.7-1.7
	c-2.2-1.1-5.3-1.8-8.8-1.8c-0.9,0-1.6-0.4-2.1-1.1c-0.5-0.7-0.8-1.8-0.8-3.1v0v0c0-4.8-1-8.8-2.7-11.7c-1.7-2.8-4.2-4.4-7.1-4.3
	l0-0.3c3.1-0.1,5.6,1.5,7.4,4.4c1.8,2.9,2.7,7,2.7,11.8c0,1.3,0.3,2.3,0.8,3c0.4,0.7,1.1,1,1.8,1c3.5-0.1,6.6,0.7,8.9,1.8
	C56.5,24.1,57.4,24.7,58.1,25.3z"/>
<path class="st0" d="M31.8,2.1c0.8-0.4,1.5-0.6,2.1-0.5l-0.1,0.3c-0.5-0.1-1.2,0.1-1.9,0.5c-0.8,0.4-1.6,1.1-2.5,2
	c-1.7,1.8-3.4,4.5-4.3,7.8c-0.2,0.8-0.9,1.4-1.7,1.6c-0.9,0.2-2,0.2-3.2-0.2l0,0l0,0c-4.5-1.4-8.7-1.7-11.9-0.9
	c-3.2,0.8-5.5,2.6-6.2,5.5l-0.3-0.1c0.8-3,3.1-4.9,6.4-5.7c3.3-0.8,7.5-0.5,12.1,1c1.2,0.3,2.3,0.4,3.1,0.2c0.8-0.2,1.3-0.7,1.5-1.4
	c1-3.4,2.7-6.1,4.4-7.9C30.2,3.2,31,2.5,31.8,2.1z"/>
<path class="st0" d="M44.4,57.3C44,58.1,43.5,58.7,43,59l-0.1-0.3c0.4-0.2,0.9-0.7,1.3-1.5c0.4-0.8,0.6-1.9,0.8-3.1
	c0.3-2.5,0-5.6-1.2-8.9c-0.3-0.8-0.1-1.6,0.4-2.3c0.5-0.7,1.5-1.3,2.7-1.8l0,0l0,0c4.5-1.5,8-3.8,10.2-6.3c2.1-2.5,2.6-5.3,1.6-8.1
	l0.5,0c1.1,2.9,0.3,5.7-1.8,8.3c-2.2,2.6-5.8,4.9-10.3,6.4c-1.2,0.4-2.1,1-2.6,1.7c-0.5,0.6-0.6,1.3-0.4,2c1.2,3.3,1.5,6.5,1.2,9
	C45,55.4,44.7,56.4,44.4,57.3z"/>
<path class="st0" d="M9.5,53.9c-0.9-0.1-1.6-0.4-2-0.8l0.2-0.2c0.3,0.4,1,0.6,1.8,0.7c0.9,0.1,2,0.1,3.2-0.2
	c2.4-0.4,5.4-1.6,8.1-3.7c0.7-0.5,1.5-0.6,2.4-0.3c0.8,0.3,1.7,1,2.5,2.1l0,0l0,0c2.8,3.9,6,6.6,9,7.9c3,1.3,6,1.1,8.2-0.7l0.2,0.2
	c-2.4,1.9-5.4,2-8.5,0.7c-3.1-1.3-6.3-4.1-9.1-8c-0.8-1-1.6-1.7-2.4-2c-0.8-0.3-1.5-0.2-2.1,0.2c-2.8,2.1-5.8,3.3-8.3,3.8
	C11.5,54,10.4,54,9.5,53.9z"/>
<path class="st0" d="M1.8,20c-0.2-0.9-0.1-1.7,0.1-2.2l0.3,0.1c-0.2,0.4-0.3,1.1-0.1,2c0.2,0.9,0.6,1.9,1.2,3
	c1.2,2.2,3.3,4.6,6.1,6.5c0.7,0.5,1.1,1.2,1,2.1c0,0.9-0.4,1.9-1.2,3l0,0l0,0C6.5,38.4,5,42.3,4.7,45.6c-0.2,3.3,0.8,6,3.3,7.6
	l-0.2,0.3c-2.6-1.7-3.7-4.5-3.4-7.9c0.2-3.4,1.8-7.3,4.6-11.2c0.7-1.1,1.1-2,1.1-2.9c0-0.8-0.3-1.5-0.9-1.9c-2.9-2-5-4.4-6.2-6.6
	C2.4,21.9,2,20.9,1.8,20z"/>
<path class="st0" d="M81.1,8c-0.3-1.3-0.7-2.6-1-3.3c0-0.1,0-0.2,0.1-0.2c0.1,0,0.2,0,0.2,0.1c0.3,0.8,0.8,2,1.1,3.4
	c0.3,1.5,0.4,3.1,0.1,4.5l0,0l0,0c-0.5,1.8-1.4,3.1-2.5,3.9c-1.1,0.9-2.4,1.3-3.7,1.5c-2.7,0.3-5.5-0.5-7.4-1.3l0,0l0,0
	c-1.1-0.7-2.1-1-2.9-1c-0.8,0-1.5,0.2-2,0.6c-1.1,0.7-1.7,2-1.9,3.1c0,0.1-0.1,0.1-0.2,0.1c-0.1,0-0.1-0.1-0.1-0.2
	c0.3-1.1,0.9-2.5,2.1-3.3c0.6-0.4,1.3-0.7,2.2-0.7c0.9,0,1.9,0.3,3.1,1.1c1.8,0.8,4.6,1.6,7.2,1.3c1.3-0.2,2.5-0.6,3.6-1.4
	c1-0.8,1.9-2,2.4-3.8C81.5,11,81.4,9.5,81.1,8z"/>
<path class="st0" d="M100,16.4c1-0.9,1.9-1.9,2.3-2.5c0-0.1,0.1-0.1,0.2,0c0.1,0,0.1,0.1,0,0.2c-0.5,0.7-1.3,1.7-2.4,2.6
	c-1.1,1-2.4,1.9-3.8,2.3l0,0l0,0c-1.8,0.5-3.3,0.3-4.6-0.2c-1.3-0.5-2.3-1.4-3.1-2.5c-1.6-2.2-2.4-5-2.6-7l0,0l0,0
	c0-1.3-0.2-2.3-0.6-3c-0.4-0.7-0.9-1.2-1.5-1.5c-1.2-0.6-2.6-0.4-3.6-0.2c-0.1,0-0.2,0-0.2-0.1c0-0.1,0-0.2,0.1-0.2
	C81.2,4,82.8,3.9,84,4.5c0.7,0.3,1.3,0.8,1.7,1.6c0.4,0.8,0.7,1.8,0.6,3.2c0.2,2,0.9,4.8,2.5,6.9c0.8,1,1.8,1.9,3,2.4
	c1.2,0.5,2.7,0.6,4.4,0.2C97.6,18.3,98.9,17.4,100,16.4z"/>
<path class="st0" d="M102.1,37.1c1.3,0.4,2.6,0.7,3.4,0.8c0.1,0,0.1,0.1,0.1,0.2c0,0.1-0.1,0.1-0.2,0.1c-0.8-0.1-2.1-0.3-3.5-0.8
	c-1.4-0.5-2.9-1.2-3.9-2.2l0,0l0,0c-1.3-1.3-2-2.7-2.2-4.1c-0.2-1.4,0.1-2.7,0.6-3.9c1.1-2.5,3.2-4.6,4.8-5.7l0,0l0,0
	c1.2-0.6,1.9-1.3,2.3-2c0.4-0.7,0.6-1.4,0.5-2.1c-0.1-1.3-0.9-2.5-1.7-3.2c-0.1-0.1-0.1-0.2,0-0.2c0.1-0.1,0.2-0.1,0.2,0
	c0.8,0.8,1.7,2,1.8,3.4c0.1,0.7-0.1,1.5-0.5,2.3c-0.5,0.7-1.2,1.5-2.4,2.1c-1.6,1.2-3.7,3.2-4.7,5.6c-0.5,1.2-0.8,2.5-0.6,3.8
	c0.2,1.3,0.8,2.6,2.1,3.9C99.3,35.9,100.7,36.6,102.1,37.1z"/>
<path class="st0" d="M85.4,49.2c0.3,1.3,0.7,2.5,1,3.3c0,0.1,0,0.2-0.1,0.2c-0.1,0-0.2,0-0.2-0.1c-0.3-0.8-0.8-2-1.1-3.4
	c-0.3-1.4-0.4-3.1-0.1-4.4l0,0l0,0c0.5-1.8,1.4-3.1,2.5-3.9c1.1-0.9,2.4-1.3,3.7-1.5c2.7-0.3,5.5,0.5,7.4,1.3l0,0l0,0
	c1.1,0.7,2.1,1,2.9,1c0.8,0,1.5-0.2,2-0.6c1.1-0.7,1.7-2,1.9-3.1c0-0.1,0.1-0.1,0.2-0.1c0.1,0,0.1,0.1,0.1,0.2
	c-0.3,1.1-0.9,2.5-2.1,3.3c-0.6,0.4-1.3,0.7-2.2,0.7c-0.9,0-1.9-0.3-3.1-1.1c-1.8-0.8-4.6-1.6-7.2-1.2c-1.3,0.2-2.5,0.6-3.6,1.4
	c-1,0.8-1.9,2-2.4,3.8C85,46.2,85.1,47.8,85.4,49.2z"/>
<path class="st0" d="M66.3,41.1c-1,0.9-1.8,1.9-2.3,2.6c0,0.1-0.1,0.1-0.2,0c-0.1,0-0.1-0.1,0-0.2c0.5-0.7,1.3-1.7,2.4-2.6
	c1.1-1,2.4-2,3.8-2.4l0,0l0,0c1.8-0.5,3.3-0.4,4.6,0.1c1.3,0.5,2.3,1.4,3.2,2.4c1.6,2.1,2.4,5,2.7,7l0,0l0,0c0,1.3,0.2,2.3,0.6,3
	c0.4,0.7,0.9,1.2,1.6,1.5c1.2,0.5,2.6,0.4,3.6,0.1c0.1,0,0.2,0,0.2,0.1c0,0.1,0,0.2-0.1,0.2c-1.1,0.3-2.6,0.5-3.9-0.1
	c-0.7-0.3-1.3-0.8-1.7-1.6c-0.4-0.8-0.7-1.8-0.7-3.2c-0.2-2-1-4.7-2.6-6.8c-0.8-1-1.8-1.9-3-2.3c-1.2-0.5-2.7-0.6-4.4-0.1
	C68.7,39.2,67.4,40.2,66.3,41.1z"/>
<path class="st0" d="M64.1,20.4c-1.2-0.5-2.3-0.9-3.1-0.9c-0.1,0-0.1-0.1-0.1-0.2c0-0.1,0.1-0.1,0.2-0.1c0.8,0.1,2,0.4,3.2,1
	c1.3,0.6,2.6,1.4,3.7,2.3l0,0l0,0c1.3,1.3,2,2.7,2.2,4.1c0.2,1.4,0,2.7-0.5,4c-1,2.5-3.1,4.6-4.7,5.8l0,0l0,0
	c-1.2,0.7-1.9,1.4-2.3,2.1c-0.4,0.7-0.5,1.4-0.5,2.1c0.1,1.3,1,2.5,1.7,3.2c0.1,0.1,0.1,0.2,0,0.2c-0.1,0.1-0.1,0.1-0.2,0
	c-0.8-0.8-1.7-2-1.8-3.4c-0.1-0.7,0.1-1.5,0.5-2.3c0.5-0.8,1.2-1.5,2.4-2.2c1.6-1.2,3.6-3.3,4.6-5.7c0.5-1.2,0.7-2.5,0.5-3.8
	c-0.2-1.3-0.9-2.6-2.1-3.9C66.7,21.7,65.4,20.9,64.1,20.4z"/>
</svg>
