<svg width="71" height="71" viewBox="0 0 71 71" fill="none" xmlns="http://www.w3.org/2000/svg">
<path d="M12.2867 65.6806L5.16825 58.5622C4.10538 57.4993 4.10538 55.7761 5.16825 54.7133L24.0095 35.872C25.0724 34.8091 26.7956 34.8091 27.8584 35.872L34.9769 42.9904C36.0398 44.0533 36.0398 45.7765 34.9769 46.8394L16.1356 65.6806C15.0727 66.7435 13.3496 66.7435 12.2867 65.6806Z" stroke="#F1AC00" stroke-width="3" stroke-miterlimit="10" stroke-linecap="round" stroke-linejoin="round"/>
<path d="M36.9962 41.1039L35.9589 42.1498L35.043 43.0571L34.5587 42.5729L28.2752 36.2894L27.791 35.8052L28.7069 34.8978L29.7442 33.852C30.7034 32.8928 32.2505 32.8928 33.2097 33.852L36.9955 37.6377C37.9554 38.5976 37.9554 40.1447 36.9962 41.1039Z" stroke="#F1AC00" stroke-width="3" stroke-miterlimit="10" stroke-linecap="round" stroke-linejoin="round"/>
<path d="M66.0368 7.11704L63.7314 4.81238" stroke="#F1AC00" stroke-width="3" stroke-miterlimit="10" stroke-linecap="round" stroke-linejoin="round"/>
<path d="M54.3075 13.5339L37.1688 30.6719L33.5996 34.2418L36.6072 37.2494L40.1763 33.6795L57.315 16.5415" stroke="#F1AC00" stroke-width="3" stroke-miterlimit="10" stroke-linecap="round" stroke-linejoin="round"/>
<path d="M57.3111 16.5415L61.199 16.8135L66.3856 7.46631L63.3816 4.46301L54.0352 9.64885L54.3071 13.5375" stroke="#F1AC00" stroke-width="3" stroke-miterlimit="10" stroke-linecap="round" stroke-linejoin="round"/>
<path d="M28.7074 34.8985L20.5488 26.7399" stroke="#F1AC00" stroke-width="3" stroke-miterlimit="10" stroke-linecap="round" stroke-linejoin="round"/>
<path d="M44.1091 50.2999L35.959 42.1498" stroke="#F1AC00" stroke-width="3" stroke-miterlimit="10" stroke-linecap="round" stroke-linejoin="round"/>
<path d="M50.4618 43.9646L40.1768 33.6796" stroke="#F1AC00" stroke-width="3" stroke-miterlimit="10" stroke-linecap="round" stroke-linejoin="round"/>
<path d="M37.1681 30.6719L26.8838 20.3876" stroke="#F1AC00" stroke-width="3" stroke-miterlimit="10" stroke-linecap="round" stroke-linejoin="round"/>
<path d="M20.5499 26.7364C16.3794 28.4297 11.4172 27.587 8.03402 24.2031C4.85535 21.0244 3.91886 16.4549 5.22455 12.4554" stroke="#F1AC00" stroke-width="3" stroke-miterlimit="10" stroke-linecap="round" stroke-linejoin="round"/>
<path d="M12.6074 5.07365C16.6026 3.76441 21.1764 4.70445 24.3551 7.88312C27.7347 11.2627 28.5817 16.2206 26.8884 20.3919" stroke="#F1AC00" stroke-width="3" stroke-miterlimit="10" stroke-linecap="round" stroke-linejoin="round"/>
<path d="M44.1115 50.2992C42.4181 54.4697 43.2609 59.4319 46.6447 62.8151C49.8234 65.9937 54.393 66.9302 58.3924 65.6245" stroke="#F1AC00" stroke-width="3" stroke-miterlimit="10" stroke-linecap="round" stroke-linejoin="round"/>
<path d="M50.458 43.961C54.6285 42.2677 59.5865 43.114 62.9668 46.4943C66.1455 49.673 67.0855 54.2461 65.7763 58.242" stroke="#F1AC00" stroke-width="3" stroke-miterlimit="10" stroke-linecap="round" stroke-linejoin="round"/>
<path d="M12.6082 5.07361L17.4951 9.96054C18.8604 11.3259 18.8604 13.5347 17.4986 14.8957L15.0477 17.3467C13.6859 18.7084 11.4778 18.7084 10.1125 17.3431L5.22559 12.4562" stroke="#F1AC00" stroke-width="3" stroke-miterlimit="10" stroke-linecap="round" stroke-linejoin="round"/>
<path d="M58.3918 65.6238L53.5049 60.7369C52.1396 59.3715 52.1396 57.1627 53.5014 55.8016L55.9523 53.3507C57.3141 51.9889 59.5222 51.9889 60.8875 53.3543L65.7744 58.2412" stroke="#F1AC00" stroke-width="3" stroke-miterlimit="10" stroke-linecap="round" stroke-linejoin="round"/>
</svg>
