<svg width="75" height="78" viewBox="0 0 75 78" fill="none" xmlns="http://www.w3.org/2000/svg">
<path d="M31.6406 2.43201C29.6484 2.43201 28.0083 4.0928 28.0083 6.05043V6.16977C21.0942 9.66979 16.7576 16.6696 16.7576 24.3222V26.636C16.7576 26.636 16.758 26.695 16.6409 26.695L15.3511 27.0507C14.5894 27.288 14.0625 27.9408 14.0625 28.7713V34.6445C14.0625 35.6529 14.8242 36.4241 15.8203 36.4241H59.1797C60.1758 36.4241 60.9375 35.6529 60.9375 34.6445V28.7713C60.9375 28.0001 60.4106 27.3471 59.6489 27.1098L58.3591 26.7541C58.3006 26.7541 58.2424 26.695 58.2424 26.695V24.3222C58.2424 16.6696 53.8481 9.66979 47.0512 6.16977V6.05043C47.0512 4.03348 45.4099 2.43201 43.4177 2.43201H31.6406ZM31.5239 5.99134H43.301C43.4182 5.99134 43.4177 6.05043 43.4177 6.05043V7.35622C43.4177 7.47486 43.4175 7.59328 43.4761 7.71192V15.8989C43.4761 16.9073 44.2378 17.6785 45.2339 17.6785C46.23 17.6785 46.9917 16.9073 46.9917 15.8989L47.0512 10.2247C50.8032 13.6488 54.6384 15.8989 54.6384 24.4403V26.7541C54.6384 26.9914 54.6968 27.2294 54.6968 27.4667H29.7066C28.7105 27.4667 27.9488 28.2379 27.9488 29.2464C27.9488 30.2548 28.7105 31.026 29.7066 31.026H56.794V32.9239H17.5781V30.1953C19.1602 29.78 20.2148 28.2967 20.2148 26.695V24.3222C20.2148 18.6272 23.1443 13.348 27.8904 10.2632V15.7795C27.8904 16.788 28.6521 17.5592 29.6482 17.5592C30.6443 17.5592 31.406 16.788 31.406 15.7795V7.29713V6.05043C31.406 5.99111 31.4653 5.99134 31.5239 5.99134ZM19.9471 39.0948C19.7246 39.0855 19.4973 39.1228 19.2776 39.2118C18.3401 39.5677 17.8709 40.5767 18.2224 41.4665C24.6091 59.5598 33.8086 61.5168 37.5 61.5168C41.1914 61.5168 50.3906 59.5598 56.8359 41.4665C57.1875 40.5174 56.6597 39.5084 55.7808 39.2118C54.8433 38.8559 53.8479 39.3902 53.5549 40.2801C47.8713 56.2378 40.4297 57.9574 37.5 57.9574C34.5703 57.9574 27.1284 56.2378 21.5034 40.2801C21.2398 39.5682 20.6145 39.1226 19.9471 39.0948ZM30.2341 60.9838C30.1756 60.9838 30.1176 60.9836 30.0591 61.0429H29.9995C29.9409 61.0429 29.9412 61.0426 29.9412 61.102H29.8244L16.8159 66.441C15.937 66.7969 15.4685 67.8649 15.8787 68.7548C16.1716 69.4666 16.8166 69.8821 17.5198 69.8821C17.7541 69.8821 17.9883 69.8221 18.1641 69.7628L29.5315 65.0761C31.0549 68.0422 34.043 69.8821 37.5 69.8821C40.957 69.8821 43.9451 68.0422 45.4685 65.0761L56.8359 69.7628C57.0703 69.8814 57.3045 69.8821 57.4802 69.8821C58.1834 69.8821 58.8284 69.4666 59.1213 68.7548C59.5315 67.8649 59.063 66.7969 58.1841 66.441L45.1756 61.102H45.0588C45.0002 61.102 45.0005 61.1022 45.0005 61.0429H44.9409C44.8824 61.0429 44.8244 61.0431 44.7659 60.9838H44.648H44.4729H44.2966C44.2381 60.9838 44.1801 60.9836 44.1216 61.0429C44.063 61.0429 44.0039 61.0426 43.9453 61.102C43.8867 61.102 43.8277 61.1611 43.7691 61.1611C43.7105 61.1611 43.6523 61.2201 43.6523 61.2201C43.5938 61.2201 43.5356 61.2802 43.5356 61.3395C43.477 61.3988 43.4177 61.3983 43.4177 61.4577L43.301 61.577C43.2424 61.6363 43.2417 61.6952 43.1831 61.6952C43.1245 61.7545 43.125 61.8134 43.0664 61.8134C43.0078 61.8727 43.0083 61.9325 42.9497 61.9918C42.9497 61.9918 42.9488 62.0509 42.8902 62.0509V62.1702C42.8902 62.2295 42.8904 62.2291 42.8318 62.2884C42.0115 65.3138 39.4922 66.3819 37.5 66.3819C35.5078 66.3819 32.9885 65.3138 32.1682 62.2884C32.1682 62.2291 32.1684 62.2293 32.1098 62.2293V62.11C32.1098 62.11 32.1089 62.0509 32.0503 62.0509C32.0503 61.9916 31.992 61.9329 31.992 61.8736C31.9334 61.8143 31.9338 61.7545 31.8752 61.6952L31.7574 61.577C31.6988 61.5177 31.6992 61.4577 31.6406 61.4577L31.5239 61.3395C31.4653 61.2802 31.4062 61.2795 31.3477 61.2201C31.2891 61.2201 31.2895 61.1611 31.2309 61.1611C31.1723 61.1611 31.1133 61.102 31.0547 61.102C30.9961 61.102 30.938 61.0429 30.938 61.0429C30.8794 61.0429 30.8203 60.9838 30.7617 60.9838H30.5855H30.4104H30.2341Z" fill="#000000"/>
</svg>
