<svg width="66" height="66" viewBox="0 0 66 66" fill="none" xmlns="http://www.w3.org/2000/svg">
<path d="M9.91561 63.6805L2.79715 56.562C1.73428 55.4992 1.73428 53.776 2.79715 52.7131L21.6384 33.8719C22.7013 32.809 24.4245 32.809 25.4873 33.8719L32.6058 40.9903C33.6687 42.0532 33.6687 43.7764 32.6058 44.8392L13.7645 63.6805C12.7017 64.7434 10.9785 64.7434 9.91561 63.6805Z" stroke="#F1AC00" stroke-width="3" stroke-miterlimit="10" stroke-linecap="round" stroke-linejoin="round"/>
<path d="M34.6251 39.1038L33.5878 40.1496L32.6719 41.057L32.1876 40.5728L25.9041 34.2893L25.4199 33.8051L26.3358 32.8977L27.3731 31.8519C28.3323 30.8926 29.8794 30.8926 30.8386 31.8519L34.6244 35.6376C35.5843 36.5975 35.5843 38.1446 34.6251 39.1038Z" stroke="#F1AC00" stroke-width="3" stroke-miterlimit="10" stroke-linecap="round" stroke-linejoin="round"/>
<path d="M63.6657 5.11692L61.3604 2.81226" stroke="#F1AC00" stroke-width="3" stroke-miterlimit="10" stroke-linecap="round" stroke-linejoin="round"/>
<path d="M51.9364 11.5338L34.7977 28.6718L31.2285 32.2417L34.2361 35.2492L37.8052 31.6794L54.9439 14.5414" stroke="#F1AC00" stroke-width="3" stroke-miterlimit="10" stroke-linecap="round" stroke-linejoin="round"/>
<path d="M54.94 14.5414L58.828 14.8133L64.0145 5.46619L61.0105 2.46289L51.6641 7.64873L51.936 11.5374" stroke="#F1AC00" stroke-width="3" stroke-miterlimit="10" stroke-linecap="round" stroke-linejoin="round"/>
<path d="M22.1289 28.4999L18.1777 24.7397" stroke="#F1AC00" stroke-width="3" stroke-miterlimit="10" stroke-linecap="round" stroke-linejoin="round"/>
<path d="M41.738 48.2998L38.1289 44.4999" stroke="#F1AC00" stroke-width="3" stroke-miterlimit="10" stroke-linecap="round" stroke-linejoin="round"/>
<path d="M48.0907 41.9645L41.1289 34.9999" stroke="#F1AC00" stroke-width="3" stroke-miterlimit="10" stroke-linecap="round" stroke-linejoin="round"/>
<path d="M31.1289 24.4999L24.5127 18.3875" stroke="#F1AC00" stroke-width="3" stroke-miterlimit="10" stroke-linecap="round" stroke-linejoin="round"/>
<path d="M18.1788 24.7363C14.0083 26.4296 9.04608 25.5868 5.66293 22.203C2.48426 19.0243 1.54777 14.4548 2.85346 10.4553" stroke="#F1AC00" stroke-width="3" stroke-miterlimit="10" stroke-linecap="round" stroke-linejoin="round"/>
<path d="M10.2363 3.07352C14.2315 1.76428 18.8053 2.70432 21.984 5.883C25.3636 9.2626 26.2106 14.2205 24.5173 18.3918" stroke="#F1AC00" stroke-width="3" stroke-miterlimit="10" stroke-linecap="round" stroke-linejoin="round"/>
<path d="M41.7404 48.2991C40.047 52.4696 40.8898 57.4318 44.2737 60.8149C47.4523 63.9936 52.0219 64.9301 56.0213 63.6244" stroke="#F1AC00" stroke-width="3" stroke-miterlimit="10" stroke-linecap="round" stroke-linejoin="round"/>
<path d="M48.0869 41.9609C52.2575 40.2675 57.2154 41.1139 60.5957 44.4942C63.7744 47.6728 64.7144 52.246 63.4052 56.2418" stroke="#F1AC00" stroke-width="3" stroke-miterlimit="10" stroke-linecap="round" stroke-linejoin="round"/>
<path d="M10.2371 3.07349L15.124 7.96042C16.4893 9.32575 16.4893 11.5346 15.1275 12.8956L12.6766 15.3465C11.3148 16.7083 9.10675 16.7083 7.74142 15.343L2.85449 10.4561" stroke="#F1AC00" stroke-width="3" stroke-miterlimit="10" stroke-linecap="round" stroke-linejoin="round"/>
<path d="M56.0207 63.6237L51.1338 58.7367C49.7685 57.3714 49.7685 55.1626 51.1303 53.8015L53.5812 51.3506C54.943 49.9888 57.1511 49.9888 58.5164 51.3542L63.4033 56.2411" stroke="#F1AC00" stroke-width="3" stroke-miterlimit="10" stroke-linecap="round" stroke-linejoin="round"/>
</svg>
