<svg xmlns="http://www.w3.org/2000/svg" viewBox="0 0 66 66"><path fill="none" stroke-width="3" stroke-linecap="round" stroke-linejoin="round" stroke-miterlimit="10" d="M9.9 63.7l-7.1-7.1c-1.1-1.1-1.1-2.8 0-3.8L21.6 34c1.1-1.1 2.8-1.1 3.8 0 0 0 0 0 0 0l7.1 7.1c1.1 1.1 1.1 2.8 0 3.8 0 0 0 0 0 0L13.8 63.7c-1.1 1-2.8 1-3.9 0zm24.7-24.6l-1 1-.9.9-.5-.5-6.3-6.3-.5-.5.9-.9 1-1c1-1 2.5-1 3.5 0l3.8 3.8c1 1 1 2.5 0 3.5zm29.1-34l-2.3-2.3m-9.5 8.7L34.8 28.7l-3.6 3.6 3 3 3.6-3.6 17.1-17.1m0-.1l3.9.3L64 5.5l-3-3-9.3 5.2.3 3.9M22.1 28.5l-4-3.8m23.6 23.6l-3.6-3.8m10-2.5l-7-7m-10-10.5l-6.6-6.1m-6.3 6.3c-4.2 1.7-9.2.9-12.5-2.5-3.1-3.1-4.2-7.6-2.8-11.7m7.3-7.4c4.1-1.4 8.7-.3 11.7 2.8 3.4 3.4 4.2 8.3 2.5 12.5m17.3 29.9c-1.7 4.2-.8 9.1 2.5 12.5 3.1 3.1 7.6 4.2 11.7 2.8M48.1 42c4.3-1.7 9.2-.7 12.5 2.5 3.1 3.1 4.2 7.6 2.8 11.7M10.2 3.1L15.1 8c1.4 1.4 1.4 3.6 0 4.9 0 0 0 0 0 0l-2.4 2.4c-1.4 1.4-3.6 1.4-4.9 0 0 0 0 0 0 0l-4.9-4.9M56 63.6l-4.9-4.9c-1.4-1.4-1.4-3.6 0-4.9 0 0 0 0 0 0l2.5-2.5c1.4-1.4 3.6-1.4 4.9 0 0 0 0 0 0 0l4.9 4.9"/></svg>
