<svg width="28" height="32" viewBox="0 0 28 32" fill="none" xmlns="http://www.w3.org/2000/svg">
<path d="M26.4328 26.2618L17.6719 10.0919C17.8936 9.56902 18.0162 8.99462 18.0162 8.39206C18.0162 6.09094 16.2268 4.2039 13.9669 4.03878V0.90918H13.3269V4.03878C11.0668 4.2039 9.27732 6.09062 9.27732 8.39206C9.27732 9.26022 9.53492 10.0679 9.973 10.7489L1.5682 26.2618C1.20692 26.929 1.45556 27.7661 2.12276 28.1274L3.5442 28.8977L2.4386 30.9383L3.00148 31.2433L13.0402 12.714C13.2389 12.7418 13.4405 12.761 13.6469 12.761C14.0783 12.761 14.494 12.6957 14.8879 12.5789L25.0002 31.2433L25.5628 30.9383L24.4572 28.8977L25.8783 28.1274C26.5452 27.7665 26.7938 26.9293 26.4328 26.2618ZM3.84916 28.3354L2.42804 27.5652C2.07092 27.3719 1.9378 26.9239 2.1314 26.5671L10.3999 11.3053C10.9285 11.8941 11.6117 12.3405 12.388 12.5748L3.84916 28.3354ZM9.91732 8.39206C9.91732 6.33574 11.5906 4.66278 13.6469 4.66278C15.7032 4.66278 17.3762 6.33574 17.3762 8.39206C17.3762 10.4484 15.7029 12.1213 13.6469 12.1213C11.5903 12.1213 9.91732 10.4484 9.91732 8.39206ZM25.573 27.5652L24.1519 28.3351L15.4901 12.3479C16.2344 11.9997 16.8652 11.45 17.31 10.7665L25.8706 26.5671C26.0632 26.9239 25.9301 27.3716 25.573 27.5652Z" stroke="#333333"/>
</svg>
