<svg xmlns="http://www.w3.org/2000/svg" viewBox="0 0 55 64"><path d="M25.3 22.3c-.7 0-1.3-.6-1.3-1.3 0-3.5 2.8-6.3 6.3-6.3.7 0 1.3.6 1.3 1.4-.1.7-.7 1.3-1.4 1.3-2 0-3.6 1.6-3.6 3.6-.1.7-.6 1.3-1.3 1.3zm29.4 30l-5.4 10.6-12.7-23.4c-2.1.5-4.3.8-6.5.8V46c0 .7-.6 1.3-1.4 1.3-.7 0-1.3-.6-1.3-1.3v-5.6c-2.4-.1-4.8-.4-7.2-1l-3.6 6.1c.1.6.2 1.2.2 1.8 0 2.6-1.2 4.9-3 6.4L9 63.7l-5.5-9.8C1.5 52.4.2 50 .2 47.3.3 42.7 4 39 8.5 39h.2l2.1-3.4c-2.6-1.5-5.1-3.4-7.3-5.7-.5-.5-.5-1.4 0-1.9s1.4-.6 1.9 0c2.1 2.1 4.4 3.9 6.9 5.3l7.5-12.1c-.1-.4-.1-.8-.1-1.2 0-3.3 1.8-6.2 4.5-7.8h-.4V5.3c0-2.8 2.2-5 5-5s5 2.2 5 5v7.1C36.3 14 38 16.8 38 20c0 .3 0 .7-.1 1l6.8 12.7c2.7-1.5 5.3-3.4 7.6-5.7.5-.5 1.4-.6 1.9 0 .5.5.6 1.4 0 1.9-2.5 2.5-5.3 4.5-8.2 6.1l8.7 16.3zM26.5 11.2c.7-.2 1.5-.3 2.3-.3.8 0 1.6.1 2.3.3V5.3c0-1.3-1-2.3-2.3-2.3-1.3 0-2.3 1-2.3 2.3v5.9zm-4 8.9c.1 3.5 2.9 6.4 6.4 6.4 3.6 0 6.5-2.8 6.6-6.4 0-3.5-2.8-6.5-6.4-6.5h-.2c-3.6 0-6.4 2.9-6.4 6.5zM10 55.5c-.5.1-1 .1-1.5.1-.4 0-.7 0-1-.1l1.3 2.4 1.2-2.4zm4.2-8.2c0-3.1-2.5-5.6-5.6-5.6-3.1 0-5.6 2.5-5.6 5.6 0 3.1 2.5 5.6 5.6 5.6 3.1 0 5.6-2.5 5.6-5.6zm3.4-8.7c-1.5-.5-2.9-1.1-4.3-1.7l-1.7 2.8c1.5.6 2.8 1.6 3.7 2.9l2.3-4zM24 27.7c-1.2-.8-2.3-1.9-3-3.2l-6.2 10c1.4.7 2.8 1.2 4.3 1.7l4.9-8.5zM35.3 37l-4.4-8.2c-.6.1-1.3.2-2 .2-.8 0-1.6-.1-2.4-.3l-4.8 8.1c1.9.4 3.8.7 5.8.8v-3.8c.1-.7.7-1.3 1.4-1.3s1.3.6 1.3 1.3v3.8c1.7 0 3.4-.2 5.1-.6zm2.7-.6c1.4-.4 2.8-.9 4.2-1.5l-5.5-10.3c-.8 1.4-1.9 2.5-3.3 3.3l4.6 8.5zm11.3 20.8l2.4-4.8-8.1-15.2c-1.4.6-2.8 1.1-4.2 1.6l9.9 18.4z"/><path d="M25.3 22.3c-.7 0-1.3-.6-1.3-1.3 0-3.5 2.8-6.3 6.3-6.3.7 0 1.3.6 1.3 1.4-.1.7-.7 1.3-1.4 1.3-2 0-3.6 1.6-3.6 3.6-.1.7-.6 1.3-1.3 1.3zm29.4 30l-5.4 10.6-12.7-23.4c-2.1.5-4.3.8-6.5.8V46c0 .7-.6 1.3-1.4 1.3-.7 0-1.3-.6-1.3-1.3v-5.6c-2.4-.1-4.8-.4-7.2-1l-3.6 6.1c.1.6.2 1.2.2 1.8 0 2.6-1.2 4.9-3 6.4L9 63.7l-5.5-9.8C1.5 52.4.2 50 .2 47.3.3 42.7 4 39 8.5 39h.2l2.1-3.4c-2.6-1.5-5.1-3.4-7.3-5.7-.5-.5-.5-1.4 0-1.9s1.4-.6 1.9 0c2.1 2.1 4.4 3.9 6.9 5.3l7.5-12.1c-.1-.4-.1-.8-.1-1.2 0-3.3 1.8-6.2 4.5-7.8h-.4V5.3c0-2.8 2.2-5 5-5s5 2.2 5 5v7.1C36.3 14 38 16.8 38 20c0 .3 0 .7-.1 1l6.8 12.7c2.7-1.5 5.3-3.4 7.6-5.7.5-.5 1.4-.6 1.9 0 .5.5.6 1.4 0 1.9-2.5 2.5-5.3 4.5-8.2 6.1l8.7 16.3zM26.5 11.2c.7-.2 1.5-.3 2.3-.3.8 0 1.6.1 2.3.3V5.3c0-1.3-1-2.3-2.3-2.3-1.3 0-2.3 1-2.3 2.3v5.9zm-4 8.9c.1 3.5 2.9 6.4 6.4 6.4 3.6 0 6.5-2.8 6.6-6.4 0-3.5-2.8-6.5-6.4-6.5h-.2c-3.6 0-6.4 2.9-6.4 6.5zM10 55.5c-.5.1-1 .1-1.5.1-.4 0-.7 0-1-.1l1.3 2.4 1.2-2.4zm4.2-8.2c0-3.1-2.5-5.6-5.6-5.6-3.1 0-5.6 2.5-5.6 5.6 0 3.1 2.5 5.6 5.6 5.6 3.1 0 5.6-2.5 5.6-5.6zm3.4-8.7c-1.5-.5-2.9-1.1-4.3-1.7l-1.7 2.8c1.5.6 2.8 1.6 3.7 2.9l2.3-4zM24 27.7c-1.2-.8-2.3-1.9-3-3.2l-6.2 10c1.4.7 2.8 1.2 4.3 1.7l4.9-8.5zM35.3 37l-4.4-8.2c-.6.1-1.3.2-2 .2-.8 0-1.6-.1-2.4-.3l-4.8 8.1c1.9.4 3.8.7 5.8.8v-3.8c.1-.7.7-1.3 1.4-1.3s1.3.6 1.3 1.3v3.8c1.7 0 3.4-.2 5.1-.6zm2.7-.6c1.4-.4 2.8-.9 4.2-1.5l-5.5-10.3c-.8 1.4-1.9 2.5-3.3 3.3l4.6 8.5zm11.3 20.8l2.4-4.8-8.1-15.2c-1.4.6-2.8 1.1-4.2 1.6l9.9 18.4z"/></svg>
