<svg width="71" height="66" viewBox="0 0 71 66" fill="none" xmlns="http://www.w3.org/2000/svg">
<mask id="path-1-outside-1" maskUnits="userSpaceOnUse" x="30.8223" y="6.10791" width="8" height="11" fill="black">
<rect fill="white" x="30.8223" y="6.10791" width="8" height="11"/>
<path d="M36.2246 16.0004C37.2072 15.5142 37.6087 14.3235 37.1225 13.341L31.8223 7.10791L33.566 15.1017C34.0514 16.085 35.2421 16.4866 36.2246 16.0004Z"/>
</mask>
<path d="M36.2246 16.0004C37.2072 15.5142 37.6087 14.3235 37.1225 13.341L31.8223 7.10791L33.566 15.1017C34.0514 16.085 35.2421 16.4866 36.2246 16.0004Z" fill="#F1AC00"/>
<path d="M36.2246 16.0004C37.2072 15.5142 37.6087 14.3235 37.1225 13.341L31.8223 7.10791L33.566 15.1017C34.0514 16.085 35.2421 16.4866 36.2246 16.0004Z" stroke="#F1AC00" stroke-width="1.4" mask="url(#path-1-outside-1)"/>
<mask id="path-2-outside-2" maskUnits="userSpaceOnUse" x="0" y="0" width="71" height="66" fill="black">
<rect fill="white" width="71" height="66"/>
<path d="M65.6115 41.7684C63.276 39.373 60.0286 38.107 56.2196 38.107H49.7008V34.4223H40.197V28.4363C45.5858 26.4293 49.4413 21.2471 49.4413 15.1679C49.4413 7.35577 43.0864 1 35.2743 1C27.4614 1 21.1056 7.35577 21.1056 15.1679C21.1056 21.2471 24.962 26.4293 30.35 28.4355V34.4223H20.847V38.107H14.3281C10.5192 38.107 7.27178 39.373 4.93623 41.7684C1.08533 45.7164 0.982809 51.196 1.00145 52.2422V65.28H8.52149L8.52072 52.1467C8.52072 52.1141 8.52149 48.8403 10.339 47.0003C11.2516 46.0775 12.5565 45.6278 14.3289 45.6278H20.8478V49.3117H49.7015V45.6278H56.2204C57.9929 45.6278 59.2977 46.0768 60.2103 47.0003C62.0185 48.8294 62.0286 52.0978 62.0286 52.1327L62.0263 65.28H69.5471V52.2539C69.565 51.196 69.4624 45.7172 65.6115 41.7684ZM22.4517 15.8063H24.1231C24.1231 15.3317 24.162 14.868 24.2202 14.409H22.4587C22.6358 11.4008 23.8466 8.67228 25.7472 6.56896L27.2517 8.07344C27.5756 7.73713 27.9181 7.42023 28.2816 7.12819L26.7383 5.58411C28.8478 3.70371 31.5733 2.51224 34.5752 2.34991V4.69167C34.8075 4.67691 35.0382 4.65672 35.2735 4.65672C35.5096 4.65672 35.7411 4.67769 35.9725 4.69245V2.34991C38.9737 2.51224 41.7007 3.70371 43.8102 5.58411L42.2669 7.12819C42.6304 7.42101 42.9722 7.7379 43.2961 8.07422L44.8013 6.56974C46.7019 8.67383 47.9128 11.4016 48.0899 14.4098H46.3268C46.3842 14.868 46.4231 15.3325 46.4231 15.8071H48.0953C47.759 22.5962 42.1465 28.0223 35.2743 28.0223C28.402 28.0223 22.788 22.5962 22.4517 15.8063ZM31.6642 29.3373H38.8828V34.4231H31.6642V29.3373ZM14.3281 44.3144C12.186 44.3144 10.5751 44.8907 9.40383 46.0768C7.19644 48.3121 7.20498 52.0022 7.20576 52.1521L7.20654 63.9666H2.31486V52.2306C2.30398 51.6387 2.31641 46.3362 5.87682 42.6857C7.95916 40.5497 10.8811 39.4212 14.3281 39.4212H20.847V44.3144H14.3281ZM48.3866 47.9983H22.1612V45.6278V38.107V35.7357H30.35H40.197H48.3866V38.107V45.6278V47.9983ZM68.2329 52.2422V63.9666H63.342V52.1351C63.3428 51.9782 63.328 48.288 61.1439 46.076C59.9719 44.8907 58.3626 44.3137 56.2196 44.3137H49.7008V39.4204H56.2196C59.6659 39.4204 62.5886 40.549 64.6717 42.6849C68.2321 46.337 68.243 51.6387 68.2329 52.2422Z"/>
</mask>
<path d="M65.6115 41.7684C63.276 39.373 60.0286 38.107 56.2196 38.107H49.7008V34.4223H40.197V28.4363C45.5858 26.4293 49.4413 21.2471 49.4413 15.1679C49.4413 7.35577 43.0864 1 35.2743 1C27.4614 1 21.1056 7.35577 21.1056 15.1679C21.1056 21.2471 24.962 26.4293 30.35 28.4355V34.4223H20.847V38.107H14.3281C10.5192 38.107 7.27178 39.373 4.93623 41.7684C1.08533 45.7164 0.982809 51.196 1.00145 52.2422V65.28H8.52149L8.52072 52.1467C8.52072 52.1141 8.52149 48.8403 10.339 47.0003C11.2516 46.0775 12.5565 45.6278 14.3289 45.6278H20.8478V49.3117H49.7015V45.6278H56.2204C57.9929 45.6278 59.2977 46.0768 60.2103 47.0003C62.0185 48.8294 62.0286 52.0978 62.0286 52.1327L62.0263 65.28H69.5471V52.2539C69.565 51.196 69.4624 45.7172 65.6115 41.7684ZM22.4517 15.8063H24.1231C24.1231 15.3317 24.162 14.868 24.2202 14.409H22.4587C22.6358 11.4008 23.8466 8.67228 25.7472 6.56896L27.2517 8.07344C27.5756 7.73713 27.9181 7.42023 28.2816 7.12819L26.7383 5.58411C28.8478 3.70371 31.5733 2.51224 34.5752 2.34991V4.69167C34.8075 4.67691 35.0382 4.65672 35.2735 4.65672C35.5096 4.65672 35.7411 4.67769 35.9725 4.69245V2.34991C38.9737 2.51224 41.7007 3.70371 43.8102 5.58411L42.2669 7.12819C42.6304 7.42101 42.9722 7.7379 43.2961 8.07422L44.8013 6.56974C46.7019 8.67383 47.9128 11.4016 48.0899 14.4098H46.3268C46.3842 14.868 46.4231 15.3325 46.4231 15.8071H48.0953C47.759 22.5962 42.1465 28.0223 35.2743 28.0223C28.402 28.0223 22.788 22.5962 22.4517 15.8063ZM31.6642 29.3373H38.8828V34.4231H31.6642V29.3373ZM14.3281 44.3144C12.186 44.3144 10.5751 44.8907 9.40383 46.0768C7.19644 48.3121 7.20498 52.0022 7.20576 52.1521L7.20654 63.9666H2.31486V52.2306C2.30398 51.6387 2.31641 46.3362 5.87682 42.6857C7.95916 40.5497 10.8811 39.4212 14.3281 39.4212H20.847V44.3144H14.3281ZM48.3866 47.9983H22.1612V45.6278V38.107V35.7357H30.35H40.197H48.3866V38.107V45.6278V47.9983ZM68.2329 52.2422V63.9666H63.342V52.1351C63.3428 51.9782 63.328 48.288 61.1439 46.076C59.9719 44.8907 58.3626 44.3137 56.2196 44.3137H49.7008V39.4204H56.2196C59.6659 39.4204 62.5886 40.549 64.6717 42.6849C68.2321 46.337 68.243 51.6387 68.2329 52.2422Z" fill="#F1AC00"/>
<path d="M65.6115 41.7684C63.276 39.373 60.0286 38.107 56.2196 38.107H49.7008V34.4223H40.197V28.4363C45.5858 26.4293 49.4413 21.2471 49.4413 15.1679C49.4413 7.35577 43.0864 1 35.2743 1C27.4614 1 21.1056 7.35577 21.1056 15.1679C21.1056 21.2471 24.962 26.4293 30.35 28.4355V34.4223H20.847V38.107H14.3281C10.5192 38.107 7.27178 39.373 4.93623 41.7684C1.08533 45.7164 0.982809 51.196 1.00145 52.2422V65.28H8.52149L8.52072 52.1467C8.52072 52.1141 8.52149 48.8403 10.339 47.0003C11.2516 46.0775 12.5565 45.6278 14.3289 45.6278H20.8478V49.3117H49.7015V45.6278H56.2204C57.9929 45.6278 59.2977 46.0768 60.2103 47.0003C62.0185 48.8294 62.0286 52.0978 62.0286 52.1327L62.0263 65.28H69.5471V52.2539C69.565 51.196 69.4624 45.7172 65.6115 41.7684ZM22.4517 15.8063H24.1231C24.1231 15.3317 24.162 14.868 24.2202 14.409H22.4587C22.6358 11.4008 23.8466 8.67228 25.7472 6.56896L27.2517 8.07344C27.5756 7.73713 27.9181 7.42023 28.2816 7.12819L26.7383 5.58411C28.8478 3.70371 31.5733 2.51224 34.5752 2.34991V4.69167C34.8075 4.67691 35.0382 4.65672 35.2735 4.65672C35.5096 4.65672 35.7411 4.67769 35.9725 4.69245V2.34991C38.9737 2.51224 41.7007 3.70371 43.8102 5.58411L42.2669 7.12819C42.6304 7.42101 42.9722 7.7379 43.2961 8.07422L44.8013 6.56974C46.7019 8.67383 47.9128 11.4016 48.0899 14.4098H46.3268C46.3842 14.868 46.4231 15.3325 46.4231 15.8071H48.0953C47.759 22.5962 42.1465 28.0223 35.2743 28.0223C28.402 28.0223 22.788 22.5962 22.4517 15.8063ZM31.6642 29.3373H38.8828V34.4231H31.6642V29.3373ZM14.3281 44.3144C12.186 44.3144 10.5751 44.8907 9.40383 46.0768C7.19644 48.3121 7.20498 52.0022 7.20576 52.1521L7.20654 63.9666H2.31486V52.2306C2.30398 51.6387 2.31641 46.3362 5.87682 42.6857C7.95916 40.5497 10.8811 39.4212 14.3281 39.4212H20.847V44.3144H14.3281ZM48.3866 47.9983H22.1612V45.6278V38.107V35.7357H30.35H40.197H48.3866V38.107V45.6278V47.9983ZM68.2329 52.2422V63.9666H63.342V52.1351C63.3428 51.9782 63.328 48.288 61.1439 46.076C59.9719 44.8907 58.3626 44.3137 56.2196 44.3137H49.7008V39.4204H56.2196C59.6659 39.4204 62.5886 40.549 64.6717 42.6849C68.2321 46.337 68.243 51.6387 68.2329 52.2422Z" stroke="#F1AC00" stroke-width="1.4" mask="url(#path-2-outside-2)"/>
</svg>
