<svg width="55" height="64" viewBox="0 0 55 64" fill="none" xmlns="http://www.w3.org/2000/svg">
<path fill-rule="evenodd" clip-rule="evenodd" d="M8.27737 52.581C11.3668 52.581 13.8713 50.0765 13.8713 46.9871C13.8713 43.8977 11.3668 41.3932 8.27737 41.3932C5.18794 41.3932 2.68346 43.8977 2.68346 46.9871C2.68346 50.0765 5.18794 52.581 8.27737 52.581ZM8.27737 55.2645C12.8488 55.2645 16.5547 51.5586 16.5547 46.9871C16.5547 42.4156 12.8488 38.7097 8.27737 38.7097C3.7059 38.7097 0 42.4156 0 46.9871C0 51.5586 3.7059 55.2645 8.27737 55.2645Z" fill="#000000"/>
<path fill-rule="evenodd" clip-rule="evenodd" d="M28.5958 26.1804C32.1517 26.1804 35.0344 23.2977 35.0344 19.7418C35.0344 16.1858 32.1517 13.3031 28.5958 13.3031C25.0398 13.3031 22.1571 16.1858 22.1571 19.7418C22.1571 23.2977 25.0398 26.1804 28.5958 26.1804ZM28.5958 28.8639C33.6338 28.8639 37.7179 24.7798 37.7179 19.7418C37.7179 14.7037 33.6338 10.6196 28.5958 10.6196C23.5577 10.6196 19.4736 14.7037 19.4736 19.7418C19.4736 24.7798 23.5577 28.8639 28.5958 28.8639Z" fill="#000000"/>
<path fill-rule="evenodd" clip-rule="evenodd" d="M28.5952 2.68334C27.3236 2.68334 26.2928 3.71415 26.2928 4.98572H23.6094C23.6094 2.23212 25.8416 -0.00012207 28.5952 -0.00012207C31.3488 -0.00012207 33.5811 2.23212 33.5811 4.98572H30.8976C30.8976 3.71415 29.8668 2.68334 28.5952 2.68334Z" fill="#000000"/>
<path fill-rule="evenodd" clip-rule="evenodd" d="M29.9164 17.0785C27.9152 17.0785 26.2928 18.7008 26.2928 20.702C26.2928 21.443 25.6921 22.0438 24.9511 22.0438C24.2101 22.0438 23.6094 21.443 23.6094 20.702C23.6094 17.2188 26.4331 14.395 29.9164 14.395C30.6574 14.395 31.2581 14.9957 31.2581 15.7367C31.2581 16.4778 30.6574 17.0785 29.9164 17.0785Z" fill="#000000"/>
<path fill-rule="evenodd" clip-rule="evenodd" d="M5.19354 27.6633C18.1182 40.588 39.0732 40.588 51.9979 27.6633C52.5218 27.1393 53.3714 27.1393 53.8954 27.6633C54.4193 28.1873 54.4193 29.0368 53.8954 29.5608C39.9227 43.5334 17.2687 43.5334 3.29605 29.5608C2.77207 29.0368 2.77207 28.1873 3.29605 27.6633C3.82003 27.1394 4.66956 27.1394 5.19354 27.6633Z" fill="#000000"/>
<path fill-rule="evenodd" clip-rule="evenodd" d="M26.2928 4.98572V11.9142H23.6094V4.98572H26.2928ZM33.581 4.98572V12.4541H30.8976V4.98572H33.581Z" fill="#000000"/>
<path fill-rule="evenodd" clip-rule="evenodd" d="M14.1035 43.7976L23.9577 26.9412L26.2744 28.2955L16.4202 45.1519L14.1035 43.7976Z" fill="#000000"/>
<path fill-rule="evenodd" clip-rule="evenodd" d="M8.50293 38.6664L19.5678 20.859L21.8471 22.2753L10.7822 40.0826L8.50293 38.6664Z" fill="#000000"/>
<path fill-rule="evenodd" clip-rule="evenodd" d="M8.62758 57.5808L11.2985 51.9761L13.721 53.1305L8.83104 63.3915L3.28516 53.5857L5.62092 52.2646L8.62758 57.5808Z" fill="#000000"/>
<path fill-rule="evenodd" clip-rule="evenodd" d="M51.4341 52.0975L35.1477 21.678L37.5134 20.4114L54.4587 52.0616L49.0846 62.6992L30.2373 27.77L32.5989 26.4957L49.0063 56.9031L51.4341 52.0975Z" fill="#000000"/>
<path fill-rule="evenodd" clip-rule="evenodd" d="M28.6005 32.2024C29.3415 32.2024 29.9422 32.8031 29.9422 33.5441V45.7722C29.9422 46.5132 29.3415 47.1139 28.6005 47.1139C27.8595 47.1139 27.2588 46.5132 27.2588 45.7722V33.5441C27.2588 32.8031 27.8595 32.2024 28.6005 32.2024Z" fill="#000000"/>
</svg>
