<svg xmlns="http://www.w3.org/2000/svg" viewBox="0 0 108 62"><path fill="#FBC02D" stroke-width="3" d="M58.4 25.3c.7.6 1.1 1.3 1.2 1.9h-.3c-.1-.5-.4-1.1-1.1-1.7-.6-.6-1.5-1.2-2.7-1.7-2.2-1.1-5.3-1.8-8.8-1.8-.9 0-1.6-.4-2.1-1.1s-.8-1.8-.8-3.1h0c0-4.8-1-8.8-2.7-11.7-1.7-2.8-4.2-4.4-7.1-4.3v-.3c3.1-.1 5.6 1.5 7.4 4.4 1.8 2.9 2.7 7 2.7 11.8 0 1.3.3 2.3.8 3 .4.7 1.1 1 1.8 1 3.5-.1 6.6.7 8.9 1.8 1.3.6 2.2 1.2 2.8 1.8z"/><path fill="#FBC02D" stroke-width="3" d="M32.1 2.1c.8-.4 1.5-.6 2.1-.5l-.1.3c-.5-.1-1.2.1-1.9.5-.8.4-1.6 1.1-2.5 2-1.7 1.8-3.4 4.5-4.3 7.8-.2.8-.9 1.4-1.7 1.6-.9.2-2 .2-3.2-.2h0c-4.5-1.4-8.7-1.7-11.9-.9s-5.5 2.6-6.2 5.5l-.3-.1c.8-3 3.1-4.9 6.4-5.7s7.5-.5 12.1 1c1.2.3 2.3.4 3.1.2.8-.2 1.3-.7 1.5-1.4 1-3.4 2.7-6.1 4.4-7.9.9-1.1 1.7-1.8 2.5-2.2zm12.7 55.2c-.4.8-.9 1.4-1.4 1.7l-.1-.3c.4-.2.9-.7 1.3-1.5s.6-1.9.8-3.1c.3-2.5 0-5.6-1.2-8.9-.3-.8-.1-1.6.4-2.3s1.5-1.3 2.7-1.8h0c4.5-1.5 8-3.8 10.2-6.3 2.1-2.5 2.6-5.3 1.6-8.1h.5c1.1 2.9.3 5.7-1.8 8.3-2.2 2.6-5.8 4.9-10.3 6.4-1.2.4-2.1 1-2.6 1.7-.5.6-.6 1.3-.4 2 1.2 3.3 1.5 6.5 1.2 9-.3 1.3-.6 2.3-.9 3.2h0z"/><path fill="#FBC02D" stroke-width="3" d="M9.8 53.9c-.9-.1-1.6-.4-2-.8l.2-.2c.3.4 1 .6 1.8.7.9.1 2 .1 3.2-.2 2.4-.4 5.4-1.6 8.1-3.7.7-.5 1.5-.6 2.4-.3.8.3 1.7 1 2.5 2.1h0c2.8 3.9 6 6.6 9 7.9 3 1.3 6 1.1 8.2-.7l.2.2c-2.4 1.9-5.4 2-8.5.7s-6.3-4.1-9.1-8c-.8-1-1.6-1.7-2.4-2s-1.5-.2-2.1.2c-2.8 2.1-5.8 3.3-8.3 3.8-1.2.4-2.3.4-3.2.3z"/><path fill="#FBC02D" stroke-width="3" d="M2.1 20c-.2-.9-.1-1.7.1-2.2l.3.1c-.2.4-.3 1.1-.1 2s.6 1.9 1.2 3c1.2 2.2 3.3 4.6 6.1 6.5.7.5 1.1 1.2 1 2.1 0 .9-.4 1.9-1.2 3h0C6.8 38.4 5.3 42.3 5 45.6c-.2 3.3.8 6 3.3 7.6l-.2.3c-2.6-1.7-3.7-4.5-3.4-7.9.2-3.4 1.8-7.3 4.6-11.2.7-1.1 1.1-2 1.1-2.9 0-.8-.3-1.5-.9-1.9-2.9-2-5-4.4-6.2-6.6-.6-1.1-1-2.1-1.2-3zM81.4 8c-.3-1.3-.7-2.6-1-3.3 0-.1 0-.2.1-.2s.2 0 .2.1c.3.8.8 2 1.1 3.4.3 1.5.4 3.1.1 4.5h0c-.5 1.8-1.4 3.1-2.5 3.9-1.1.9-2.4 1.3-3.7 1.5-2.7.3-5.5-.5-7.4-1.3h0c-1.1-.7-2.1-1-2.9-1s-1.5.2-2 .6c-1.1.7-1.7 2-1.9 3.1 0 .1-.1.1-.2.1s-.1-.1-.1-.2c.3-1.1.9-2.5 2.1-3.3.6-.4 1.3-.7 2.2-.7s1.9.3 3.1 1.1c1.8.8 4.6 1.6 7.2 1.3 1.3-.2 2.5-.6 3.6-1.4 1-.8 1.9-2 2.4-3.8 0-1.4-.1-2.9-.4-4.4h0z"/><path fill="#FBC02D" stroke-width="3" d="M100.3 16.4c1-.9 1.9-1.9 2.3-2.5 0-.1.1-.1.2 0 .1 0 .1.1 0 .2-.5.7-1.3 1.7-2.4 2.6-1.1 1-2.4 1.9-3.8 2.3h0c-1.8.5-3.3.3-4.6-.2-1.3-.5-2.3-1.4-3.1-2.5-1.6-2.2-2.4-5-2.6-7h0c0-1.3-.2-2.3-.6-3s-.9-1.2-1.5-1.5c-1.2-.6-2.6-.4-3.6-.2-.1 0-.2 0-.2-.1s0-.2.1-.2c1-.3 2.6-.4 3.8.2.7.3 1.3.8 1.7 1.6.4.8.7 1.8.6 3.2.2 2 .9 4.8 2.5 6.9.8 1 1.8 1.9 3 2.4s2.7.6 4.4.2c1.5-.5 2.8-1.4 3.8-2.4z"/><path fill="#FBC02D" stroke-width="3" d="M102.4 37.1c1.3.4 2.6.7 3.4.8.1 0 .1.1.1.2s-.1.1-.2.1c-.8-.1-2.1-.3-3.5-.8s-2.9-1.2-3.9-2.2h0c-1.3-1.3-2-2.7-2.2-4.1s.1-2.7.6-3.9c1.1-2.5 3.2-4.6 4.8-5.7h0c1.2-.6 1.9-1.3 2.3-2s.6-1.4.5-2.1c-.1-1.3-.9-2.5-1.7-3.2-.1-.1-.1-.2 0-.2.1-.1.2-.1.2 0 .8.8 1.7 2 1.8 3.4.1.7-.1 1.5-.5 2.3-.5.7-1.2 1.5-2.4 2.1C100.1 23 98 25 97 27.4c-.5 1.2-.8 2.5-.6 3.8.2 1.3.8 2.6 2.1 3.9 1.2.8 2.6 1.5 3.9 2h0z"/><path fill="#FBC02D" stroke-width="3" d="M85.8 49.2c.3 1.3.7 2.5 1 3.3 0 .1 0 .2-.1.2s-.2 0-.2-.1c-.3-.8-.8-2-1.1-3.4-.3-1.4-.4-3.1-.1-4.4h0c.5-1.8 1.4-3.1 2.5-3.9 1.1-.9 2.4-1.3 3.7-1.5 2.7-.3 5.5.5 7.4 1.3h0c1.1.7 2.1 1 2.9 1s1.5-.2 2-.6c1.1-.7 1.7-2 1.9-3.1 0-.1.1-.1.2-.1s.1.1.1.2c-.3 1.1-.9 2.5-2.1 3.3-.6.4-1.3.7-2.2.7-.9 0-1.9-.3-3.1-1.1-1.8-.8-4.6-1.6-7.2-1.2-1.3.2-2.5.6-3.6 1.4-1 .8-1.9 2-2.4 3.8 0 1.2.1 2.8.4 4.2h0z"/><path fill="#FBC02D" stroke-width="3" d="M66.7 41.1c-1 .9-1.8 1.9-2.3 2.6 0 .1-.1.1-.2 0-.1 0-.1-.1 0-.2.5-.7 1.3-1.7 2.4-2.6 1.1-1 2.4-2 3.8-2.4h0c1.8-.5 3.3-.4 4.6.1 1.3.5 2.3 1.4 3.2 2.4 1.6 2.1 2.4 5 2.7 7h0c0 1.3.2 2.3.6 3s.9 1.2 1.6 1.5c1.2.5 2.6.4 3.6.1.1 0 .2 0 .2.1s0 .2-.1.2c-1.1.3-2.6.5-3.9-.1-.7-.3-1.3-.8-1.7-1.6-.4-.8-.7-1.8-.7-3.2-.2-2-1-4.7-2.6-6.8-.8-1-1.8-1.9-3-2.3-1.2-.5-2.7-.6-4.4-.1-1.5.4-2.8 1.4-3.8 2.3h0z"/><path fill="#FBC02D" stroke-width="3" d="M64.4 20.4c-1.2-.5-2.3-.9-3.1-.9-.1 0-.1-.1-.1-.2s.1-.1.2-.1c.8.1 2 .4 3.2 1 1.3.6 2.6 1.4 3.7 2.3h0c1.3 1.3 2 2.7 2.2 4.1s0 2.7-.5 4c-1 2.5-3.1 4.6-4.7 5.8h0c-1.2.7-1.9 1.4-2.3 2.1-.4.7-.5 1.4-.5 2.1.1 1.3 1 2.5 1.7 3.2.1.1.1.2 0 .2-.1.1-.1.1-.2 0-.8-.8-1.7-2-1.8-3.4-.1-.7.1-1.5.5-2.3.5-.8 1.2-1.5 2.4-2.2 1.6-1.2 3.6-3.3 4.6-5.7.5-1.2.7-2.5.5-3.8s-.9-2.6-2.1-3.9c-1-1-2.3-1.8-3.7-2.3z"/></svg>
