<svg xmlns="http://www.w3.org/2000/svg" viewBox="0 0 71 66"><path stroke-width="1.4" d="M36.2 16c1-.5 1.4-1.7.9-2.7l-5.3-6.2 1.7 8c.6 1 1.7 1.4 2.7.9 0 0 0 0 0 0zm29.4 25.8c-2.3-2.4-5.6-3.7-9.4-3.7h-6.5v-3.7h-9.5v-6c5.4-2 9.2-7.2 9.2-13.3C49.4 7.4 43.1 1 35.3 1S21.1 7.4 21.1 15.2c0 6.1 3.9 11.3 9.2 13.3v6h-9.5v3.7h-6.5c-3.8 0-7.1 1.3-9.4 3.7C1.1 45.7 1 51.2 1 52.2v13h7.5V52.1s0-3.3 1.8-5.1c.9-.9 2.2-1.4 4-1.4h6.5v3.7h28.9v-3.7h6.5c1.8 0 3.1.4 4 1.4 1.8 1.8 1.8 5.1 1.8 5.1v13.1h7.5v-13c.1-1 0-6.5-3.9-10.4zm-43.1-26h1.7c0-.5 0-.9.1-1.4h-1.8c.2-2.9 1.3-5.7 3.3-7.8l1.5 1.5c.3-.3.7-.7 1-.9l-1.5-1.5c2.2-1.9 4.9-3.1 7.8-3.2v2.3H36V2.3c2.9.2 5.7 1.3 7.8 3.2L42.3 7c.4.3.7.6 1 .9l1.5-1.5c2 2.2 3.1 4.9 3.3 7.8h-1.8c.1.5.1.9.1 1.4h1.7c-.3 7-6 12.4-12.8 12.4-6.9 0-12.5-5.4-12.8-12.2h0zm9.2 13.5h7.2v5.1h-7.2v-5.1zm-17.4 15c-2.1 0-3.8.6-4.9 1.8-2.2 2.2-2.2 5.9-2.2 6.1V64H2.3V52.2c0-.6 0-5.9 3.6-9.5 2.1-2.1 5-3.3 8.5-3.3h6.5v4.9h-6.6 0zM48.4 48H22.2V35.7h26.2V48h0zm19.8 4.2V64h-4.9V52.1c0-.2 0-3.8-2.2-6.1-1.2-1.2-2.8-1.8-4.9-1.8h-6.5v-4.9h6.5c3.4 0 6.4 1.1 8.5 3.3 3.5 3.7 3.5 9 3.5 9.6h0z"/></svg>
