<svg xmlns="http://www.w3.org/2000/svg" viewBox="0 0 47 68"><path d="M17.6.3C15.6.3 14 2 14 3.9V4C7.1 7.5 2.8 14.5 2.8 22.2v2.3s0 .1-.1.1l-1.3.4c-.8.2-1.3.9-1.3 1.7v5.9c0 1 .8 1.8 1.8 1.8h43.4c1 0 1.8-.8 1.8-1.8v-5.9c0-.8-.5-1.4-1.3-1.7l-1.3-.4c-.1 0-.1-.1-.1-.1v-2.4c0-7.7-4.4-14.7-11.2-18.2 0-2-1.6-3.6-3.6-3.6h-12zm-.1 3.5h11.8c.1 0 .1.1.1.1v1.3c0 .1 0 .2.1.4v8.2c0 1 .8 1.8 1.8 1.8s1.8-.8 1.8-1.8l.1-5.7c3.8 3.4 7.6 5.7 7.6 14.2v2.3c0 .2.1.5.1.7h-25c-1 0-1.8.8-1.8 1.8s.8 1.8 1.8 1.8H43v1.9H3.6V28c1.6-.4 2.6-1.9 2.6-3.5v-2.4c0-5.7 2.9-11 7.7-14.1v5.5c0 1 .8 1.8 1.8 1.8s1.8-.8 1.8-1.8V3.9c-.1-.1 0-.1 0-.1zM5.9 36.9c-.2 0-.5 0-.7.1-.9.4-1.4 1.4-1.1 2.3 6.4 18.1 15.6 20.1 19.3 20.1 3.7 0 12.9-2 19.3-20 .3-.9-.1-1.9-1-2.2-.9-.4-1.9.2-2.2 1.1C33.8 54.3 26.4 56 23.4 56S13 54.3 7.4 38.3c-.2-.9-.8-1.3-1.5-1.4zm10.3 21.9c-.1 0-.1 0-.2.1-.1 0-.1 0-.1.1h-.1l-13 5.3c-.9.4-1.3 1.4-.9 2.3.3.7.9 1.1 1.6 1.1.2 0 .5-.1.6-.1l11.4-4.7c1.5 3 4.5 4.8 8 4.8s6.4-1.8 8-4.8l11.4 4.7c.2.1.5.1.6.1.7 0 1.3-.4 1.6-1.1.4-.9-.1-2-.9-2.3l-13-5.3h-.1c-.1 0-.1 0-.1-.1h-.1c-.1 0-.1 0-.2-.1h-.5c-.1 0-.1 0-.2.1-.1 0-.1 0-.2.1-.1 0-.1.1-.2.1s-.1.1-.1.1c-.1 0-.1.1-.1.1l-.1.1-.1.1-.1.1-.1.1v.1s0 .1-.1.1v.1c0 .1 0 .1-.1.1-.8 3-3.3 4.1-5.3 4.1s-4.5-1.1-5.3-4.1c0-.1 0-.1-.1-.1 0 0 0-.1-.1-.1 0-.1-.1-.1-.1-.2-.1-.1-.1-.1-.1-.2l-.1-.1-.1-.1-.1-.1c-.1-.1-.1-.1-.2-.1s-.1-.1-.1-.1c-.1 0-.1-.1-.2-.1s-.1-.1-.1-.1c-.1 0-.1-.1-.2-.1h-.5v.1z"/></svg>
